<svg width="790" height="704" viewBox="0 0 790 704" fill="none" xmlns="http://www.w3.org/2000/svg">
<path d="M407.978 0.374537C560.935 0.295608 710.632 106.692 760.299 245.608C823.856 393.442 775.664 562.036 689.447 653.436C657.038 691.808 615.831 721.465 569.471 739.784C583.432 715.53 606.278 670.324 615.956 650.752C620.126 644.809 623.713 638.464 626.665 631.809C657.008 562.272 673.072 477.976 651.809 403.861C602.531 232.269 424.895 155.392 287.847 238.662C266.349 252.356 248.193 270.84 234.749 292.718C221.305 314.595 212.925 339.294 210.243 364.949C207.496 405.961 215.985 446.944 234.766 483.343C259.134 530.148 264.877 563.93 239.733 608.367C240.431 582.005 237.637 538.672 214.356 514.047C214.356 514.047 241.595 615.234 203.88 649.963C199.972 653.456 195.794 656.624 191.386 659.434C195.016 648.19 196.311 636.302 195.189 624.523C194.067 612.743 190.552 601.329 184.867 591.003C184.867 591.003 189.523 649.489 153.36 677.351C127.207 695.584 100.589 689.98 97.5628 687.06C97.5628 687.06 -76.2696 515.941 40.1361 238.899C106.72 80.8035 264.333 -3.96658 407.978 0.374537Z" fill="#FCC219"/>
</svg>
