<svg width="96" height="96" viewBox="0 0 96 96" fill="none" xmlns="http://www.w3.org/2000/svg">
<circle cx="48" cy="48" r="48" fill="black"/>
<g clip-path="url(#clip0_0_1)">
<path d="M70.9842 66.2792C70.9856 66.1943 70.987 66.1095 70.9885 66.0246C71.0004 65.3431 71.0123 64.6608 70.9842 63.981C70.9651 63.5134 70.9598 63.0428 70.9546 62.572C70.9414 61.3997 70.9283 60.2261 70.7025 59.0945L70.9842 66.2792ZM70.9842 66.2792C70.9699 67.4243 70.4255 67.9841 69.2924 67.9889C67.6751 67.9952 66.0579 67.9931 64.4402 67.991C63.6311 67.99 62.822 67.9889 62.0126 67.9889L70.9842 66.2792ZM26.3062 59.8132L26.3062 59.8133C26.0913 61.2727 26.0989 62.7605 26.1065 64.2585C26.1094 64.8257 26.1123 65.3944 26.1031 65.9636C26.0905 66.7461 26.2051 67.2177 26.4835 67.4993C26.7621 67.781 27.2303 67.8984 28.0003 67.8984H48.4152H48.4153L26.3062 59.8132ZM26.3062 59.8132C27.0761 54.5617 30.1061 50.9988 35.0423 49.1886L35.0425 49.1885M26.3062 59.8132L35.0425 49.1885M35.0425 49.1885C35.7551 48.926 36.5169 48.7915 37.2979 48.6883M35.0425 49.1885L37.2979 48.6883M37.2979 48.6883C37.5504 48.6549 37.8056 48.6248 38.0616 48.5945M37.2979 48.6883L38.0616 48.5945M38.0616 48.5945C38.5937 48.5316 39.1297 48.4682 39.6529 48.3748L38.0616 48.5945ZM58.9536 65.0501H59.0536V64.9501C59.0536 64.4051 59.0546 63.8677 59.0557 63.3353C59.0578 62.2853 59.0599 61.2548 59.0536 60.2232C59.0536 59.9557 59.0593 59.6851 59.0651 59.413C59.0825 58.5963 59.1002 57.766 58.9635 56.9667C58.0996 51.8935 54.2812 48.4437 49.1816 48.0212C43.3882 47.5407 38.1558 52.1631 37.9528 57.984L37.9528 57.9842C37.9014 59.5301 37.9122 61.0804 37.9231 62.6281C37.9276 63.2737 37.9322 63.9189 37.9322 64.5631H37.9318L37.9325 64.5715C37.9439 64.7075 37.9665 64.8424 38.0001 64.9747L38.0192 65.0501H38.097H58.9536ZM67.9741 65.0311H68.0741V64.9311C68.0741 64.5305 68.0759 64.1385 68.0777 63.7523C68.0812 62.9966 68.0846 62.263 68.0741 61.5308L68.0741 61.5303C68.034 59.4428 67.3785 57.4139 66.1901 55.699C65.0018 53.9841 63.3337 52.6598 61.3958 51.893L61.3952 51.8928C61.0896 51.7743 60.767 51.6888 60.4089 51.5938C60.2287 51.546 60.0396 51.4959 59.8391 51.4379L59.6065 51.3707L59.7238 51.5825C59.8275 51.7694 59.9202 51.9343 60.0052 52.0852C60.168 52.3746 60.302 52.6128 60.4283 52.8567C61.4958 54.9194 61.9362 57.1199 61.9 59.4403C61.881 60.6475 61.8873 61.8556 61.8936 63.076C61.8968 63.6908 61.9 64.3086 61.9 64.9311V65.0311H62H67.9741ZM34.9842 65.0501H35.0805L35.0841 64.9538C35.1208 63.9751 35.1091 62.9929 35.0975 62.0151C35.0956 61.8505 35.0936 61.6861 35.0919 61.5219C35.0799 60.3804 35.0792 59.2459 35.166 58.1239C35.3394 55.8814 35.8622 53.6937 37.3413 51.6174L37.4789 51.4242L37.2446 51.4606C36.9318 51.509 36.6219 51.5744 36.3161 51.6563L36.316 51.656L36.3087 51.6586C33.128 52.7826 31.1166 54.7058 29.9984 57.0548C28.8816 59.401 28.6599 62.1635 29.0407 64.9636L29.0525 65.0501H29.1398H34.9842Z" fill="white" stroke="black" stroke-width="0.2"/>
<path d="M29.8679 40.5578L29.8679 40.558C31.0132 43.5554 33.2009 45.4712 36.3268 45.9411C39.6702 46.4415 42.5236 45.2707 44.5971 42.4912C44.765 42.265 44.9239 42.0827 45.1306 41.9897C45.3428 41.8943 45.5867 41.9005 45.9076 42.0036C46.4678 42.1823 47.0542 42.26 47.6585 42.3399C47.9182 42.3743 48.1812 42.4091 48.4469 42.4526C48.7252 42.406 49.0014 42.3686 49.275 42.3316C49.8593 42.2526 50.4318 42.1752 50.9872 42.0124L29.8679 40.5578ZM29.8679 40.5578C27.907 35.4443 31.4245 29.7438 36.8622 29.2184C37.4837 29.1666 38.1083 29.1666 38.7298 29.2185L38.7298 29.2185M29.8679 40.5578L38.7298 29.2185M38.7298 29.2185L38.7311 29.2186M38.7298 29.2185L38.7311 29.2186M38.7311 29.2186C38.9732 29.2356 39.176 29.2235 39.3517 29.1317M38.7311 29.2186L39.3517 29.1317M48.4214 25.8404V25.8326L48.5214 25.8325C49.4175 25.8321 50.305 26.0086 51.133 26.3519C51.9611 26.6953 52.7135 27.1987 53.3474 27.8335C53.9812 28.4683 54.4841 29.222 54.8272 30.0516C55.1703 30.8811 55.3471 31.7701 55.3473 32.668C55.3586 36.4819 52.2327 39.5632 48.38 39.539M48.4214 25.8404C46.6494 25.8518 44.9496 26.553 43.6825 27.7981C42.3913 29.0667 41.6546 30.7966 41.6339 32.6085V32.6085C41.5921 36.349 44.6838 39.5181 48.38 39.539M48.4214 25.8404V25.9325V25.9404V25.8404ZM48.38 39.539L48.3806 39.439L48.38 39.539C48.38 39.539 48.38 39.539 48.38 39.539ZM31.9423 37.4228C31.8924 39.9518 33.5836 42.3114 35.9699 43.0288L35.97 43.0288C38.5317 43.7955 41.0284 42.8724 42.5445 40.5413L42.6251 40.6097V40.3938V40.3859V40.0382L42.4988 40.2397C40.1264 38.1928 38.8606 35.6622 38.8745 32.5133V32.5129C38.8745 32.439 38.8405 32.3657 38.8007 32.3042C38.7591 32.2403 38.7031 32.1768 38.6417 32.1202C38.5801 32.0634 38.5108 32.0114 38.4412 31.9713C38.3729 31.9319 38.2979 31.9004 38.2261 31.8918L38.2258 31.8918C34.96 31.5121 32.002 34.134 31.9423 37.4228ZM31.9423 37.4228L32.0423 37.4248M31.9423 37.4228C31.9423 37.4229 31.9423 37.4229 31.9423 37.423L32.0423 37.4248M32.0423 37.4248C32.1008 34.1941 35.008 31.6184 38.2143 31.9911M32.0423 37.4248C31.9932 39.9101 33.6565 42.2288 35.9987 42.933L38.2143 31.9911M38.2143 31.9911C38.4263 32.0165 38.7745 32.3321 38.7745 32.5129C38.7604 35.6988 40.0452 38.2595 42.445 40.3254L38.2143 31.9911ZM54.3829 40.422V40.3938V40.3795V40.3325L54.4192 40.3025C56.2649 38.7768 57.4758 36.9105 57.9282 34.6094L57.9284 34.6082C58.0618 33.9704 58.1327 33.3211 58.1399 32.6696C58.1399 32.6693 58.1399 32.6691 58.1399 32.6688L58.2399 32.6699L54.3829 40.422ZM54.3829 40.422L54.3977 40.4461C55.7623 42.6707 58.156 43.7145 60.5628 43.1765L60.5631 43.1765C63.413 42.531 65.3944 39.7566 65.0397 36.897L65.0397 36.8968C64.8556 35.4441 64.128 34.1155 63.0039 33.1798C61.8799 32.2442 60.4432 31.7711 58.9844 31.8564L54.3829 40.422ZM39.3517 29.1317C39.5289 29.0392 39.6621 28.8746 39.7866 28.6241M39.3517 29.1317L39.7866 28.6241M39.7866 28.6241C41.5686 25.0446 44.5152 23.1141 48.4648 23.1M39.7866 28.6241L48.4648 23.1M48.4648 23.1C52.4139 23.0859 55.3669 25.0193 57.1646 28.5864M48.4648 23.1L57.1646 28.5864M57.1646 28.5864C57.2951 28.8462 57.4317 29.0272 57.6165 29.1271M57.1646 28.5864L57.6165 29.1271M57.6165 29.1271C57.8025 29.2276 58.0189 29.2364 58.2851 29.1955M57.6165 29.1271L58.2851 29.1955M58.2851 29.1955C62.4453 28.5691 66.622 31.4593 67.5443 35.5752C68.6166 40.3614 65.8636 44.809 61.13 45.9507C57.9645 46.7133 54.2893 45.301 52.4182 42.5423C52.2288 42.2628 52.0451 42.0717 51.8127 41.9828C51.5793 41.8935 51.3166 41.9148 50.9874 42.0123L58.2851 29.1955Z" fill="white" stroke="black" stroke-width="0.2"/>
</g>
<defs>
<clipPath id="clip0_0_1">
<rect width="45" height="45" fill="white" transform="translate(26 23)"/>
</clipPath>
</defs>
</svg>