<svg width="96" height="96" viewBox="0 0 96 96" fill="none" xmlns="http://www.w3.org/2000/svg">
<circle cx="48" cy="48" r="48" fill="black"/>
<g clip-path="url(#clip0_0_1)">
<path d="M36.7442 31.667L39.6808 37.527C40.1312 38.4277 40.9365 38.8262 41.8573 39.0606C43.0142 39.3553 44.1828 39.6081 45.3246 39.9547C47.7338 40.683 49.244 42.2786 49.8266 44.7515C50.3434 46.9404 50.8825 49.1236 51.4439 51.3013C51.7654 52.552 53.5769 54.0337 54.8593 54.1476C56.0966 54.2547 57.0358 53.7458 57.6402 52.6792C58.0196 52.0303 58.36 51.3594 58.6598 50.6701C59.6325 48.3629 61.4022 47.1173 63.8047 46.615C65.268 46.3086 66.7128 45.9084 68.3251 45.5083C68.1577 44.7297 68.0238 43.978 67.8111 43.2514C67.5767 42.4527 67.2754 41.6742 66.9824 40.894C66.5789 39.8224 66.8953 38.8597 67.7894 38.5014C68.7487 38.1163 69.631 38.5667 70.1015 39.6734C71.8962 43.9713 72.4454 48.4299 71.5915 53.004C69.8972 62.0452 64.6837 68.2768 56.1317 71.5065C43.2402 76.3754 28.6108 68.8277 24.9075 55.5791C22.2103 45.9218 25.542 35.8694 33.5364 29.8119C37.722 26.6425 42.4717 25.0117 47.7472 25C48.8857 25 49.5889 25.5709 49.6491 26.5487C49.7094 27.5265 48.956 28.223 47.774 28.3586C46.0378 28.5528 44.2833 28.6935 42.5839 29.0652C40.5213 29.5206 38.611 30.4431 36.7442 31.667ZM34.037 33.7414C30.0724 37.5337 27.8591 42.0425 27.4037 47.4103C27.3636 47.8791 27.4992 48.162 27.9227 48.4148C29.4295 49.3123 30.9548 50.1879 32.3812 51.2025C34.0074 52.3908 35.9936 52.9821 38.0049 52.8768C40.6401 52.7881 42.8886 53.8211 44.6265 55.8604C45.4033 56.7745 46.217 57.6569 46.9704 58.5928C48.6647 60.7124 49.3478 63.1 48.7183 65.7922C48.4253 67.0446 48.0603 68.2785 47.7238 69.5409C60.6304 69.8992 69.2677 58.2178 68.4674 48.9322C66.9271 49.3206 65.3969 49.7124 63.8633 50.0891C63.4274 50.1902 63.0211 50.3916 62.6766 50.6773C62.3322 50.963 62.0592 51.3252 61.8794 51.7349C61.4926 52.5369 61.1393 53.3623 60.6722 54.1158C60.2537 54.7955 59.7849 55.487 59.1939 56.0111C54.9715 59.7581 48.9075 55.7884 48.144 51.9928C47.687 49.7358 47.0574 47.5141 46.5016 45.2756C46.3987 44.7814 46.1576 44.3267 45.8064 43.9642C45.4552 43.6017 45.0083 43.3463 44.5176 43.2279C43.7693 43.017 43.0276 42.7541 42.2641 42.6302C39.1635 42.1279 37.059 40.4536 35.9121 37.5069C35.4048 36.2428 34.6983 35.0641 34.037 33.7414ZM27.6565 52.1903C27.7017 52.6089 27.7135 52.9103 27.7687 53.1949C29.2169 60.8966 35.8787 67.5787 43.6487 69.1625C44.151 69.2663 44.3536 69.1073 44.4724 68.6469C44.7437 67.5988 45.0233 66.5523 45.3397 65.5176C45.9374 63.5704 45.4318 61.9012 44.1292 60.4111C43.6521 59.8653 43.1331 59.3479 42.7145 58.7602C41.3416 56.8382 39.4766 56.0345 37.1544 56.1852C35.0415 56.3225 33.153 55.703 31.4051 54.531C30.2148 53.7407 28.9641 53.0091 27.6565 52.1937V52.1903Z" fill="white"/>
<path d="M59.1169 25.0017C63.7461 24.9799 67.4344 29.0099 66.7128 33.487C66.4859 34.8303 65.972 36.109 65.206 37.2357C63.7461 39.3654 62.0652 41.346 60.4144 43.3384C59.7631 44.122 58.7619 44.2141 58.114 43.5578C55.6629 41.0698 53.3927 38.4361 52.0165 35.1612C50.0024 30.3661 53.9301 24.9029 59.1169 25.0017ZM59.152 39.8057C60.6973 38.0377 62.1573 36.2897 63.0998 34.1801C63.9051 32.3836 63.3426 30.4012 61.7605 29.1924C60.2419 28.0355 58.0236 28.0606 56.4783 29.2527C55.738 29.8093 55.2092 30.6012 54.9789 31.4983C54.7485 32.3953 54.8304 33.3441 55.2109 34.1885C56.1652 36.2847 57.6134 38.0377 59.152 39.8057Z" fill="white"/>
</g>
<defs>
<clipPath id="clip0_0_1">
<rect width="48" height="48" fill="white" transform="translate(24 25)"/>
</clipPath>
</defs>
</svg>
