<svg width="96" height="96" viewBox="0 0 96 96" fill="none" xmlns="http://www.w3.org/2000/svg">
<circle cx="48" cy="48" r="48" fill="black"/>
<path d="M69.8549 57.1114C67.4832 59.5382 65.437 59.3337 63.374 57.1014L62.178 57.7013C63.2761 59.0186 63.1901 60.5622 63.1901 62.0973C63.1783 63.242 63.1901 64.3866 63.1901 65.533C63.1901 66.0542 63.0214 66.4966 62.3889 66.4966C61.7563 66.4966 61.623 66.0374 61.6213 65.5196C61.6213 63.9542 61.6028 62.3906 61.6213 60.827C61.6382 59.3806 61.0292 58.4002 59.646 57.8505C58.2628 57.3008 56.9352 56.669 55.5857 56.074C52.1479 62.275 43.7422 62.0303 40.4646 56.0371C38.8132 56.7997 37.1196 57.5069 35.5019 58.3566C34.6011 58.8292 34.4189 59.7963 34.4189 60.7582C34.4189 62.2951 34.4189 63.8319 34.4189 65.3687C34.4189 65.9201 34.397 66.51 33.6328 66.495C32.8974 66.4799 32.8434 65.9117 32.8434 65.3503C32.8434 63.7582 32.8434 62.166 32.8434 60.5739C32.834 59.9156 32.972 59.2634 33.2474 58.6646C33.5228 58.0658 33.9287 57.5353 34.4358 57.1114C33.309 56.4025 33.2415 56.4729 32.3255 57.2388C31.3134 58.0767 30.9069 59.027 31.003 60.3543C31.1262 62.0487 31.03 63.7598 31.0317 65.4643C31.0317 66.014 30.9355 66.5184 30.2405 66.4966C29.5456 66.4748 29.4663 65.9654 29.4663 65.4224C29.4663 63.5219 29.414 61.6213 29.4882 59.7242C29.5236 58.8309 29.1677 58.2661 28.6127 57.6125C27.8469 56.7109 27.0945 56.488 26.0301 56.9623C25.5005 57.1986 24.8999 57.2773 24.3433 57.4466C22.9938 57.8539 22.5822 58.4052 22.5771 59.8164C22.5771 61.6599 22.5771 63.5034 22.5771 65.3469C22.5771 65.9034 22.5771 66.4883 21.8231 66.4933C21.069 66.4983 21.0235 65.9419 21.0252 65.3704C21.0252 63.3593 21.0252 61.3482 21.0252 59.3371C21.037 57.7885 21.8838 56.607 23.3632 56.1126C24.318 55.7941 25.2997 55.5578 26.2646 55.2746C26.9916 55.0567 27.2615 54.0076 26.6728 53.5098C24.9505 52.0551 24.3112 50.1881 24.3787 48.0027C24.3621 47.5927 24.2526 47.1917 24.0582 46.8296C22.5585 43.6554 24.7903 39.9381 28.3276 39.8292C30.6032 39.7588 32.8822 39.8057 35.1611 39.8007H35.9843C36.1142 38.5387 36.2171 37.327 36.3672 36.122C36.9728 31.2518 39.9704 27.0184 45.0293 25.8754C51.9168 24.3185 58.1464 27.9435 59.4571 35.0813C59.9749 37.8969 60.115 40.7795 60.4186 43.5598C61.0512 42.8325 61.7681 42.0515 62.4226 41.2253C62.5508 41.066 62.5238 40.7443 62.4934 40.5063C62.2117 38.17 64.4755 36.3164 66.8793 36.4488C69.2831 36.5812 70.9581 38.403 70.7473 40.756C70.7507 41.0141 70.8554 41.2606 71.0391 41.4431C73.4463 43.7894 73.9473 46.4307 72.5708 49.5228C72.3802 49.9502 72.3633 50.4613 72.1373 50.8635C71.6751 51.6797 71.2449 52.5747 70.5735 53.1931C69.9022 53.8115 69.9224 54.4282 69.9831 55.1355C69.9983 55.3165 70.248 55.531 70.442 55.6383C71.3073 56.0958 72.1963 56.5098 73.0684 56.9572C74.3555 57.6175 75.0235 58.6667 75.0201 60.1214C75.0201 61.8811 75.0201 63.6408 75.0201 65.4006C75.0201 65.9754 74.951 66.5218 74.2121 66.5134C73.5171 66.5134 73.4665 65.9838 73.4699 65.4408C73.4699 63.7934 73.4513 62.1442 73.4699 60.4968C73.4901 59.3924 73.0482 58.6365 72.0158 58.1924C71.2854 57.8572 70.5955 57.4784 69.8549 57.1114ZM53.0386 51.2591C53.0386 51.7417 53.0386 52.0216 53.0386 52.2998C53.0537 53.2819 54.2194 54.2338 55.1758 53.9087C56.5995 53.4193 57.9845 52.8143 59.3592 52.1993C59.5549 52.1121 59.7236 51.6797 59.6966 51.43C59.5482 50.0758 59.2884 48.7318 59.1518 47.3759C58.7874 43.7693 58.4585 40.1594 58.1278 36.5511C57.696 31.8367 54.8233 28.3122 50.3176 27.3251C45.7327 26.3195 40.9285 28.096 38.8082 32.9663C37.8247 35.2237 37.8129 37.6337 37.5447 40.0052C37.1213 43.7693 36.7468 47.5469 36.2863 51.301C36.2154 51.8724 36.3571 52.1389 36.8126 52.3266C37.9445 52.8026 39.0612 53.3322 40.2234 53.7193C41.966 54.3059 42.9612 53.5517 42.9629 51.7568C42.9629 51.3378 43.0186 50.9088 42.9443 50.5032C42.887 50.1865 42.7453 49.796 42.5058 49.6133C39.9873 47.6927 38.8081 45.1335 38.739 42.023C38.7137 40.9119 39.1675 40.0973 40.0699 39.3901C40.8391 38.7868 41.4785 37.9873 42.0503 37.1846C42.3877 36.712 42.6272 36.2243 43.2665 36.5276C43.8654 36.8125 43.7186 37.3522 43.5179 37.8399C43.0236 39.0449 42.1515 39.9164 41.0955 40.6605C40.7683 40.8901 40.4208 41.3141 40.3752 41.6828C39.8776 46.3251 44.3056 50.4546 48.9665 49.7792C53.074 49.1859 56.2959 45.7302 55.5823 40.4275C55.5012 39.9906 55.2488 39.6036 54.8806 39.3516C53.2747 38.4013 51.6908 37.3522 49.9617 36.6919C48.3103 36.0617 46.4935 35.8539 44.7324 35.4902C44.1893 35.3796 43.8013 35.1718 43.8603 34.5886C43.9227 33.9752 44.3967 33.8679 44.9247 33.9333C45.3745 33.9869 45.8182 34.0484 46.2557 34.1176C49.8318 34.6774 53.1718 35.8371 55.9551 38.2019C56.5584 38.7315 56.9658 39.4466 57.1123 40.2331C57.6184 43.6939 56.7851 46.7994 54.0152 49.1323C53.2207 49.8077 52.8226 50.4563 53.0386 51.2591ZM35.3585 41.3627C32.9075 41.3627 30.5762 41.2604 28.2568 41.3912C25.9711 41.5219 24.5204 43.833 25.3891 45.8475C25.7542 46.7139 25.9439 47.6433 25.9475 48.5826C26.0014 50.5032 26.7909 52.0618 28.6464 52.8512C31.3876 54.0243 34.397 52.0484 34.5083 49.0686C34.537 48.3228 34.3835 47.4564 34.7074 46.8547C35.6537 45.0967 35.2556 43.2665 35.3585 41.3627ZM71.6261 47.7731C71.6261 47.0592 71.7442 46.253 71.6042 45.4955C71.088 42.6934 68.3351 40.8716 65.6125 41.4532C62.7144 42.0733 60.9702 44.7531 61.6551 47.6072C61.8676 48.4904 62.2489 49.3334 62.5086 50.2083C63.0147 51.9311 64.7758 53.2249 66.6347 53.2048C68.4936 53.1847 70.1771 51.9529 70.6326 50.2049C70.7068 49.925 70.614 49.4222 70.415 49.2815C69.3149 48.4836 68.1649 47.7559 66.9721 47.1027C65.7626 46.4726 65.7221 46.5463 64.8348 47.5653C64.7977 47.6072 64.769 47.6809 64.7268 47.6893C64.3574 47.7597 63.9846 47.8184 63.6152 47.8787C63.5697 47.5066 63.4566 47.1245 63.5039 46.7642C63.5376 46.5178 63.8244 46.3151 63.9458 46.067C64.6594 44.614 64.6543 44.6123 66.245 45.157C66.5146 45.2304 66.7789 45.3217 67.0362 45.4302C68.5223 46.181 70 46.9419 71.6278 47.7731H71.6261ZM41.8951 55.3802C43.4302 57.8941 45.5286 59.1929 48.3659 59.0521C50.8962 58.9248 52.7703 57.6762 53.9208 55.6349C53.1313 54.9645 52.1985 54.4802 51.7903 53.7227C51.3618 52.9249 51.4326 51.8607 51.2741 50.8418C49.0963 51.6194 46.8747 51.5758 44.5266 50.7931C44.8252 53.064 44.3731 54.8171 41.8968 55.3802H41.8951ZM57.1781 55.045C57.755 55.3014 58.3589 55.4791 58.865 55.8075C60.1976 56.6807 61.4375 56.5785 62.7161 55.6902C63.3031 55.2846 63.6 54.1065 63.0771 53.6221C62.4901 53.0791 61.8322 52.6166 61.3902 52.2529C60.7897 53.964 58.7418 54.1048 57.1798 55.0383L57.1781 55.045ZM34.5994 52.8763C34.4316 53.0667 34.2406 53.2355 34.0309 53.3791C33.4793 53.7009 33.4422 54.2322 33.5991 54.6897C33.6969 54.9696 34.122 55.1824 34.4425 55.3299C34.8337 55.4779 35.2358 55.5956 35.6453 55.6818C36.8025 56.0036 37.7555 55.7774 38.6428 55.0115L34.5994 52.8763ZM64.9411 54.6746C64.71 56.2165 64.7893 56.5014 65.685 57.0209C65.9814 57.2129 66.3315 57.3066 66.6849 57.2886C67.0383 57.2705 67.3769 57.1416 67.6519 56.9204C68.4953 56.3137 68.5898 55.9399 68.2592 54.6713L64.9411 54.6746ZM69.0891 40.2063C69.3252 38.9091 67.7278 37.8868 66.3901 37.9957C64.9967 38.1114 64.0285 39.0432 64.1179 40.2499C65.771 39.5879 67.4343 39.6784 69.0908 40.1996L69.0891 40.2063ZM28.4744 54.6679C28.4086 55.9249 29.6822 56.2064 30.2574 57.1818C30.7803 56.1863 32.1349 55.9316 31.9544 54.6679H28.4744Z" fill="white" stroke="white" stroke-width="0.5"/>
<path d="M25.9289 63.2487C25.9289 64.0565 25.9947 64.8743 25.8935 65.6704C25.8564 65.9721 25.433 66.2251 25.185 66.5C24.9185 66.2369 24.4327 65.9821 24.4192 65.7073C24.3467 64.0648 24.3686 62.4191 24.3905 60.7733C24.3905 60.2705 24.7127 59.8465 25.2339 59.9756C25.5224 60.0476 25.8665 60.5068 25.9087 60.8269C25.993 61.623 25.9289 62.4392 25.9289 63.2487Z" fill="white" stroke="white" stroke-width="0.5"/>
<path d="M70.076 63.6995C70.076 63.0559 70.0051 62.4023 70.1063 61.7772C70.1553 61.4789 70.5348 61.2342 70.7659 60.966C71.0476 61.2208 71.5571 61.4688 71.5739 61.7353C71.6586 63.0747 71.6586 64.4181 71.5739 65.7575C71.5587 66.0223 71.0493 66.2603 70.7676 66.5033C70.5365 66.2419 70.1485 66.0005 70.1047 65.7106C70.0051 65.0486 70.0743 64.3682 70.076 63.6995Z" fill="white" stroke="white" stroke-width="0.5"/>
<path d="M40.3028 64.0498C40.3028 64.6347 40.3737 65.2313 40.2708 65.7961C40.2219 66.0626 39.8153 66.4665 39.6062 66.4497C39.311 66.4212 38.8285 66.0726 38.8099 65.8313C38.7264 64.6657 38.7264 63.4958 38.8099 62.3303C38.8268 62.0738 39.316 61.6599 39.5758 61.6599C39.8356 61.6599 40.2218 62.0856 40.2876 62.3822C40.4023 62.9135 40.3197 63.4883 40.3197 64.0447L40.3028 64.0498Z" fill="white" stroke="white" stroke-width="0.5"/>
<path d="M57.2525 64.1134C57.2525 64.643 57.347 65.1978 57.2171 65.6938C57.1361 66.0072 56.711 66.2335 56.4513 66.5C56.1932 66.2301 55.736 65.9754 55.7124 65.6871C55.6239 64.6046 55.6239 63.5167 55.7124 62.4342C55.7377 62.1409 56.1982 61.8844 56.4597 61.6113C56.7228 61.8878 57.1344 62.1291 57.2137 62.4492C57.3453 62.9772 57.2525 63.557 57.2525 64.1134Z" fill="white" stroke="white" stroke-width="0.5"/>
<path d="M28.5454 43.8414C29.959 44.1447 31.376 44.4313 32.7845 44.7564C33.353 44.8888 33.6904 45.2911 33.4727 45.8743C33.24 46.4944 32.7558 46.3368 32.2109 46.2195C30.8783 45.9329 29.5255 45.7318 28.1726 45.5575C27.5923 45.4838 26.9378 45.5089 26.9496 44.7548C26.9614 43.9335 27.6514 43.962 28.2603 43.9872C28.3447 43.9872 28.429 43.9872 28.5133 43.9872L28.5454 43.8414Z" fill="white" stroke="white" stroke-width="0.5"/>
</svg>
