<svg width="157" height="230" viewBox="0 0 157 230" fill="none" xmlns="http://www.w3.org/2000/svg">
<path d="M43.3656 18.2881C51.9625 14.1427 60.5177 9.90138 69.1789 5.90305C74.4526 3.46579 75.401 4.04955 78.7228 8.92854C94.31 31.8394 100.546 57.2261 100.004 84.7611C99.338 117.447 91.3416 147.834 73.0942 175.201C66.1657 185.583 58.424 195.324 47.7292 202.168C37.7076 208.575 29.4179 208.185 20.0207 201.35C19.1561 200.912 18.1551 200.825 17.2281 201.109C10.6808 202.851 4.9584 201.684 0.0637111 196.807C-0.694929 196.179 -1.66556 195.867 -2.64768 195.935C-14.223 196.819 -22.4797 191.72 -27.3547 180.81C-32.83 168.565 -33.8696 155.671 -32.6935 142.582C-30.5327 118.328 -24.9572 94.9334 -11.7515 74.1739C2.54259 51.6943 20.1482 32.2517 43.3656 18.2881ZM22.7613 164.519C18.3892 168.174 14.1328 171.323 10.3692 174.983C6.24064 178.975 3.22212 183.874 2.87123 189.759C2.76049 191.601 3.76083 194.244 5.17116 195.301C8.64949 197.89 12.8066 198.522 16.904 196.396C19.2834 195.159 20.8964 195.949 22.7391 197.577C24.5818 199.204 26.6879 200.908 28.9816 201.635C31.6947 202.516 34.5853 202.704 37.3897 202.182C40.1941 201.66 42.8234 200.444 45.0375 198.646C50.7919 194.136 56.5684 189.354 61.1912 183.741C81.8299 158.672 92.428 129.577 95.056 97.3093C97.5551 66.5718 92.9673 37.6188 75.4302 11.5061C74.1043 9.54309 73.1083 8.82643 70.795 9.79798C47.7712 19.4803 27.6032 32.9982 10.6207 51.6384C-15.7021 80.4484 -28.1159 114.348 -28.5879 152.938C-28.7304 164.122 -26.8423 175.045 -19.9323 184.361C-16.2083 189.385 -11.6186 192.977 -4.71361 191.843C-2.69146 191.514 -1.83828 190.719 -1.5131 188.602C-0.643587 182.614 2.19355 177.086 6.55105 172.888C10.509 169.055 14.9299 165.71 18.9853 161.971C20.3666 160.791 21.3963 159.253 21.9615 157.526C26.0063 141.437 29.8138 125.288 33.8016 109.185C35.4388 102.593 37.2381 96.0387 39.1995 89.5212C39.54 88.3963 41.0303 87.6129 41.9865 86.6665C42.4091 88.0267 43.4035 89.5191 43.1485 90.7459C42.2469 95.1383 40.8327 99.403 39.7626 103.784C35.2974 121.67 30.8806 139.565 26.5119 157.469C26.1328 159.013 26.5179 160.847 26.9193 162.454C27.7376 165.667 29.1025 168.769 29.7192 172.022C30.8894 178.235 29.5778 184.214 26.7462 189.759C26.2976 190.65 24.6467 190.925 23.5488 191.488C23.2838 190.384 23.0878 189.265 22.9617 188.136C22.928 187.624 23.3936 187.07 23.6196 186.546C26.2774 179.33 26.6435 172.209 22.7613 164.519Z" fill="#EBEBEB"/>
<path d="M-11.0624 169.034C-13.8268 161.753 -15.2394 155.096 -14.9158 148.065C-14.1325 131.452 -9.7316 115.632 -4.45035 100.002C-3.27609 96.5192 -2.22895 92.9595 -0.723579 89.6247C-0.226531 88.5186 1.53337 88.009 2.74603 87.2071C2.8874 88.5426 3.49745 90.0401 3.0906 91.1888C-2.91642 108.135 -8.46307 125.177 -10.2116 143.218C-10.9449 150.924 -10.4852 158.371 -7.79907 165.642C-7.63848 166.07 -7.33904 166.568 -7.42997 166.954C-7.68031 168.041 -8.10147 169.085 -8.45622 170.146L-11.0624 169.034Z" fill="#EBEBEB"/>
<path d="M81.2064 83.1925C81.9499 84.1336 83.2937 85.0526 83.322 86.0123C83.3671 88.7715 83.1616 91.5291 82.7079 94.2511C80.6346 108.009 79.463 121.95 74.6121 135.143C73.9438 136.957 74.0199 140.438 70.9822 139.481C67.9444 138.523 69.9889 135.776 70.5991 133.932C75.5772 118.831 77.1515 103.13 79.0686 87.4888C79.2392 86.1351 78.8652 84.7216 78.7475 83.3314L81.2064 83.1925Z" fill="#EBEBEB"/>
<path d="M64.131 27.8662C65.0397 27.9412 66.3349 27.7192 66.5844 28.1341C66.8179 28.5555 66.9618 29.0206 67.0072 29.5002C67.0526 29.9798 66.9985 30.4637 66.8483 30.9214C65.2781 34.6181 63.4063 38.1894 61.7945 41.8708C57.7343 51.1168 53.7715 60.4173 49.7552 69.6693C49.5831 70.3384 49.3038 70.9753 48.9281 71.5551C48.0366 72.3927 47.0944 73.1749 46.1071 73.8973C45.7571 72.6308 44.7698 71.1099 45.1662 70.145C49.2244 60.1576 53.4714 50.2423 57.7409 40.3376C59.078 37.1928 60.6548 34.0975 62.1853 31.0058C62.6955 30.029 63.385 29.122 64.131 27.8662Z" fill="#EBEBEB"/>
<path d="M46.7109 179.164C46.9471 178.215 47.022 177.185 47.491 176.435C51.52 170.291 55.5551 164.143 59.8037 158.149C60.4433 157.24 62.1738 157.111 63.3951 156.619C63.3442 157.876 63.7859 159.403 63.1961 160.314C59.247 166.515 55.1579 172.617 50.9286 178.621C50.2913 179.521 48.6332 179.703 47.457 180.216L46.7109 179.164Z" fill="#EBEBEB"/>
<path d="M22.8135 52.3041L26.4319 52.8318C26.1507 53.9614 26.1843 55.3456 25.5268 56.1849C21.7337 61.0571 17.8622 65.8796 13.7924 70.5065C12.9725 71.4516 11.2289 71.6124 9.92584 72.1298C10.0371 70.8118 9.66409 69.1314 10.3381 68.2256C14.3111 62.9143 18.4966 57.7818 22.8135 52.3041Z" fill="#EBEBEB"/>
<path d="M80.537 68.2433C80.4007 67.2115 80.2599 66.4406 80.2033 65.6352C79.8627 62.103 79.3987 58.5804 79.2812 55.0432C79.2396 53.914 80.121 52.7625 80.5776 51.6161C81.5002 52.4254 83.0999 53.1259 83.2254 54.0594C83.8413 58.2369 84.2377 62.4438 84.4131 66.6628C84.4494 67.3674 83.4219 68.3565 82.6501 68.7642C82.1925 69.0233 81.2548 68.4169 80.537 68.2433Z" fill="#EBEBEB"/>
</svg>
