<svg width="75" height="75" viewBox="0 0 75 75" fill="none" xmlns="http://www.w3.org/2000/svg">
<g clip-path="url(#clip0_97_678)">
<path d="M39.8247 57.3627C37.7168 59.352 36.0748 60.9289 34.4039 62.477C32.2204 64.504 30.2589 64.0175 29.1669 61.2028C28.5044 59.4893 27.7764 57.7965 27.1596 56.0643C26.4761 54.1699 25.2784 53.2122 23.1935 53.2557C21.2103 53.3025 19.2191 53.197 17.2373 53.0487C14.491 52.8526 13.5227 51.2186 14.535 48.621C15.2699 46.7723 16.0655 44.9531 16.8926 43.1505C17.6545 41.484 17.4919 40.0447 16.1641 38.7186C14.7114 37.2622 13.2938 35.7623 11.8875 34.2554C10.1269 32.3655 10.5217 30.3452 12.8923 29.3272C14.5738 28.6016 16.291 27.9319 18.0273 27.3497C20.2612 26.6025 21.3819 25.211 21.3055 22.7723C21.256 20.9303 21.3059 19.087 21.4549 17.2506C21.6375 14.5522 23.3634 13.5096 25.8856 14.5467C27.724 15.3006 29.5648 16.0582 31.3582 16.9143C33.0533 17.7229 34.4736 17.4262 35.7806 16.1626C37.2052 14.7873 38.6383 13.4171 40.087 12.0632C42.1959 10.0837 44.1261 10.48 45.2518 13.142C46.0492 15.0424 46.807 16.9629 47.5451 18.8854C48.1808 20.5321 49.3077 21.2883 51.0976 21.2754C53.2287 21.255 55.3678 21.3293 57.494 21.4904C59.913 21.6748 60.912 23.1843 60.0973 25.4669C59.3818 27.4779 58.5546 29.4471 57.6196 31.3656C56.7808 33.0759 57.0685 34.4564 58.3362 35.7789C59.6654 37.1566 60.9458 38.5812 62.2587 39.9745C64.5181 42.3756 64.0862 44.2306 60.963 45.466C59.1875 46.1676 57.4127 46.8757 55.6386 47.5904C53.9384 48.2703 53.1651 49.4666 53.1998 51.3547C53.2461 53.4152 53.1685 55.4765 52.9674 57.5274C52.7151 60.0919 51.2091 60.9942 48.8197 60.0668C46.75 59.2871 44.7874 58.2397 42.7038 57.5371C41.707 57.207 40.5379 57.396 39.8247 57.3627Z" fill="#B69653"/>
<path d="M25.6214 40.4021C25.551 40.4402 25.4779 40.4479 25.402 40.4253C25.3261 40.4027 25.2691 40.3562 25.231 40.2858L21.5155 33.414C21.4736 33.3366 21.464 33.2599 21.4866 33.184C21.5092 33.1081 21.5557 33.0511 21.6261 33.0131L24.6873 31.3579C25.2573 31.0497 25.7693 30.8865 26.2233 30.8684C26.6735 30.8433 27.0649 30.9363 27.3974 31.1476C27.737 31.3551 28.0152 31.6594 28.2321 32.0605C28.3766 32.3279 28.4549 32.5903 28.4667 32.8476C28.4817 33.0941 28.4531 33.3188 28.3809 33.5215C28.3157 33.7205 28.2352 33.8913 28.1396 34.034C28.4825 34.0123 28.8395 34.0921 29.2104 34.2735C29.5813 34.4549 29.8771 34.7497 30.0978 35.1579C30.3261 35.5801 30.4347 36.008 30.4235 36.4414C30.4123 36.8749 30.2716 37.2875 30.0014 37.6792C29.7274 38.0638 29.3159 38.4045 28.767 38.7013L25.6214 40.4021ZM26.2303 38.6269L27.9931 37.6737C28.3731 37.4682 28.6065 37.2102 28.6931 36.8996C28.776 36.5819 28.7376 36.2753 28.5778 35.9798C28.4103 35.6701 28.1694 35.4684 27.855 35.3747C27.5476 35.2772 27.2074 35.3292 26.8345 35.5309L25.0717 36.484L26.2303 38.6269ZM24.4781 35.3862L26.1353 34.4902C26.5083 34.2885 26.7387 34.0502 26.8265 33.7754C26.9176 33.4897 26.8852 33.2026 26.7292 32.914C26.5693 32.6185 26.3507 32.4411 26.0732 32.382C25.7989 32.3121 25.4752 32.3779 25.1023 32.5796L23.445 33.4756L24.4781 35.3862ZM34.8994 35.5219C34.1183 35.9443 33.3772 36.0539 32.6763 35.8509C31.9754 35.6478 31.3828 35.1406 30.8986 34.3292C30.8535 34.2627 30.8025 34.1766 30.7454 34.0711C30.6845 33.9585 30.6405 33.8686 30.6133 33.8015C30.356 33.2584 30.2283 32.7363 30.2302 32.2352C30.2391 31.7302 30.3783 31.2729 30.648 30.8633C30.9138 30.4467 31.3036 30.0996 31.8173 29.8218C32.3874 29.5136 32.9306 29.3745 33.447 29.4045C33.9596 29.4274 34.4286 29.5967 34.8539 29.9124C35.2754 30.2211 35.6346 30.6499 35.9314 31.1988L36.0513 31.4204C36.0893 31.4908 36.097 31.5639 36.0744 31.6398C36.0518 31.7157 36.0018 31.7746 35.9243 31.8165L32.4198 33.7114C32.4198 33.7114 32.4255 33.7219 32.437 33.743C32.4484 33.7641 32.4579 33.7817 32.4655 33.7958C32.6057 34.0383 32.7751 34.2423 32.9737 34.4077C33.1755 34.5623 33.3951 34.6573 33.6325 34.6927C33.8769 34.7242 34.1188 34.6753 34.358 34.5459C34.5551 34.4394 34.7052 34.3218 34.8085 34.1932C34.908 34.0576 34.979 33.9283 35.0216 33.8052C35.0642 33.6821 35.0897 33.5864 35.0983 33.5182C35.116 33.3995 35.1386 33.3236 35.1662 33.2905C35.197 33.2465 35.2511 33.2036 35.3285 33.1618L36.2363 32.6709C36.3067 32.6329 36.3744 32.6236 36.4394 32.6429C36.5115 32.6585 36.5612 32.6999 36.5884 32.767C36.6422 32.8834 36.6566 33.053 36.6315 33.2757C36.6135 33.4947 36.5443 33.7367 36.4239 34.0019C36.3035 34.267 36.1171 34.5361 35.8645 34.8091C35.6152 35.0712 35.2935 35.3088 34.8994 35.5219ZM31.9404 32.8247L34.2732 31.5633L34.2561 31.5316C34.1077 31.2572 33.9326 31.0427 33.7308 30.8881C33.5289 30.7334 33.3077 30.6439 33.0671 30.6194C32.8265 30.5949 32.583 30.6492 32.3367 30.7824C32.0904 30.9156 31.9117 31.0895 31.8004 31.3043C31.6892 31.519 31.643 31.7532 31.6618 32.0067C31.6877 32.2565 31.7749 32.5186 31.9233 32.793L31.9404 32.8247ZM40.7066 32.3819C40.2844 32.6102 39.8954 32.7569 39.5395 32.822C39.1907 32.8833 38.8813 32.8914 38.6114 32.8464C38.3415 32.8014 38.1208 32.7297 37.9494 32.6314C37.778 32.533 37.6622 32.4365 37.6019 32.3418C37.553 32.2682 37.5418 32.197 37.5682 32.1281C37.5979 32.0484 37.6444 31.9914 37.7077 31.9572L38.5416 31.5063C38.5697 31.4911 38.5963 31.4813 38.6212 31.4769C38.6461 31.4725 38.6857 31.4784 38.7399 31.4946C38.8732 31.5225 39.012 31.5521 39.1562 31.5833C39.3074 31.6106 39.4705 31.6179 39.6455 31.6052C39.8167 31.5854 40.0078 31.5184 40.2189 31.4042C40.4934 31.2558 40.6935 31.0794 40.8194 30.8749C40.9486 30.6596 40.958 30.4499 40.8476 30.2458C40.7677 30.098 40.6608 30.0012 40.5269 29.9554C40.4 29.9058 40.2085 29.9047 39.9523 29.9523C39.6923 29.9929 39.3389 30.0794 38.8921 30.2118C38.4485 30.3334 38.0585 30.3942 37.722 30.3943C37.3856 30.3943 37.0969 30.323 36.8561 30.1804C36.6153 30.0378 36.4188 29.8257 36.2666 29.5442C36.1182 29.2698 36.0583 28.9656 36.087 28.6318C36.1189 28.2872 36.253 27.9464 36.4892 27.6095C36.7324 27.2688 37.0968 26.9672 37.5824 26.7047C37.9624 26.4992 38.3198 26.3696 38.6545 26.3159C38.9855 26.2552 39.2805 26.2458 39.5395 26.2876C39.8056 26.3256 40.0279 26.3918 40.2063 26.4864C40.381 26.5738 40.5003 26.6684 40.5644 26.7702C40.6133 26.8438 40.6265 26.9185 40.6038 26.9944C40.5774 27.0633 40.5325 27.1149 40.4692 27.1491L39.6881 27.5715C39.6529 27.5905 39.6174 27.6006 39.5816 27.6017C39.5459 27.6029 39.5082 27.6005 39.4687 27.5946C39.3532 27.5661 39.2288 27.5378 39.0955 27.5099C38.9621 27.482 38.8134 27.476 38.6492 27.492C38.4883 27.4971 38.3023 27.5568 38.0912 27.6709C37.8238 27.8155 37.652 27.9857 37.576 28.1814C37.4961 28.3701 37.5037 28.5524 37.5989 28.7284C37.6636 28.848 37.7523 28.9364 37.8651 28.9937C37.9811 29.0401 38.1621 29.0468 38.408 29.0139C38.654 28.9809 39.0074 28.8944 39.4682 28.7544C39.9854 28.5839 40.4268 28.5089 40.7926 28.5294C41.1616 28.539 41.4614 28.6225 41.6919 28.7798C41.9257 28.9262 42.113 29.1296 42.2538 29.39C42.425 29.7067 42.4841 30.043 42.4311 30.3991C42.3851 30.7514 42.2191 31.1003 41.9331 31.446C41.6503 31.7808 41.2415 32.0928 40.7066 32.3819ZM46.6481 29.033C46.2259 29.2613 45.8306 29.3795 45.4621 29.3877C45.0937 29.396 44.7611 29.2939 44.4644 29.0814C44.1638 28.862 43.8956 28.5341 43.6597 28.0978L42.3641 25.7016L41.5302 26.1525C41.4598 26.1906 41.3867 26.1983 41.3108 26.1757C41.2349 26.153 41.1779 26.1065 41.1398 26.0362L40.8088 25.4239C40.7708 25.3536 40.763 25.2804 40.7857 25.2045C40.8083 25.1286 40.8548 25.0717 40.9252 25.0336L41.7591 24.5827L40.8116 22.8305C40.7736 22.7601 40.7623 22.6889 40.7779 22.6168C40.8006 22.5409 40.8506 22.482 40.928 22.4401L41.783 21.9778C41.8534 21.9398 41.9265 21.9321 42.0024 21.9547C42.0783 21.9773 42.1353 22.0238 42.1733 22.0942L43.1208 23.8465L44.4402 23.133C44.5106 23.095 44.5837 23.0873 44.6596 23.1099C44.7355 23.1325 44.7925 23.179 44.8306 23.2494L45.1616 23.8616C45.1996 23.932 45.2074 24.0051 45.1847 24.081C45.1621 24.1569 45.1156 24.2139 45.0452 24.2519L43.7258 24.9654L44.9643 27.256C45.1203 27.5445 45.2913 27.743 45.4774 27.8516C45.6704 27.9564 45.8936 27.9403 46.147 27.8033L46.8753 27.4095C46.9457 27.3715 47.0188 27.3638 47.0947 27.3864C47.1706 27.409 47.2276 27.4555 47.2656 27.5259L47.6195 28.1803C47.6576 28.2507 47.6653 28.3238 47.6426 28.3997C47.62 28.4756 47.5735 28.5326 47.5031 28.5706L46.6481 29.033ZM30.9505 51.2989C30.296 51.6528 29.6958 51.8546 29.1497 51.9043C28.6068 51.9432 28.1356 51.8706 27.7359 51.6865C27.3395 51.4916 27.0411 51.2255 26.8405 50.8883C26.8063 50.825 26.7989 50.7608 26.8183 50.6957C26.8377 50.6307 26.879 50.581 26.9424 50.5468L27.8818 50.0388C27.9733 49.9893 28.0516 49.9743 28.1166 49.9937C28.1849 50.0022 28.2519 50.0252 28.3175 50.0624C28.432 50.1733 28.5852 50.2633 28.7772 50.3323C28.9653 50.3943 29.1842 50.4123 29.4339 50.3864C29.6907 50.3567 29.9774 50.2562 30.2941 50.085C30.8008 49.8111 31.1316 49.523 31.2866 49.221C31.4486 48.9151 31.4516 48.6179 31.2956 48.3294C31.1853 48.1253 31.0309 47.9996 30.8325 47.9523C30.6303 47.8979 30.3618 47.8975 30.0271 47.9512C29.6956 47.994 29.2707 48.0828 28.7524 48.2176C28.1561 48.3763 27.6309 48.4647 27.1769 48.4828C26.7261 48.4901 26.335 48.406 26.0037 48.2305C25.6794 48.0511 25.403 47.7504 25.1747 47.3281C24.954 46.92 24.8672 46.4986 24.9141 46.0639C24.9681 45.6255 25.1497 45.2045 25.4589 44.8008C25.7751 44.3933 26.2183 44.0355 26.7883 43.7273C27.2457 43.48 27.6846 43.3245 28.1049 43.2609C28.5215 43.1903 28.901 43.1943 29.2436 43.2728C29.5824 43.3443 29.8744 43.4638 30.1196 43.6313C30.368 43.788 30.5547 43.9735 30.6797 44.1879C30.7101 44.2442 30.7176 44.3084 30.702 44.3805C30.6896 44.4417 30.6483 44.4914 30.5779 44.5294L29.5962 45.0602C29.5399 45.0907 29.476 45.107 29.4045 45.1093C29.333 45.1116 29.2587 45.0836 29.1816 45.0252C29.0215 44.8299 28.7834 44.7176 28.4675 44.6883C28.1515 44.6591 27.8106 44.7434 27.4447 44.9412C27.0647 45.1467 26.7966 45.3826 26.6405 45.6489C26.4843 45.9152 26.4862 46.1961 26.646 46.4917C26.7525 46.6887 26.8982 46.8237 27.0831 46.8965C27.2712 46.9585 27.5186 46.9702 27.8252 46.9318C28.1389 46.8895 28.5372 46.8105 29.0204 46.6948C29.6908 46.5051 30.2636 46.3955 30.7387 46.3659C31.2139 46.3364 31.6136 46.4113 31.9379 46.5906C32.2584 46.7629 32.531 47.0566 32.7555 47.4718C33.0066 47.9363 33.0949 48.4024 33.0204 48.8701C32.9491 49.327 32.7359 49.7652 32.3806 50.1846C32.0253 50.6041 31.5486 50.9755 30.9505 51.2989ZM37.3959 47.8139C36.6147 48.2363 35.8737 48.3459 35.1728 48.1429C34.4718 47.9398 33.8793 47.4326 33.3951 46.6212C33.35 46.5547 33.2989 46.4686 33.2418 46.3631C33.181 46.2505 33.1369 46.1606 33.1097 46.0935C32.8525 45.5504 32.7248 45.0283 32.7266 44.5271C32.7355 44.0221 32.8748 43.5649 33.1444 43.1553C33.4103 42.7387 33.8001 42.3916 34.3138 42.1138C34.8838 41.8056 35.427 41.6665 35.9434 41.6965C36.456 41.7194 36.925 41.8887 37.3504 42.2044C37.7719 42.5131 38.1311 42.9419 38.4279 43.4908L38.5477 43.7124C38.5858 43.7828 38.5935 43.8559 38.5709 43.9318C38.5482 44.0077 38.4982 44.0666 38.4208 44.1085L34.9163 46.0034C34.9163 46.0034 34.922 46.0139 34.9334 46.035C34.9448 46.0561 34.9543 46.0737 34.9619 46.0878C35.1022 46.3303 35.2716 46.5343 35.4702 46.6997C35.672 46.8543 35.8916 46.9493 36.129 46.9847C36.3734 47.0162 36.6152 46.9673 36.8545 46.8379C37.0515 46.7314 37.2017 46.6138 37.305 46.4852C37.4044 46.3496 37.4754 46.2203 37.518 46.0972C37.5606 45.9741 37.5862 45.8784 37.5948 45.8102C37.6124 45.6915 37.6351 45.6156 37.6626 45.5825C37.6934 45.5385 37.7475 45.4956 37.825 45.4538L38.7327 44.9629C38.8031 44.9249 38.8708 44.9155 38.9359 44.9349C39.008 44.9505 39.0576 44.9919 39.0848 45.059C39.1387 45.1754 39.1531 45.345 39.128 45.5677C39.1099 45.7867 39.0407 46.0287 38.9204 46.2939C38.8 46.559 38.6135 46.8281 38.361 47.1011C38.1116 47.3632 37.7899 47.6008 37.3959 47.8139ZM34.4369 45.1167L36.7697 43.8553L36.7526 43.8236C36.6042 43.5492 36.429 43.3347 36.2272 43.18C36.0254 43.0254 35.8042 42.9359 35.5636 42.9114C35.3229 42.8869 35.0795 42.9412 34.8332 43.0744C34.5869 43.2075 34.4081 43.3815 34.2969 43.5963C34.1856 43.811 34.1394 44.0452 34.1583 44.2987C34.1842 44.5485 34.2713 44.8106 34.4197 45.085L34.4369 45.1167ZM41.3304 45.5501C41.2601 45.5881 41.1869 45.5958 41.111 45.5732C41.0351 45.5506 40.9782 45.5041 40.9401 45.4337L37.1617 38.4458C37.1237 38.3754 37.116 38.3023 37.1386 38.2264C37.1612 38.1505 37.2077 38.0935 37.2781 38.0555L38.1542 37.5817C38.2246 37.5437 38.2977 37.536 38.3736 37.5586C38.4495 37.5812 38.5065 37.6277 38.5445 37.6981L42.3229 44.686C42.361 44.7564 42.3687 44.8295 42.3461 44.9054C42.3234 44.9813 42.2769 45.0383 42.2066 45.0763L41.3304 45.5501ZM44.124 44.0396C44.0536 44.0776 43.9805 44.0853 43.9046 44.0627C43.8287 44.0401 43.7717 43.9936 43.7337 43.9232L39.9553 36.9353C39.9173 36.8649 39.9095 36.7918 39.9322 36.7159C39.9548 36.64 40.0013 36.583 40.0717 36.545L40.9478 36.0713C41.0182 36.0332 41.0913 36.0255 41.1672 36.0481C41.2431 36.0707 41.3001 36.1172 41.3381 36.1876L45.1165 43.1755C45.1545 43.2459 45.1622 43.319 45.1396 43.3949C45.117 43.4708 45.0705 43.5278 45.0001 43.5659L44.124 44.0396ZM49.0752 41.4989C48.2941 41.9212 47.5531 42.0309 46.8521 41.8278C46.1512 41.6248 45.5586 41.1176 45.0745 40.3062C45.0294 40.2396 44.9783 40.1536 44.9212 40.048C44.8603 39.9354 44.8163 39.8455 44.7891 39.7784C44.5319 39.2354 44.4042 38.7133 44.406 38.2121C44.4149 37.7071 44.5542 37.2498 44.8238 36.8403C45.0897 36.4237 45.4795 36.0765 45.9932 35.7987C46.5632 35.4905 47.1064 35.3514 47.6228 35.3814C48.1354 35.4044 48.6044 35.5737 49.0297 35.8894C49.4513 36.198 49.8104 36.6268 50.1072 37.1757L50.2271 37.3974C50.2651 37.4678 50.2729 37.5409 50.2502 37.6168C50.2276 37.6927 50.1776 37.7516 50.1002 37.7934L46.5957 39.6883C46.5957 39.6883 46.6014 39.6989 46.6128 39.72C46.6242 39.7411 46.6337 39.7587 46.6413 39.7728C46.7815 40.0152 46.9509 40.2192 47.1495 40.3847C47.3514 40.5393 47.571 40.6343 47.8084 40.6696C48.0528 40.7012 48.2946 40.6523 48.5339 40.5229C48.7309 40.4163 48.8811 40.2988 48.9843 40.1702C49.0838 40.0346 49.1548 39.9052 49.1974 39.7821C49.24 39.6591 49.2656 39.5634 49.2741 39.4951C49.2918 39.3764 49.3144 39.3005 49.342 39.2674C49.3728 39.2235 49.4269 39.1806 49.5043 39.1387L50.4121 38.6479C50.4825 38.6098 50.5502 38.6005 50.6153 38.6199C50.6874 38.6355 50.737 38.6768 50.7642 38.744C50.8181 38.8604 50.8324 39.03 50.8074 39.2527C50.7893 39.4716 50.7201 39.7137 50.5997 39.9788C50.4794 40.244 50.2929 40.5131 50.0404 40.786C49.791 41.0482 49.4693 41.2858 49.0752 41.4989ZM46.1162 38.8016L48.4491 37.5403L48.4319 37.5086C48.2835 37.2341 48.1084 37.0196 47.9066 36.865C47.7048 36.7104 47.4836 36.6208 47.2429 36.5963C47.0023 36.5718 46.7589 36.6261 46.5126 36.7593C46.2663 36.8925 46.0875 37.0665 45.9762 37.2812C45.865 37.496 45.8188 37.7301 45.8377 37.9837C45.8636 38.2334 45.9507 38.4955 46.0991 38.77L46.1162 38.8016ZM52.9993 39.2407C52.9289 39.2788 52.8557 39.2865 52.7799 39.2639C52.704 39.2412 52.647 39.1947 52.6089 39.1244L49.9207 34.1526C49.8788 34.0752 49.8692 33.9985 49.8919 33.9226C49.9145 33.8467 49.961 33.7898 50.0313 33.7517L50.8864 33.2894C50.9567 33.2514 51.0299 33.2437 51.1058 33.2663C51.1887 33.2851 51.2511 33.3332 51.2929 33.4106L51.527 33.8434C51.5671 33.5307 51.6814 33.246 51.8701 32.9894C52.0658 32.729 52.3325 32.5075 52.6703 32.3248L53.1031 32.0908C53.1805 32.049 53.2536 32.0413 53.3225 32.0677C53.3984 32.0903 53.4553 32.1368 53.4934 32.2072L53.9043 32.9672C53.9424 33.0376 53.9501 33.1107 53.9275 33.1866C53.9119 33.2587 53.8654 33.3157 53.788 33.3575L52.9646 33.8027C52.6268 33.9854 52.4143 34.223 52.327 34.5158C52.2468 34.8047 52.2961 35.1146 52.475 35.4453L54.0445 38.3481C54.0826 38.4185 54.0903 38.4917 54.0677 38.5675C54.045 38.6434 53.995 38.7023 53.9176 38.7442L52.9993 39.2407Z" fill="white"/>
</g>
<defs>
<clipPath id="clip0_97_678">
<rect width="54" height="54" fill="white" transform="translate(0 29.0291) rotate(-32.5188)"/>
</clipPath>
</defs>
</svg>
