<svg width="192" height="181" viewBox="0 0 192 181" fill="none" xmlns="http://www.w3.org/2000/svg">
<path d="M107.981 55.0521C109.844 58.8896 111.92 62.6423 113.525 66.5867C116.37 73.5734 115.541 80.4164 111.067 86.4128C102.837 97.4433 92.2434 104.192 77.8843 101.982C73.7009 101.342 69.5912 99.3573 65.7864 97.3489C61.0414 94.8484 56.7435 91.5048 52.0602 88.8629C49.7509 87.544 47.1928 86.7177 44.5472 86.436C41.9015 86.1542 39.2256 86.4232 36.6881 87.2259C28.1554 89.7318 23.17 96.1192 23.5366 104.979C24.1915 120.914 31.5531 133.419 44.3226 142.568C70.032 161.011 104.275 161.05 130.663 143.039C147.301 131.689 158.964 116.685 164.382 97.1146C168.055 83.8576 166.944 70.7665 162.484 57.962C159.257 48.6811 156.081 39.3135 149.758 31.492C144.352 24.8183 138.322 18.8136 130.476 14.9613C125.457 12.4616 119.839 11.4069 114.252 11.9152C106.375 12.6025 101.192 17.2016 100.264 24.9915C99.3518 32.6493 100.117 40.1688 103.791 47.1747C105.169 49.8095 106.387 52.5222 107.687 55.2009L107.981 55.0521ZM31.455 122.198C28.7059 116.714 26.6769 110.31 27.0712 103.337C27.3096 99.1366 28.8905 95.5798 32.5045 93.1683C38.3508 89.2702 44.4329 88.7598 50.6347 92.1647C53.241 93.5834 55.6739 95.297 58.2596 96.7753C62.7616 99.3379 67.0844 102.477 71.9012 104.205C90.733 110.975 110.402 97.9549 116.829 83.0576C119.079 77.8245 119.467 72.2187 117.296 67.0057C114.67 60.6875 111.406 54.6167 108.124 48.598C104.197 41.4644 102.681 33.2521 103.801 25.1833C104.386 20.6349 106.767 16.9249 111.534 16.0181C114.902 15.4049 118.348 15.3509 121.733 15.8583C128.787 16.9029 134.384 20.9545 139.565 25.6051C148.235 33.3906 153.474 43.3003 157.507 54.0371C162.933 68.4988 164.961 83.122 160.389 98.2098C156.195 112.299 147.884 124.818 136.525 134.162C113.125 153.635 87.1596 158.492 58.7389 146.646C47.1676 141.806 37.506 134.509 31.455 122.198Z" fill="#EBEBEB"/>
<path d="M116.32 138.497C135.892 129.739 146.296 113.574 152.691 94.1119C152.721 94.0239 152.742 93.933 152.752 93.8407C152.842 92.4024 154.331 90.4085 152.135 89.7452C149.939 89.082 149.95 91.4943 149.454 92.8258C145.459 103.58 141.206 114.186 132.825 122.488C126.324 128.911 118.598 133.486 110.376 137.31C109.788 137.596 109.028 137.679 108.616 138.109C108.159 138.732 107.789 139.414 107.516 140.137C108.196 140.426 109.006 141.149 109.562 141.003C111.855 140.293 114.075 139.345 116.32 138.497Z" fill="#EBEBEB"/>
<path d="M147.43 46.8542C142.636 37.1192 138.031 29.4367 129.748 25.1204C126.142 23.2389 121.953 22.4087 117.96 21.3535C117.32 21.1867 116.325 22.333 115.495 22.8724C116.199 23.4666 116.848 24.4966 117.613 24.59C129.59 26.0466 136.76 33.748 141.955 43.6422C146.454 52.2065 149.814 61.2369 150.588 71.064C150.652 71.9004 151.707 72.6531 152.304 73.448C152.839 72.5311 153.952 71.5259 153.83 70.7113C153.201 65.9521 152.296 61.2335 151.121 56.5793C150.04 52.6533 148.241 48.9463 147.43 46.8542Z" fill="#EBEBEB"/>
<path d="M41.6244 125.325C45.1039 128.427 48.3831 131.577 51.9006 134.426C60.9704 141.744 71.6336 145.301 82.9791 147.158C83.8012 147.291 84.7097 147.514 85.4662 147.295C86.3806 147.031 87.1751 146.354 88.0225 145.85C87.2636 145.233 86.5889 144.265 85.7278 144.05C81.41 142.967 77.0158 142.211 72.7035 141.075C62.1177 138.342 53.623 132.17 46.0293 124.581C45.5015 124.056 45.0863 123.303 44.4555 123.039C43.6946 122.681 42.8264 122.622 42.0236 122.875C41.6617 123.075 41.7741 124.304 41.6244 125.325Z" fill="#EBEBEB"/>
<path d="M106.085 113.031C116.688 107.437 122.762 100.212 127.332 91.602C127.652 90.982 127.237 89.962 127.16 89.1254C126.286 89.4075 125.244 89.4857 124.581 90.0245C123.827 90.6446 123.365 91.6497 122.858 92.5345C115.35 105.614 103.852 112.187 89.0009 113.248C88.3513 113.29 87.6187 113.187 87.0787 113.456C86.5388 113.724 85.7297 114.358 85.696 114.877C85.7454 115.213 85.8805 115.532 86.0883 115.801C86.2962 116.07 86.5698 116.281 86.883 116.414C88.3126 116.687 89.8819 116.954 91.2636 116.643C96.8633 115.369 102.418 113.912 106.085 113.031Z" fill="#EBEBEB"/>
<path d="M37.2157 96.5964C35.9768 97.2161 34.9012 98.1188 34.0762 99.2312C33.2513 100.344 32.7 101.634 32.4673 102.999C31.6832 107.328 32.4812 111.503 34.2254 115.454C34.5923 116.286 35.973 116.676 36.8895 117.26C37.0468 116.229 37.4467 115.161 37.3165 114.164C36.9161 111.166 35.996 108.21 35.8529 105.205C35.667 101.191 38.6587 98.4311 42.6274 99.0768C45.4823 99.5504 48.2151 100.833 50.9404 101.909C52.1925 102.405 53.4689 103.781 54.5696 102.15C55.7294 100.384 53.7599 99.7657 52.7703 99.0312C48.1566 95.5868 41.5147 94.5094 37.2157 96.5964Z" fill="#EBEBEB"/>
<path d="M113.137 41.999C113.789 43.1388 114.014 43.9721 114.561 44.3699C114.865 44.5899 115.211 44.746 115.578 44.829C115.945 44.912 116.324 44.9201 116.694 44.8528C117.08 44.7399 117.536 43.5701 117.372 43.0668C116.417 40.165 115.351 37.2918 114.164 34.4772C113.935 34.0056 112.677 33.4452 112.39 33.6465C111.836 34.027 111.232 35.0079 111.352 35.588C111.851 37.9309 112.619 40.2171 113.137 41.999Z" fill="#EBEBEB"/>
</svg>
