<svg width="104" height="126" viewBox="0 0 104 126" fill="none" xmlns="http://www.w3.org/2000/svg">
<path d="M90.0545 88.2218C90.5507 84.6416 91.2409 81.074 91.5009 77.4754C91.9641 71.1004 89.5035 65.8036 84.3281 62.1434C74.808 55.4103 64.5043 52.7469 53.5124 58.2876C50.3092 59.8995 47.5173 62.5748 44.9774 65.1896C41.8088 68.4471 39.2212 72.2669 36.1393 75.6223C34.6239 77.2898 32.7791 78.6255 30.721 79.5454C28.6629 80.4653 26.4363 80.9494 24.1814 80.9671C16.6495 81.1825 10.9595 77.3412 8.93465 70.1062C5.28924 57.0946 7.94619 45.0899 15.8398 34.3738C31.726 12.7789 59.3091 3.78024 85.2887 11.3826C101.668 16.171 114.995 25.2061 124.486 39.5574C130.918 49.2777 133.451 60.1175 133.211 71.6032C133.041 79.9269 132.935 88.307 129.888 96.2653C127.28 103.059 123.994 109.476 118.68 114.636C115.29 117.964 111.04 120.285 106.405 121.339C99.8779 122.848 94.4968 120.499 91.7086 114.465C88.9682 108.534 87.6152 102.274 88.741 95.6666C89.1617 93.1826 89.4324 90.6778 89.7788 88.1788L90.0545 88.2218ZM10.8059 54.1577C10.0268 59.2966 10.069 64.9881 12.2128 70.5033C13.5049 73.8257 15.7103 76.2777 19.254 77.2744C24.9857 78.8844 30.0203 77.7028 34.126 73.335C35.8546 71.5093 37.3663 69.4913 39.0626 67.6229C42.0192 64.379 44.6803 60.7173 48.1091 58.0635C61.5108 47.6767 80.7698 53.0169 89.85 63.3379C93.0338 66.9654 94.8143 71.3809 94.4304 76.15C93.9685 81.929 92.9286 87.6755 91.8604 93.3848C90.564 100.162 91.4928 107.176 94.5087 113.384C96.1709 116.896 99.0616 119.262 103.14 118.745C106.015 118.357 108.805 117.498 111.4 116.202C116.811 113.513 120.26 108.783 123.217 103.678C128.164 95.1345 129.79 85.7772 130.228 76.0694C130.813 62.9953 128.618 50.6807 120.982 39.7204C113.912 29.4661 103.937 21.5546 92.3369 17.0005C68.3817 7.43691 46.187 10.3232 26.3883 27.312C18.3317 34.2421 12.4576 42.6529 10.8059 54.1577Z" fill="#E0E0E0"/>
<path d="M74.921 18.7984C92.9858 20.7296 105.603 31.0304 115.853 45.0385C115.9 45.1015 115.94 45.1694 115.973 45.2411C116.422 46.3765 118.144 47.5931 116.548 48.7027C114.952 49.8123 114.329 47.8657 113.581 46.9225C107.546 39.3034 101.341 31.8708 92.4134 27.3758C85.4929 23.903 78.0685 22.2396 70.442 21.3115C69.8938 21.2355 69.2596 21.3671 68.815 21.129C68.2836 20.7465 67.8066 20.2936 67.3971 19.7829C67.8695 19.3714 68.333 18.577 68.8192 18.549C70.8527 18.5208 72.8903 18.703 74.921 18.7984Z" fill="#E0E0E0"/>
<path d="M18.1813 48.9744C20.1726 45.5633 21.9901 42.1663 24.0785 38.9499C29.4703 30.6774 37.131 25.0185 45.787 20.5516C46.4144 20.2283 47.0882 19.8113 47.755 19.7892C48.5609 19.7626 49.3785 20.1001 50.1934 20.2846C49.7436 20.9806 49.4534 21.9373 48.8156 22.3354C45.6201 24.3395 42.2771 26.0989 39.0999 28.1437C31.2857 33.1184 26.0572 40.3164 21.9256 48.4201C21.6377 48.9812 21.5004 49.6967 21.0612 50.0747C20.5419 50.5626 19.8577 50.8373 19.1447 50.8442C18.8006 50.7774 18.5694 49.758 18.1813 48.9744Z" fill="#E0E0E0"/>
<path d="M73.3434 41.9997C83.3514 43.7301 90.1381 47.9617 96.0758 53.7023C96.4956 54.1182 96.4288 55.0487 96.5856 55.743C95.807 55.7448 94.947 55.9546 94.2716 55.6941C93.5017 55.3918 92.8666 54.7028 92.2259 54.1227C82.7506 45.5499 71.7642 43.2642 59.5199 46.299C58.9853 46.4348 58.4219 46.7096 57.9166 46.6348C57.4112 46.56 56.5931 46.2606 56.4301 45.8517C56.3818 45.5676 56.4073 45.2758 56.5043 45.0044C56.6013 44.733 56.7665 44.4911 56.984 44.3018C58.0644 43.7075 59.259 43.0814 60.4539 42.9703C65.2998 42.5305 70.157 42.2497 73.3434 41.9997Z" fill="#E0E0E0"/>
<path d="M22.1524 73.2783C20.9918 73.1034 19.8888 72.6576 18.9327 71.9773C17.9766 71.2971 17.1944 70.4013 16.6495 69.3628C14.8839 66.0797 14.4336 62.5067 14.8044 58.8663C14.882 58.0996 15.8925 57.424 16.4781 56.7133C16.8748 57.5029 17.4768 58.2589 17.633 59.0962C18.0955 61.6167 18.1283 64.2399 18.7999 66.6988C19.7012 69.9813 22.8347 71.422 25.8635 69.8623C28.04 68.733 29.9061 66.9835 31.8204 65.4028C32.6995 64.6757 33.3675 63.2324 34.6818 64.2588C36.0787 65.3777 34.6536 66.3917 34.0486 67.2427C31.233 71.2264 26.1631 73.8341 22.1524 73.2783Z" fill="#E0E0E0"/>
<path d="M97.6278 97.3895C97.8552 96.3001 97.8179 95.5698 98.1544 95.1061C98.3422 94.8491 98.5801 94.6326 98.8538 94.4697C99.1274 94.3069 99.4313 94.2009 99.747 94.1582C100.087 94.1482 100.761 94.9714 100.761 95.4197C100.751 98.0083 100.645 100.603 100.426 103.181C100.365 103.621 99.4972 104.403 99.2132 104.315C98.6673 104.154 97.9241 103.522 97.869 103.023C97.6569 101.004 97.6775 98.9609 97.6278 97.3895Z" fill="#E0E0E0"/>
</svg>
