<svg width="177" height="232" viewBox="0 0 177 232" fill="none" xmlns="http://www.w3.org/2000/svg">
<g clip-path="url(#clip0_263_8)">
<path d="M176.991 53.9657C177.327 73.3738 169.674 86.3669 155.758 92.0661C139.871 98.5717 120.018 95.1558 109.461 83.9114C103.161 77.2427 100.483 69.0518 100.156 60.0455C99.4932 41.5344 104.622 24.8626 116.905 10.8276C129.614 -3.6696 147.324 -3.62429 160.106 10.7732C171.481 23.6485 176.31 39.0608 176.991 53.9657Z" fill="black"/>
<path d="M13.6802 54.2738H31.5455C31.6363 52.5613 31.7997 50.9757 31.7997 49.39C31.7997 36.252 31.7997 23.1139 31.7997 9.99398C31.7997 8.34493 31.4365 6.19754 32.2899 5.14649C33.942 3.13501 36.148 0.833586 38.4992 0.299003C41.7037 -0.425855 44.2182 1.83933 45.0261 5.1918C45.3444 6.8206 45.4724 8.48074 45.4074 10.139C45.4074 23.1139 45.4074 36.101 45.4074 49.1001V54.2013H63.5631V48.8011C63.5631 35.2221 63.5631 21.631 63.5631 8.02781C63.5631 4.78406 64.4255 1.61281 67.7753 0.824525C70.1836 0.362364 72.6782 0.800991 74.7833 2.05678C76.1813 2.96286 77.0892 5.68108 77.0982 7.55665C77.2435 30.0454 77.4432 52.5341 77.0982 75.0138C76.8894 87.3907 68.1111 95.1558 55.6109 95.183C44.1184 95.183 32.6258 95.183 21.1151 95.183C9.44095 95.183 0.535524 87.4089 0.2995 75.784C-0.16347 53.0053 0.0544514 30.2085 0.127074 7.42074C0.127074 2.80882 3.10461 -0.00906178 7.04439 0.0906063C10.9842 0.190274 13.5986 3.0444 13.644 7.74692C13.7529 21.338 13.644 34.9291 13.6984 48.5202L13.6802 54.2738Z" fill="black"/>
<path d="M122.742 107.95H154.115C154.252 108.99 154.337 110.036 154.369 111.085C154.369 145.352 154.369 179.617 154.369 213.879C154.369 224.969 148.114 232 138.51 232C134.692 232.035 130.993 230.671 128.115 228.166C125.237 225.661 123.38 222.189 122.896 218.409C122.699 216.907 122.602 215.393 122.606 213.879C122.606 179.611 122.606 145.343 122.606 111.075C122.596 109.934 122.705 108.738 122.742 107.95Z" fill="black"/>
<path d="M22.967 108.928H54.1312C54.3207 110.095 54.448 111.272 54.5125 112.453C54.5125 146.43 54.5125 180.402 54.5125 214.368C54.5125 225.069 48.0945 232.009 38.6354 232C34.8228 232.028 31.132 230.661 28.2615 228.156C25.3909 225.652 23.5395 222.184 23.0578 218.409C22.8605 216.907 22.7634 215.393 22.7672 213.879C22.7672 180.354 22.7672 146.829 22.7672 113.304C22.74 111.991 22.8762 110.659 22.967 108.928Z" fill="black"/>
</g>
<defs>
<clipPath id="clip0_263_8">
<rect width="177" height="232" fill="white"/>
</clipPath>
</defs>
</svg>
