<svg width="51" height="53" viewBox="0 0 51 53" fill="none" xmlns="http://www.w3.org/2000/svg">
<g clip-path="url(#clip0_512_129)">
<path d="M2.07056 8.03882L12.3285 21.1905V25.6588C13.4407 25.285 14.6042 25.0943 15.7753 25.0939C16.9464 25.0943 18.1099 25.285 19.2222 25.6588V21.1905L29.48 8.03882H2.07056Z" fill="#FCDC1C"/>
<path d="M23.4624 48.6322L25.3305 49.6017L28.1161 46.71L27.1821 44.7709L27.4383 44.341C28.2761 42.9953 28.8879 41.5165 29.2485 39.9655L29.356 39.4765L31.3315 38.7852V34.7048L29.356 34.0135L29.2485 33.5245C28.9102 32.0076 28.3353 30.5559 27.5458 29.2249L27.4962 29.1743V29.0732L27.2895 28.7191L28.2236 26.78L25.438 23.8883L23.4624 24.9L23.0574 24.6386C22.4001 24.1904 21.7059 23.8011 20.9827 23.4752V26.4091C22.8122 27.4127 24.34 28.9045 25.4028 30.725C26.4656 32.5454 27.0234 34.6262 27.0167 36.745C27.0309 38.2635 26.7511 39.7699 26.1935 41.1779C25.6358 42.5859 24.8111 43.8678 23.7668 44.9502C22.7225 46.0325 21.4791 46.8941 20.1077 47.4854C18.7363 48.0767 17.2641 48.3862 15.7752 48.3961C14.2892 48.3818 12.8204 48.069 11.4529 47.4757C10.0854 46.8825 8.84579 46.0203 7.80497 44.9383C6.76416 43.8564 5.94248 42.576 5.38686 41.1702C4.83125 39.7644 4.55257 38.2607 4.56675 36.745C4.56005 34.6262 5.1179 32.5454 6.1807 30.725C7.24349 28.9045 8.77128 27.4127 10.6008 26.4091V23.4752C9.85912 23.7846 9.14551 24.1598 8.46822 24.5965L8.0632 24.8663L6.19512 23.8883L3.40954 26.78L4.34358 28.7275L4.08733 29.149C3.27595 30.5008 2.68681 31.9788 2.34324 33.5245L2.23579 34.0219L0.260254 34.7048V38.7936L2.23579 39.4765L2.34324 39.9655C2.68538 41.5117 3.27461 42.9899 4.08733 44.341L4.34358 44.7709L3.40954 46.71L6.19512 49.6017L8.0632 48.6322L8.46822 48.8935C9.7618 49.7403 11.1874 50.3561 12.6838 50.7145L13.1549 50.8241L13.8079 52.8812H17.7425L18.4037 50.8241L18.8749 50.7145C20.3687 50.356 21.7915 49.7402 23.0822 48.8935L23.4624 48.6322Z" fill="#FCDC1C"/>
<path d="M3.18646 2.67693H4.22795C4.27316 2.67692 4.31791 2.6861 4.35958 2.704C4.40124 2.7219 4.43898 2.74814 4.47056 2.78113C4.50214 2.81413 4.52693 2.85322 4.54347 2.89614C4.56 2.93905 4.56795 2.98491 4.56685 3.031V4.11853C4.56795 4.16463 4.56 4.21049 4.54347 4.2534C4.52693 4.29632 4.50214 4.33546 4.47056 4.36846C4.43898 4.40145 4.40124 4.42764 4.35958 4.44554C4.31791 4.46344 4.27316 4.47267 4.22795 4.47266H3.18646C3.14125 4.47267 3.09649 4.46344 3.05483 4.44554C3.01316 4.42764 2.97543 4.40145 2.94385 4.36846C2.91227 4.33546 2.88748 4.29632 2.87094 4.2534C2.85441 4.21049 2.84646 4.16463 2.84756 4.11853V3.031C2.84646 2.98491 2.85441 2.93905 2.87094 2.89614C2.88748 2.85322 2.91227 2.81413 2.94385 2.78113C2.97543 2.74814 3.01316 2.7219 3.05483 2.704C3.09649 2.6861 3.14125 2.67692 3.18646 2.67693ZM6.63331 2.67693H7.6748C7.72001 2.67692 7.76476 2.6861 7.80643 2.704C7.84809 2.7219 7.88583 2.74814 7.91741 2.78113C7.94899 2.81413 7.97378 2.85322 7.99031 2.89614C8.00685 2.93905 8.0148 2.98491 8.0137 3.031V4.11853C8.0148 4.16463 8.00685 4.21049 7.99031 4.2534C7.97378 4.29632 7.94899 4.33546 7.91741 4.36846C7.88583 4.40145 7.84809 4.42764 7.80643 4.44554C7.76476 4.46344 7.72001 4.47267 7.6748 4.47266H6.63331C6.5881 4.47267 6.54335 4.46344 6.50168 4.44554C6.46002 4.42764 6.42228 4.40145 6.3907 4.36846C6.35912 4.33546 6.33433 4.29632 6.31779 4.2534C6.30126 4.21049 6.29331 4.16463 6.29441 4.11853V3.031C6.29331 2.98491 6.30126 2.93905 6.31779 2.89614C6.33433 2.85322 6.35912 2.81413 6.3907 2.78113C6.42228 2.74814 6.46002 2.7219 6.50168 2.704C6.54335 2.6861 6.5881 2.67692 6.63331 2.67693ZM10.0802 2.67693H11.1217C11.2137 2.67693 11.302 2.71421 11.3671 2.78062C11.4322 2.84702 11.4688 2.9371 11.4688 3.031V4.11853C11.4688 4.21244 11.4322 4.30252 11.3671 4.36892C11.302 4.43533 11.2137 4.47266 11.1217 4.47266H10.0802C10.0349 4.47267 9.99019 4.46344 9.94853 4.44554C9.90686 4.42764 9.86913 4.40145 9.83755 4.36846C9.80597 4.33546 9.78118 4.29632 9.76464 4.2534C9.74811 4.21049 9.74016 4.16463 9.74126 4.11853V3.031C9.74016 2.98491 9.74811 2.93905 9.76464 2.89614C9.78118 2.85322 9.80597 2.81413 9.83755 2.78113C9.86913 2.74814 9.90686 2.7219 9.94853 2.704C9.99019 2.6861 10.0349 2.67692 10.0802 2.67693ZM13.527 2.67693H14.5768C14.6674 2.67914 14.7536 2.71738 14.8169 2.78355C14.8803 2.84972 14.9157 2.93854 14.9157 3.031V4.11853C14.9157 4.211 14.8803 4.29982 14.8169 4.36599C14.7536 4.43216 14.6674 4.47046 14.5768 4.47266H13.5435C13.4529 4.47046 13.3667 4.43216 13.3034 4.36599C13.2401 4.29982 13.2046 4.211 13.2046 4.11853V3.031C13.2046 2.93854 13.2401 2.84972 13.3034 2.78355C13.3667 2.71738 13.4529 2.67914 13.5435 2.67693M16.9987 2.67693H18.0402C18.0854 2.67692 18.1301 2.6861 18.1718 2.704C18.2134 2.7219 18.2512 2.74814 18.2828 2.78113C18.3143 2.81413 18.3391 2.85322 18.3557 2.89614C18.3722 2.93905 18.3801 2.98491 18.379 3.031V4.11853C18.3801 4.16463 18.3722 4.21049 18.3557 4.2534C18.3391 4.29632 18.3143 4.33546 18.2828 4.36846C18.2512 4.40145 18.2134 4.42764 18.1718 4.44554C18.1301 4.46344 18.0854 4.47267 18.0402 4.47266H16.9821C16.9365 4.47266 16.8914 4.46349 16.8493 4.44569C16.8072 4.4279 16.7689 4.4018 16.7366 4.36892C16.7044 4.33604 16.6788 4.29703 16.6614 4.25407C16.6439 4.21111 16.635 4.16503 16.635 4.11853V3.031C16.635 2.98451 16.6439 2.93848 16.6614 2.89552C16.6788 2.85256 16.7044 2.8135 16.7366 2.78062C16.7689 2.74774 16.8072 2.72169 16.8493 2.7039C16.8914 2.6861 16.9365 2.67693 16.9821 2.67693M20.429 2.67693H21.4705C21.5157 2.67692 21.5604 2.6861 21.6021 2.704C21.6438 2.7219 21.6815 2.74814 21.7131 2.78113C21.7447 2.81413 21.7694 2.85322 21.786 2.89614C21.8025 2.93905 21.8105 2.98491 21.8094 3.031V4.11853C21.8105 4.16463 21.8025 4.21049 21.786 4.2534C21.7694 4.29632 21.7447 4.33546 21.7131 4.36846C21.6815 4.40145 21.6438 4.42764 21.6021 4.44554C21.5604 4.46344 21.5157 4.47267 21.4705 4.47266H20.429C20.3838 4.47267 20.339 4.46344 20.2973 4.44554C20.2557 4.42764 20.2179 4.40145 20.1864 4.36846C20.1548 4.33546 20.13 4.29632 20.1135 4.2534C20.0969 4.21049 20.089 4.16463 20.0901 4.11853V3.031C20.089 2.98491 20.0969 2.93905 20.1135 2.89614C20.13 2.85322 20.1548 2.81413 20.1864 2.78113C20.2179 2.74814 20.2557 2.7219 20.2973 2.704C20.339 2.6861 20.3838 2.67692 20.429 2.67693ZM23.8758 2.67693H24.9173C24.9625 2.67692 25.0073 2.6861 25.0489 2.704C25.0906 2.7219 25.1283 2.74814 25.1599 2.78113C25.1915 2.81413 25.2163 2.85322 25.2328 2.89614C25.2494 2.93905 25.2573 2.98491 25.2562 3.031V4.11853C25.2573 4.16463 25.2494 4.21049 25.2328 4.2534C25.2163 4.29632 25.1915 4.33546 25.1599 4.36846C25.1283 4.40145 25.0906 4.42764 25.0489 4.44554C25.0073 4.46344 24.9625 4.47267 24.9173 4.47266H23.8758C23.8306 4.47267 23.7859 4.46344 23.7442 4.44554C23.7025 4.42764 23.6648 4.40145 23.6332 4.36846C23.6016 4.33546 23.5769 4.29632 23.5603 4.2534C23.5438 4.21049 23.5358 4.16463 23.5369 4.11853V3.031C23.5358 2.98491 23.5438 2.93905 23.5603 2.89614C23.5769 2.85322 23.6016 2.81413 23.6332 2.78113C23.6648 2.74814 23.7025 2.7219 23.7442 2.704C23.7859 2.6861 23.8306 2.67692 23.8758 2.67693ZM27.3227 2.67693H28.3642C28.4562 2.67693 28.5445 2.71421 28.6096 2.78062C28.6748 2.84702 28.7113 2.9371 28.7113 3.031V4.11853C28.7113 4.21244 28.6748 4.30252 28.6096 4.36892C28.5445 4.43533 28.4562 4.47266 28.3642 4.47266H27.3227C27.2775 4.47267 27.2327 4.46344 27.191 4.44554C27.1494 4.42764 27.1117 4.40145 27.0801 4.36846C27.0485 4.33546 27.0237 4.29632 27.0072 4.2534C26.9906 4.21049 26.9827 4.16463 26.9838 4.11853V3.031C26.9827 2.98491 26.9906 2.93905 27.0072 2.89614C27.0237 2.85322 27.0485 2.81413 27.0801 2.78113C27.1117 2.74814 27.1494 2.7219 27.191 2.704C27.2327 2.6861 27.2775 2.67692 27.3227 2.67693ZM30.3976 6.26838C30.4098 6.14223 30.4098 6.01514 30.3976 5.88899V3.57902C30.4008 3.22916 30.3365 2.88205 30.2083 2.55755C30.08 2.23306 29.8903 1.93752 29.6501 1.68779C29.4098 1.43805 29.1237 1.23901 28.8081 1.10206C28.4924 0.965115 28.1534 0.892954 27.8104 0.889648H3.7072C3.01877 0.90295 2.36334 1.19295 1.88348 1.69659C1.40361 2.20023 1.13814 2.87677 1.1448 3.57902V5.88899C1.13663 6.01532 1.13663 6.14206 1.1448 6.26838H30.3976Z" fill="#FCDC1C"/>
<path d="M38.1922 34.9493V29.5706H29.6619C30.1318 30.5497 30.5029 31.5751 30.7695 32.6309L33.0178 33.4065V34.9493H34.7454V31.3663H36.4646V34.9493H38.1922Z" fill="#FCDC1C"/>
<path d="M40.2834 49.2982H41.2753C41.3725 49.3004 41.465 49.3413 41.533 49.4123C41.601 49.4832 41.639 49.5784 41.639 49.6776V50.7146C41.639 50.8137 41.601 50.909 41.533 50.9799C41.465 51.0508 41.3725 51.0917 41.2753 51.094H40.2834C40.2345 51.094 40.1862 51.0841 40.1411 51.0651C40.0959 51.046 40.0549 51.018 40.0204 50.9828C39.9858 50.9476 39.9584 50.9058 39.9397 50.8598C39.9211 50.8137 39.9114 50.7644 39.9114 50.7146V49.6776C39.9114 49.577 39.9506 49.4805 40.0204 49.4093C40.0901 49.3382 40.1847 49.2982 40.2834 49.2982ZM43.7302 49.2982H44.7221C44.7706 49.2982 44.8186 49.3081 44.8633 49.3272C44.9079 49.3464 44.9484 49.3745 44.9823 49.4098C45.0162 49.4452 45.0428 49.4871 45.0606 49.5331C45.0784 49.5791 45.0869 49.6282 45.0858 49.6776V50.7146C45.0859 50.8137 45.0478 50.909 44.9798 50.9799C44.9119 51.0508 44.8194 51.0917 44.7221 51.094H43.7302C43.633 51.0917 43.5405 51.0508 43.4726 50.9799C43.4046 50.909 43.3665 50.8137 43.3665 50.7146V49.6776C43.3654 49.6282 43.374 49.5791 43.3918 49.5331C43.4096 49.4871 43.4362 49.4452 43.4701 49.4098C43.504 49.3745 43.5445 49.3464 43.5891 49.3272C43.6338 49.3081 43.6818 49.2982 43.7302 49.2982ZM47.1771 49.2982H48.169C48.2175 49.2982 48.2654 49.3081 48.3101 49.3272C48.3548 49.3464 48.3953 49.3745 48.4291 49.4098C48.463 49.4452 48.4896 49.4871 48.5074 49.5331C48.5252 49.5791 48.5338 49.6282 48.5327 49.6776V50.7146C48.5327 50.8137 48.4947 50.909 48.4267 50.9799C48.3587 51.0508 48.2662 51.0917 48.169 51.094H47.1771C47.0799 51.0917 46.9874 51.0508 46.9194 50.9799C46.8514 50.909 46.8134 50.8137 46.8134 50.7146V49.6776C46.8134 49.5784 46.8514 49.4832 46.9194 49.4123C46.9874 49.3413 47.0799 49.3004 47.1771 49.2982ZM38.1921 52.8812H50.2602V47.5025H38.1921V52.8812Z" fill="#41A971"/>
<path d="M39.9115 36.745H33.0178V40.1173L30.7695 40.8929C30.4157 42.2945 29.8792 43.6413 29.1742 44.8974L30.2322 47.0978L25.7025 51.8189L23.5782 50.7145C22.3782 51.4523 21.0851 52.0196 19.7346 52.4007L19.561 52.9402H36.4647V45.7742H50.2603V29.6296H39.9115V36.745Z" fill="#41A971"/>
<path d="M16.0232 41.129C16.8689 40.7914 17.6309 40.2674 18.255 39.5946C18.3669 39.4873 18.5147 39.4276 18.6683 39.4276C18.8219 39.4276 18.9697 39.4873 19.0816 39.5946C19.1957 39.7142 19.2596 39.8746 19.2596 40.0415C19.2596 40.2084 19.1957 40.3686 19.0816 40.4882C18.3319 41.2841 17.4246 41.9077 16.42 42.3177C16.3483 42.3438 16.2729 42.3581 16.1968 42.3599C16.0739 42.3589 15.9541 42.3196 15.8537 42.2472C15.7532 42.1749 15.6768 42.073 15.6347 41.9552C15.6013 41.8768 15.5838 41.7924 15.5832 41.7069C15.5827 41.6214 15.5991 41.5367 15.6316 41.4579C15.664 41.3791 15.7118 41.3079 15.772 41.2484C15.8322 41.189 15.9036 41.1426 15.9819 41.1121M19.5197 37.4364C19.9465 36.2719 19.9757 34.9946 19.6023 33.8112C19.3462 33.0569 18.8915 32.389 18.2881 31.8806C18.1573 31.791 18.0648 31.654 18.0295 31.4974C17.9942 31.3408 18.0187 31.1764 18.098 31.0376C18.1392 30.9688 18.1936 30.9092 18.258 30.8624C18.3224 30.8156 18.3953 30.7826 18.4725 30.7653C18.5497 30.7479 18.6295 30.7467 18.7072 30.7616C18.7849 30.7765 18.8588 30.8073 18.9245 30.8521C19.7541 31.4961 20.3782 32.3761 20.7182 33.3813C21.1983 34.8523 21.1721 36.4463 20.6438 37.9C20.6038 38.0192 20.528 38.1225 20.427 38.1952C20.3261 38.2679 20.2053 38.3062 20.0818 38.3048C20.0106 38.317 19.938 38.317 19.8668 38.3048C19.7886 38.2741 19.7171 38.2278 19.6566 38.1685C19.5962 38.1092 19.5479 38.0382 19.5148 37.9596C19.4817 37.8811 19.4643 37.7965 19.4637 37.711C19.4632 37.6255 19.4794 37.5407 19.5114 37.4617M9.84039 44.0966C11.1816 44.869 12.6976 45.2701 14.2378 45.26C15.0442 45.2642 15.8467 45.1448 16.6184 44.9059C17.8861 44.4974 19.0603 43.8331 20.0714 42.9525C21.0824 42.072 21.9095 40.9932 22.5036 39.7801C23.056 38.6555 23.383 37.4297 23.4653 36.1747C23.5476 34.9196 23.3837 33.6604 22.9831 32.4707C22.0242 30.1355 20.7265 28.7023 19.1147 28.1543C18.4553 27.9488 17.7623 27.8803 17.0766 27.9527C16.3909 28.0251 15.7263 28.237 15.1223 28.5758C13.031 29.5959 13.4691 31.7541 13.7749 33.3307C13.8576 33.71 13.9237 34.0726 13.965 34.3929C14.0384 34.8548 14.0168 35.3271 13.9016 35.7799C13.7863 36.2328 13.5799 36.6562 13.2955 37.0233C12.6296 37.6902 11.7477 38.086 10.8158 38.1361C10.1926 38.2343 9.61627 38.5323 9.17039 38.9871C8.72451 39.4419 8.43225 40.0297 8.33601 40.6653C8.21147 41.3359 8.29408 42.0293 8.57243 42.65C8.85078 43.2706 9.31115 43.7879 9.88999 44.1303" fill="#FCDC1C"/>
</g>
<defs>
<clipPath id="clip0_512_129">
<rect width="50" height="52" fill="white" transform="translate(0.260254 0.889648)"/>
</clipPath>
</defs>
</svg>
