<svg width="57" height="50" viewBox="0 0 57 50" fill="none" xmlns="http://www.w3.org/2000/svg">
<g clip-path="url(#clip0_512_139)">
<path d="M29.4294 49.4268H3.67617C3.51856 49.4337 3.36067 49.4303 3.20351 49.4166C2.82458 49.3671 2.61267 49.0977 2.62291 48.7033C2.63315 48.3269 2.84664 48.0865 3.21375 48.0378C3.23896 48.0378 3.26574 48.0378 3.29252 48.0378C4.00625 47.9914 4.00625 47.9914 4.00625 47.2899C4.00625 41.5807 4.00336 35.8734 3.99758 30.168C3.99758 29.7751 4.12206 29.6086 4.48916 29.4695C9.9721 27.3959 15.4485 25.3139 20.9183 23.2235C21.3957 23.042 21.3965 23.0413 21.3965 23.5598C21.3965 31.5211 21.3965 39.4801 21.3965 47.4368C21.3965 48.0967 21.3279 48.0292 21.9802 48.0323C22.7183 48.0362 22.7183 48.0323 22.7183 47.2836C22.7183 40.9213 22.7183 34.5593 22.7183 28.1975C22.7183 27.6162 22.6561 27.6806 23.2517 27.6806H48.2589C48.7891 27.6806 48.7899 27.6806 48.7899 28.2015V47.5224C48.7899 48.0331 48.7899 48.0331 49.2948 48.0339C50.0826 48.0339 50.0826 48.0339 50.0826 47.2411C50.0826 40.6044 50.0826 33.9677 50.0826 27.331C50.0826 27.111 50.1165 26.8831 49.9952 26.6789C49.9385 26.5746 49.8538 26.4882 49.7505 26.4295C49.6472 26.3708 49.5294 26.342 49.4106 26.3465C49.0561 26.3465 48.7016 26.3395 48.3471 26.3465C48.1612 26.3505 48.0816 26.275 48.0935 26.092C48.099 26.0134 48.0935 25.9348 48.0935 25.8563C48.0935 21.1832 48.0906 16.5101 48.0848 11.837C48.0848 11.4512 48.1636 11.3271 48.5779 11.3318C50.4938 11.3559 52.4108 11.3559 54.3287 11.3318C54.7163 11.3318 54.8014 11.4418 54.8014 11.8142C54.7914 21.7622 54.7888 31.7108 54.7935 41.6598V47.4737C54.7935 48.0323 54.7935 48.0315 55.3355 48.0339C55.4535 48.029 55.5717 48.0324 55.6892 48.0441C56.0461 48.0951 56.2627 48.3583 56.2627 48.726C56.2627 49.0937 56.0477 49.3663 55.6963 49.4166C55.5392 49.4314 55.3813 49.435 55.2236 49.4276L29.4294 49.4268ZM35.7577 29.0618H25.0888C24.2529 29.0618 24.0741 29.2425 24.0741 30.0784C24.0741 35.5225 24.0741 40.9666 24.0741 46.4107C24.0741 47.2466 24.2514 47.4266 25.0896 47.4266H46.4305C47.2679 47.4266 47.4388 47.2521 47.4388 46.4099C47.4388 40.9794 47.4388 35.5484 47.4388 30.1169C47.4388 29.222 47.2813 29.0618 46.3903 29.0618H35.7577ZM18.0586 41.8177C18.0586 39.9463 18.0586 38.0749 18.0586 36.2034C18.0586 35.3997 17.8554 35.1891 17.0676 35.1891C14.1544 35.1891 11.2412 35.1891 8.328 35.1891C7.58276 35.1891 7.37794 35.402 7.37794 36.1571C7.37794 39.8339 7.37794 43.5114 7.37794 47.1893C7.37794 48.037 7.37794 48.0103 8.22559 48.0449C8.6502 48.0629 8.71165 47.9066 8.71007 47.5334C8.69747 44.0129 8.71007 40.4923 8.69511 36.9718C8.69511 36.6253 8.78728 36.531 9.13311 36.5334C11.5211 36.5475 13.9107 36.5475 16.3019 36.5334C16.684 36.5334 16.747 36.667 16.7462 37.0048C16.7352 40.3941 16.7391 43.7835 16.7391 47.1728C16.7391 48.037 16.7391 48.0174 17.6057 48.0441C17.9996 48.0567 18.0783 47.9137 18.0783 47.5507C18.0492 45.6392 18.0586 43.7285 18.0586 41.8177ZM15.3802 31.1068C15.3802 30.4665 15.3865 29.8254 15.3802 29.1851C15.3731 28.6352 15.1257 28.3892 14.5869 28.3877C13.3412 28.3845 12.0957 28.3845 10.8505 28.3877C10.299 28.3877 10.0627 28.6234 10.0587 29.1796C10.053 30.4608 10.053 31.7419 10.0587 33.0231C10.0587 33.5652 10.3124 33.804 10.8654 33.8087C12.0975 33.8129 13.3296 33.8129 14.5617 33.8087C15.1273 33.8087 15.3747 33.562 15.381 32.9924C15.3857 32.3623 15.3802 31.7346 15.3802 31.1068Z" fill="#FCDC1C"/>
<path d="M32.0929 16.1212C32.0929 19.3801 32.0874 22.6422 32.1007 25.8971C32.1007 26.2546 32.0086 26.3552 31.6462 26.3536C28.8102 26.3384 25.9742 26.3384 23.1382 26.3536C22.7805 26.3536 22.701 26.2483 22.7081 25.9121C22.7293 24.8907 22.727 23.8694 22.7081 22.848C22.7033 22.5746 22.7932 22.4434 23.0452 22.3695C23.2816 22.2996 23.5132 22.1998 23.744 22.1063C25.6347 21.3411 26.1073 18.8851 24.5932 17.5244C23.7802 16.7953 22.8002 16.6224 21.7722 17.064C21.4208 17.2148 21.3688 17.1347 21.3696 16.7866C21.3796 13.292 21.3796 9.79768 21.3696 6.30359C21.3696 5.95083 21.4744 5.86598 21.8124 5.86677C25.0937 5.87829 28.3746 5.87829 31.6549 5.86677C31.9928 5.86677 32.0992 5.95004 32.0976 6.30359C32.0866 9.57743 32.0929 12.8458 32.0929 16.1212Z" fill="#41A971"/>
<path d="M40.0786 26.3449C38.0052 26.3449 35.9317 26.3379 33.8552 26.352C33.5251 26.352 33.403 26.2892 33.4046 25.9262C33.4193 22.7987 33.4193 19.671 33.4046 16.5431C33.4046 16.184 33.5211 16.1054 33.8552 16.1117C34.8793 16.1306 35.9034 16.1204 36.9275 16.1164C37.1226 16.1086 37.3154 16.1616 37.4789 16.2681C40.4898 18.249 43.5044 20.2247 46.5226 22.1951C46.608 22.2412 46.6784 22.3106 46.7256 22.3952C46.7728 22.4798 46.7947 22.5761 46.7889 22.6728C46.7795 23.7593 46.7731 24.8459 46.7889 25.9317C46.7944 26.257 46.6991 26.3544 46.3706 26.352C44.2783 26.3387 42.1765 26.3449 40.0786 26.3449Z" fill="#41A971"/>
<path d="M0.260299 27.6546C0.255573 27.0732 0.620314 26.5877 1.26157 26.3418C2.9742 25.685 4.68761 25.0303 6.40182 24.3776C11.6768 22.3648 16.9515 20.3511 22.2259 18.3367C22.7978 18.1175 23.3209 18.1796 23.7629 18.585C24.1615 18.9495 24.2411 19.4437 24.13 19.9583C24.026 20.4415 23.6809 20.6976 23.2366 20.8657C21.3623 21.576 19.4897 22.2904 17.619 23.009C12.4913 24.9653 7.3566 26.9059 2.23999 28.8897C1.31119 29.2519 0.260299 28.5935 0.260299 27.6546Z" fill="#FCDC1C"/>
<path d="M26.7359 0.432356C28.3903 0.432356 30.0399 0.438645 31.6918 0.42686C31.9865 0.42686 32.1054 0.488922 32.0999 0.814185C32.0794 1.9382 32.0794 3.06275 32.0999 4.18781C32.1046 4.49579 31.9888 4.55864 31.7131 4.55785C28.396 4.55157 25.0787 4.55157 21.7611 4.55785C21.4854 4.55785 21.3672 4.49658 21.3735 4.18781C21.3924 3.06379 21.3924 1.93951 21.3735 0.814971C21.3672 0.489708 21.4854 0.422146 21.78 0.42686C23.432 0.441002 25.0816 0.432356 26.7359 0.432356Z" fill="#41A971"/>
<path d="M36.0318 12.6886C36.7534 12.6886 37.475 12.6941 38.1966 12.6886C38.4193 12.6806 38.6392 12.7407 38.8268 12.8607C41.3839 14.4797 43.945 16.0929 46.51 17.7003C46.7109 17.8268 46.8007 17.9659 46.7968 18.2047C46.7842 18.9378 46.7968 19.67 46.7905 20.4046C46.7905 20.5177 46.8393 20.6694 46.7259 20.733C46.6124 20.7966 46.5147 20.6662 46.4226 20.6049C43.5608 18.7256 40.7012 16.8463 37.8437 14.967C37.6504 14.8337 37.4201 14.7642 37.1851 14.7683C36.0696 14.7738 34.9541 14.7612 33.8394 14.7761C33.5243 14.7808 33.3856 14.7054 33.4069 14.3636C33.4305 13.9324 33.4305 13.5001 33.4069 13.0689C33.3935 12.7813 33.4857 12.676 33.7835 12.6847C34.535 12.7012 35.2826 12.6886 36.0318 12.6886Z" fill="#41A971"/>
<path d="M51.4375 9.99698C50.4418 9.99698 49.4452 9.98991 48.4487 10.0025C48.1785 10.0025 48.0824 9.92392 48.0855 9.64658C48.0981 8.52256 48.0981 7.39802 48.0855 6.27295C48.0855 6.01211 48.1485 5.90134 48.4345 5.90291C50.4402 5.91286 52.4461 5.91286 54.4523 5.90291C54.7044 5.90291 54.7966 5.98148 54.7942 6.23839C54.7832 7.37602 54.7832 8.51339 54.7942 9.6505C54.7942 9.93255 54.6903 10.0048 54.4256 10.0009C53.4306 9.98991 52.4341 9.99698 51.4375 9.99698Z" fill="#FCDC1C"/>
<path d="M35.7575 29.0618H46.387C47.2772 29.0618 47.4355 29.2189 47.4355 30.1169C47.4355 35.5484 47.4355 40.9794 47.4355 46.4099C47.4355 47.2521 47.2646 47.4266 46.4272 47.4266H25.0894C24.2512 47.4266 24.074 47.2466 24.074 46.4107C24.074 40.9671 24.074 35.523 24.074 30.0784C24.074 29.2425 24.2528 29.0618 25.0886 29.0618H35.7575ZM35.7741 30.4147C32.4796 30.4147 29.1851 30.421 25.8906 30.406C25.4967 30.406 25.3872 30.4964 25.388 30.901C25.4037 35.7962 25.4037 40.6919 25.388 45.5881C25.388 45.9935 25.5014 46.0831 25.8914 46.0823C32.4672 46.0713 39.0431 46.0713 45.6189 46.0823C46.0089 46.0823 46.1223 45.9927 46.1215 45.5873C46.1058 40.6921 46.1058 35.7967 46.1215 30.901C46.1215 30.4948 46.0081 30.4045 45.6181 30.406C42.3339 30.421 39.0559 30.4147 35.7741 30.4147Z" fill="white"/>
<path d="M18.0585 41.8177C18.0585 43.7284 18.049 45.6392 18.0664 47.553C18.0664 47.916 17.9939 48.059 17.5937 48.0464C16.7319 48.0197 16.7271 48.0417 16.7271 47.1751C16.7271 43.7858 16.7271 40.3965 16.7342 37.0071C16.7342 36.6685 16.672 36.5357 16.2899 36.5357C13.9014 36.5541 11.5118 36.5541 9.12114 36.5357C8.7753 36.5357 8.68156 36.6276 8.68313 36.9741C8.69574 40.4947 8.68313 44.0152 8.6981 47.5357C8.6981 47.9089 8.63823 48.0653 8.21362 48.0472C7.36754 48.0126 7.36597 48.0394 7.36597 47.1916C7.36597 43.5137 7.36597 39.8363 7.36597 36.1594C7.36597 35.4044 7.57079 35.1923 8.31603 35.1915C11.2292 35.1915 14.1424 35.1915 17.0556 35.1915C17.8434 35.1915 18.0467 35.402 18.0467 36.2057C18.0556 38.074 18.0595 39.9447 18.0585 41.8177Z" fill="white"/>
<path d="M15.38 31.1068C15.38 31.7354 15.3855 32.3639 15.38 32.9924C15.3737 33.562 15.1264 33.8071 14.5607 33.8087C13.3287 33.8129 12.0966 33.8129 10.8645 33.8087C10.313 33.8087 10.061 33.5683 10.0578 33.0231C10.052 31.7424 10.052 30.4613 10.0578 29.1796C10.0578 28.6297 10.3012 28.3892 10.8495 28.3877C12.0947 28.3845 13.3402 28.3845 14.5859 28.3877C15.1248 28.3877 15.3737 28.6359 15.3792 29.1851C15.3863 29.8254 15.38 30.4665 15.38 31.1068ZM14.0526 31.0731C14.0526 30.7195 14.0424 30.366 14.0526 30.0132C14.0613 29.7932 13.9841 29.7147 13.7604 29.7186C13.0655 29.7291 12.3702 29.7291 11.6743 29.7186C11.4656 29.7186 11.3647 29.7657 11.3687 30.0006C11.3805 30.7329 11.3781 31.4659 11.3687 32.2005C11.3687 32.4024 11.434 32.477 11.6404 32.4747C12.3494 32.4652 13.0584 32.4637 13.7674 32.4747C14.0038 32.4786 14.0597 32.3843 14.0526 32.173C14.0471 31.8069 14.0526 31.44 14.0526 31.0731Z" fill="white"/>
<path d="M35.774 30.4147C39.0559 30.4147 42.337 30.421 45.6213 30.406C46.0112 30.406 46.1254 30.4948 46.1247 30.901C46.1089 35.7962 46.1089 40.6916 46.1247 45.5873C46.1247 45.9927 46.012 46.0831 45.622 46.0823C39.0457 46.0713 32.4698 46.0713 25.8945 46.0823C25.5046 46.0823 25.3903 45.9935 25.3911 45.5881C25.4069 40.6929 25.4069 35.7972 25.3911 30.901C25.3911 30.4964 25.503 30.4045 25.8937 30.406C29.1851 30.421 32.4795 30.4147 35.774 30.4147ZM35.7543 32.4715H28.2704C27.7584 32.4715 27.2463 32.4605 26.7343 32.477C26.6486 32.4758 26.5635 32.492 26.4843 32.5246C26.405 32.5573 26.3333 32.6058 26.2735 32.667C26.2137 32.7283 26.1671 32.8011 26.1364 32.8809C26.1058 32.9608 26.0918 33.046 26.0954 33.1315C26.0954 33.4999 26.3412 33.7671 26.7256 33.8032C26.7902 33.8095 26.8564 33.8032 26.9226 33.8032C32.8157 33.8032 38.7093 33.8032 44.6035 33.8032C44.734 33.8077 44.8645 33.7921 44.9902 33.7569C45.3125 33.6524 45.429 33.4025 45.4093 33.0828C45.3897 32.763 45.2156 32.5454 44.8902 32.4825C44.7596 32.4663 44.6277 32.4623 44.4963 32.4707L35.7543 32.4715ZM35.7606 44.0207H44.4609C44.579 44.0207 44.6972 44.0278 44.8154 44.0207C45.1707 43.9877 45.3881 43.7591 45.4078 43.4063C45.4346 42.9255 45.1581 42.6906 44.5562 42.6906H26.9556C26.864 42.6864 26.7721 42.6885 26.6807 42.6969C26.5954 42.705 26.5126 42.7299 26.4371 42.7702C26.3615 42.8105 26.2948 42.8654 26.2406 42.9316C26.1865 42.9978 26.146 43.074 26.1216 43.1559C26.0972 43.2378 26.0894 43.3237 26.0985 43.4087C26.1222 43.8015 26.4034 44.0239 26.8997 44.0239C29.8534 44.0202 32.807 44.0181 35.7606 44.0176V44.0207ZM35.7945 37.2193C38.6305 37.2193 41.4665 37.2193 44.3025 37.2193C44.4991 37.2242 44.6958 37.2144 44.891 37.1902C45.2242 37.1407 45.3897 36.9231 45.4109 36.597C45.4322 36.271 45.3156 36.0251 44.9918 35.9245C44.8404 35.8837 44.6838 35.8652 44.527 35.8695C38.6859 35.8695 32.8448 35.8695 27.0037 35.8695C26.8468 35.8645 26.69 35.8835 26.5389 35.9261C26.2238 36.0274 26.0828 36.2631 26.1009 36.5899C26.119 36.9168 26.3081 37.1234 26.624 37.187C26.8063 37.2161 26.991 37.2269 27.1754 37.2193C30.0472 37.2182 32.9204 37.2172 35.7953 37.2161L35.7945 37.2193ZM35.7362 40.6282C38.6368 40.6282 41.5374 40.6282 44.438 40.6282C44.5948 40.6325 44.7516 40.6209 44.906 40.5937C45.2739 40.5151 45.4283 40.2645 45.4086 39.9062C45.3897 39.5613 45.2093 39.3437 44.8571 39.302C44.6876 39.2841 44.5171 39.276 44.3466 39.2777C38.6111 39.2777 32.8755 39.2777 27.14 39.2777C26.9695 39.2731 26.799 39.283 26.6303 39.3075C26.4734 39.332 26.3316 39.4146 26.2331 39.5389C26.1347 39.6631 26.0869 39.8198 26.0993 39.9777C26.1143 40.4012 26.4058 40.6275 26.9572 40.6282C29.883 40.6272 32.8094 40.6261 35.7362 40.6251V40.6282Z" fill="#FCDC1C"/>
<path d="M14.0527 31.0731C14.0527 31.4392 14.0441 31.8061 14.0527 32.173C14.0598 32.3843 13.9999 32.4786 13.7675 32.4747C13.0585 32.4629 12.3495 32.4645 11.6405 32.4747C11.4341 32.4747 11.3664 32.4024 11.3688 32.2005C11.3766 31.4675 11.379 30.7344 11.3688 30.0006C11.3648 29.7649 11.4657 29.7162 11.6744 29.7186C12.3692 29.728 13.0646 29.728 13.7605 29.7186C13.9842 29.7186 14.0614 29.7972 14.0527 30.0132C14.0456 30.366 14.0527 30.7203 14.0527 31.0731Z" fill="#FCDC1C"/>
<path d="M35.7543 32.4715H44.4986C44.63 32.4631 44.7619 32.4671 44.8925 32.4833C45.2179 32.5461 45.392 32.7559 45.4117 33.0835C45.4314 33.4112 45.3148 33.6531 44.9926 33.7576C44.8668 33.7928 44.7363 33.8085 44.6058 33.804C38.7127 33.804 32.819 33.804 26.9249 33.804C26.8587 33.804 26.7925 33.804 26.7279 33.804C26.3466 33.7679 26.0977 33.5007 26.0977 33.1323C26.0942 33.0468 26.1081 32.9616 26.1388 32.8817C26.1694 32.8019 26.216 32.7291 26.2758 32.6678C26.3356 32.6065 26.4073 32.5581 26.4866 32.5254C26.5658 32.4928 26.6509 32.4766 26.7366 32.4778C27.2487 32.4613 27.7607 32.4723 28.2728 32.4723L35.7543 32.4715Z" fill="white"/>
<path d="M35.7608 44.0168C32.8077 44.0168 29.854 44.0168 26.8998 44.0168C26.4035 44.0168 26.1223 43.796 26.0987 43.4016C26.0895 43.3166 26.0974 43.2307 26.1218 43.1488C26.1461 43.0669 26.1866 42.9907 26.2407 42.9245C26.2949 42.8582 26.3617 42.8034 26.4372 42.7631C26.5128 42.7229 26.5956 42.6979 26.6808 42.6898C26.7722 42.6814 26.8641 42.6793 26.9558 42.6835H44.5587C45.1605 42.6835 45.4371 42.9192 45.4103 43.3992C45.3906 43.752 45.1739 43.9806 44.8179 44.0136C44.7005 44.0246 44.5815 44.0136 44.4634 44.0136L35.7608 44.0168Z" fill="white"/>
<path d="M35.7954 37.2161C32.9206 37.2161 30.046 37.2161 27.1716 37.2161C26.9872 37.2238 26.8025 37.213 26.6202 37.1839C26.3051 37.1203 26.116 36.9184 26.0971 36.5868C26.0782 36.2553 26.2224 36.0243 26.5351 35.923C26.6862 35.8804 26.843 35.8614 26.9999 35.8664C32.8405 35.8664 38.6816 35.8664 44.5232 35.8664C44.68 35.8621 44.8366 35.8806 44.988 35.9214C45.3118 36.0219 45.4276 36.2734 45.4071 36.5939C45.3866 36.9145 45.2204 37.1376 44.8872 37.1871C44.692 37.2113 44.4953 37.221 44.2987 37.2161C41.4659 37.2172 38.6314 37.2172 35.7954 37.2161Z" fill="white"/>
<path d="M35.7363 40.6251C32.81 40.6251 29.8832 40.6251 26.9558 40.6251C26.4043 40.6251 26.1128 40.398 26.0979 39.9746C26.0855 39.8167 26.1332 39.66 26.2317 39.5357C26.3301 39.4115 26.472 39.3289 26.6288 39.3044C26.7976 39.2799 26.9681 39.2699 27.1385 39.2745C32.8741 39.2745 38.6096 39.2745 44.3452 39.2745C44.5157 39.2728 44.6861 39.2809 44.8557 39.2989C45.2094 39.3405 45.3898 39.5582 45.4071 39.9031C45.4268 40.2613 45.2724 40.5135 44.9045 40.5905C44.7501 40.6178 44.5933 40.6294 44.4366 40.6251C41.537 40.6267 38.6369 40.6267 35.7363 40.6251Z" fill="white"/>
</g>
<defs>
<clipPath id="clip0_512_139">
<rect width="56" height="49" fill="white" transform="translate(0.260254 0.429199)"/>
</clipPath>
</defs>
</svg>
