<svg width="53" height="49" viewBox="0 0 53 49" fill="none" xmlns="http://www.w3.org/2000/svg">
<path d="M18.0902 5.34753C19.1061 5.60198 20.0797 6.00284 20.9802 6.53754L24.5902 3.92749L27.4802 6.8175L24.8602 10.4275C25.4085 11.3224 25.8228 12.2926 26.0902 13.3075L30.4902 14.0075V18.0975L26.0902 18.7975C25.8322 19.8139 25.428 20.7873 24.8902 21.6875L27.5102 25.2975L24.5802 28.2075L20.9702 25.5875C20.07 26.1253 19.0965 26.5296 18.0802 26.7875L17.3802 31.1875H13.3002L12.5902 26.7875C11.577 26.5296 10.6068 26.1253 9.71021 25.5875L6.0902 28.2075L3.2002 25.3175L5.8102 21.7075C5.27728 20.8097 4.87649 19.8397 4.6202 18.8275L0.210205 18.1175V14.0375L4.6202 13.3275C4.87909 12.3162 5.27973 11.3466 5.8102 10.4475L3.2002 6.83752L6.0902 3.92749L9.7002 6.53754C10.5972 6.00297 11.5675 5.60208 12.5802 5.34753L13.2902 0.94751H17.3702L18.0902 5.34753ZM15.3502 10.0175C13.7589 10.0175 12.2328 10.6497 11.1076 11.7749C9.98234 12.9001 9.3502 14.4262 9.3502 16.0175C9.3502 17.6088 9.98234 19.1349 11.1076 20.2601C12.2328 21.3853 13.7589 22.0175 15.3502 22.0175C16.9415 22.0175 18.4676 21.3853 19.5928 20.2601C20.7181 19.1349 21.3502 17.6088 21.3502 16.0175C21.3502 14.4262 20.7181 12.9001 19.5928 11.7749C18.4676 10.6497 16.9415 10.0175 15.3502 10.0175ZM44.4202 12.0875C45.0648 12.2573 45.6837 12.5129 46.2602 12.8475L48.5602 11.1775L50.4102 13.0275L48.7402 15.3275C49.0831 15.8999 49.3392 16.52 49.5002 17.1675L52.3102 17.6175V20.2075L49.5002 20.6575C49.3429 21.3063 49.0865 21.9268 48.7402 22.4975L50.4102 24.8075L48.5602 26.6475L46.2602 24.9875C45.6837 25.3222 45.0648 25.5777 44.4202 25.7475L43.9702 28.5575H41.3602L40.9102 25.7475C40.2643 25.5815 39.645 25.3257 39.0702 24.9875L36.7602 26.6475L34.9202 24.8075L36.5902 22.4975C36.2447 21.9252 35.9853 21.3053 35.8202 20.6575L33.0002 20.2075V17.5975L35.8102 17.1475C35.979 16.501 36.2382 15.8815 36.5802 15.3075L34.9102 13.0075L36.7502 11.1575L39.0602 12.8275C39.6329 12.4853 40.2529 12.2292 40.9002 12.0675L41.3502 9.25751H43.9602L44.4202 12.0875ZM42.6602 15.0875C42.1538 15.0875 41.6523 15.1874 41.1846 15.3815C40.7168 15.5756 40.2919 15.8601 39.9343 16.2187C39.5767 16.5773 39.2933 17.0029 39.1004 17.4711C38.9075 17.9394 38.8089 18.4411 38.8102 18.9475C38.8102 19.9686 39.2158 20.9478 39.9378 21.6699C40.6599 22.3919 41.6391 22.7975 42.6602 22.7975C43.1666 22.7989 43.6683 22.7002 44.1366 22.5073C44.6049 22.3144 45.0305 22.031 45.389 21.6734C45.7476 21.3158 46.0321 20.8909 46.2262 20.4232C46.4203 19.9554 46.5202 19.4539 46.5202 18.9475C46.5202 17.9238 46.1135 16.942 45.3896 16.2181C44.6657 15.4942 43.6839 15.0875 42.6602 15.0875ZM31.7602 32.0875L31.3102 29.2775H28.6902L28.2402 32.0875C27.595 32.2554 26.9758 32.5111 26.4002 32.8475L24.0902 31.2075L22.2502 33.0575L23.9202 35.3575C23.5773 35.9299 23.3212 36.55 23.1602 37.1975L20.3402 37.6475V40.2075L23.1602 40.6575C23.3193 41.3088 23.5755 41.9325 23.9202 42.5075L22.2502 44.8075L24.0902 46.6975L26.4002 45.0275C26.9758 45.3639 27.595 45.6197 28.2402 45.7875L28.6902 48.5975H31.3002L31.7502 45.7875C32.3954 45.6197 33.0146 45.3639 33.5902 45.0275L35.8902 46.6975L37.7402 44.8475L36.0702 42.5475C36.4149 41.9725 36.6711 41.3488 36.8302 40.6975L39.6402 40.2475V37.6375L36.8302 37.1975C36.6711 36.5462 36.4149 35.9226 36.0702 35.3475L37.7402 33.0475L35.8902 31.2075L33.5902 32.8775C33.0146 32.5411 32.3954 32.2854 31.7502 32.1175M29.9902 35.1175C31.0139 35.1175 31.9957 35.5242 32.7196 36.2481C33.4435 36.972 33.8502 37.9538 33.8502 38.9775C33.8502 40.0013 33.4435 40.9831 32.7196 41.707C31.9957 42.4309 31.0139 42.8375 29.9902 42.8375C29.4838 42.8375 28.9823 42.7376 28.5146 42.5435C28.0468 42.3494 27.6219 42.0649 27.2643 41.7064C26.9067 41.3478 26.6233 40.9222 26.4304 40.4539C26.2375 39.9857 26.1389 39.484 26.1402 38.9775C26.1389 38.4711 26.2375 37.9694 26.4304 37.5011C26.6233 37.0328 26.9067 36.6073 27.2643 36.2487C27.6219 35.8902 28.0468 35.6057 28.5146 35.4116C28.9823 35.2175 29.4838 35.1175 29.9902 35.1175ZM4.8102 33.7775C5.40881 33.7748 5.98425 34.0087 6.41126 34.4282C6.83828 34.8477 7.0823 35.419 7.0902 36.0175C7.09021 36.6178 6.85242 37.1937 6.42887 37.6191C6.00532 38.0446 5.43051 38.2849 4.8302 38.2875C4.22816 38.2875 3.65077 38.0484 3.22507 37.6227C2.79936 37.197 2.5602 36.6196 2.5602 36.0175C2.5602 35.4155 2.79936 34.8381 3.22507 34.4124C3.65077 33.9867 4.22816 33.7475 4.8302 33.7475M15.0902 35.0775C15.6922 35.0775 16.2696 35.3167 16.6953 35.7424C17.121 36.1681 17.3602 36.7455 17.3602 37.3475C17.3602 37.9496 17.121 38.5269 16.6953 38.9526C16.2696 39.3783 15.6922 39.6175 15.0902 39.6175C14.4899 39.6148 13.9151 39.3745 13.4915 38.9491C13.068 38.5237 12.8302 37.9478 12.8302 37.3475C12.8302 36.7472 13.068 36.1713 13.4915 35.7459C13.9151 35.3205 14.4899 35.0802 15.0902 35.0775ZM33.5302 3.85754C34.1322 3.85754 34.7096 4.09669 35.1353 4.5224C35.561 4.94811 35.8002 5.52546 35.8002 6.1275C35.8002 6.72954 35.561 7.30696 35.1353 7.73267C34.7096 8.15837 34.1322 8.39752 33.5302 8.39752C32.9282 8.39752 32.3508 8.15837 31.9251 7.73267C31.4994 7.30696 31.2602 6.72954 31.2602 6.1275C31.2602 5.52546 31.4994 4.94811 31.9251 4.5224C32.3508 4.09669 32.9282 3.85754 33.5302 3.85754ZM9.2702 41.9675C9.86708 41.9675 10.44 42.2025 10.8648 42.6218C11.2897 43.041 11.5323 43.6107 11.5402 44.2075C11.5402 44.8096 11.301 45.3869 10.8753 45.8126C10.4496 46.2383 9.87224 46.4775 9.2702 46.4775C8.97173 46.4789 8.67595 46.421 8.39995 46.3074C8.12394 46.1938 7.87317 46.0267 7.66212 45.8156C7.45106 45.6046 7.28391 45.3538 7.1703 45.0778C7.05669 44.8018 6.99888 44.506 7.00021 44.2075C7.00021 43.6055 7.23936 43.0281 7.66507 42.6024C8.09078 42.1767 8.66816 41.9375 9.2702 41.9375" fill="#FCDC1C"/>
<mask id="mask0_0_1" style="mask-type:alpha" maskUnits="userSpaceOnUse" x="32" y="8" width="21" height="21">
<circle cx="42.6255" cy="18.8297" r="10.1163" fill="#D9D9D9"/>
</mask>
<g mask="url(#mask0_0_1)">
<path d="M18.1144 5.32727C19.1303 5.58171 20.1038 5.98258 21.0044 6.51727L24.6144 3.90723L27.5044 6.79724L24.8844 10.4072C25.4326 11.3021 25.847 12.2724 26.1144 13.2872L30.5144 13.9872V18.0773L26.1144 18.7773C25.8564 19.7936 25.4522 20.7671 24.9144 21.6672L27.5344 25.2773L24.6044 28.1873L20.9944 25.5673C20.0942 26.1051 19.1207 26.5093 18.1044 26.7673L17.4044 31.1672H13.3244L12.6144 26.7673C11.6012 26.5093 10.631 26.1051 9.73438 25.5673L6.11437 28.1873L3.22437 25.2972L5.83437 21.6873C5.30145 20.7894 4.90066 19.8194 4.64437 18.8073L0.234375 18.0972V14.0173L4.64437 13.3073C4.90326 12.2959 5.3039 11.3263 5.83437 10.4272L3.22437 6.81726L6.11437 3.90723L9.72437 6.51727C10.6214 5.98271 11.5916 5.58182 12.6044 5.32727L13.3144 0.927246H17.3944L18.1144 5.32727ZM15.3744 9.99725C13.7831 9.99725 12.2569 10.6294 11.1317 11.7546C10.0065 12.8799 9.37437 14.406 9.37437 15.9973C9.37437 17.5886 10.0065 19.1147 11.1317 20.2399C12.2569 21.3651 13.7831 21.9973 15.3744 21.9973C16.9657 21.9973 18.4918 21.3651 19.617 20.2399C20.7422 19.1147 21.3744 17.5886 21.3744 15.9973C21.3744 14.406 20.7422 12.8799 19.617 11.7546C18.4918 10.6294 16.9657 9.99725 15.3744 9.99725ZM44.4444 12.0673C45.089 12.237 45.7079 12.4927 46.2844 12.8273L48.5844 11.1572L50.4344 13.0073L48.7644 15.3073C49.1073 15.8797 49.3634 16.4998 49.5244 17.1473L52.3344 17.5972V20.1873L49.5244 20.6373C49.367 21.286 49.1107 21.9066 48.7644 22.4772L50.4344 24.7872L48.5844 26.6273L46.2844 24.9673C45.7079 25.3019 45.089 25.5575 44.4444 25.7272L43.9944 28.5372H41.3844L40.9344 25.7272C40.2885 25.5612 39.6692 25.3054 39.0944 24.9673L36.7844 26.6273L34.9444 24.7872L36.6144 22.4772C36.2689 21.905 36.0095 21.285 35.8444 20.6373L33.0244 20.1873V17.5773L35.8344 17.1273C36.0032 16.4807 36.2624 15.8613 36.6044 15.2872L34.9344 12.9872L36.7744 11.1373L39.0844 12.8073C39.6571 12.465 40.2771 12.2089 40.9244 12.0472L41.3744 9.23724H43.9844L44.4444 12.0673ZM42.6844 15.0673C42.1779 15.0673 41.6765 15.1672 41.2087 15.3613C40.741 15.5554 40.3161 15.8399 39.9585 16.1984C39.6008 16.557 39.3174 16.9826 39.1246 17.4509C38.9317 17.9191 38.8331 18.4208 38.8344 18.9272C38.8344 19.9483 39.24 20.9276 39.962 21.6496C40.684 22.3716 41.6633 22.7773 42.6844 22.7773C43.1908 22.7786 43.6925 22.68 44.1608 22.4871C44.629 22.2942 45.0546 22.0108 45.4132 21.6531C45.7718 21.2955 46.0562 20.8706 46.2504 20.4029C46.4445 19.9351 46.5444 19.4337 46.5444 18.9272C46.5444 17.9035 46.1377 16.9217 45.4138 16.1978C44.6899 15.4739 43.7081 15.0673 42.6844 15.0673ZM31.7844 32.0673L31.3344 29.2573H28.7144L28.2644 32.0673C27.6191 32.2351 27 32.4909 26.4244 32.8273L24.1144 31.1873L22.2744 33.0372L23.9444 35.3373C23.6015 35.9097 23.3454 36.5297 23.1844 37.1772L20.3644 37.6273V40.1873L23.1844 40.6373C23.3434 41.2886 23.5996 41.9122 23.9444 42.4872L22.2744 44.7872L24.1144 46.6772L26.4244 45.0073C27 45.3437 27.6191 45.5994 28.2644 45.7673L28.7144 48.5773H31.3244L31.7744 45.7673C32.4196 45.5994 33.0387 45.3437 33.6144 45.0073L35.9144 46.6772L37.7644 44.8273L36.0944 42.5273C36.4391 41.9523 36.6953 41.3286 36.8544 40.6772L39.6644 40.2272V37.6172L36.8544 37.1772C36.6953 36.5259 36.4391 35.9023 36.0944 35.3273L37.7644 33.0273L35.9144 31.1873L33.6144 32.8572C33.0387 32.5208 32.4196 32.2651 31.7744 32.0972M30.0144 35.0972C31.0381 35.0972 32.0199 35.504 32.7438 36.2278C33.4677 36.9517 33.8744 37.9335 33.8744 38.9573C33.8744 39.981 33.4677 40.9628 32.7438 41.6867C32.0199 42.4106 31.0381 42.8173 30.0144 42.8173C29.5079 42.8173 29.0065 42.7174 28.5387 42.5233C28.071 42.3291 27.6461 42.0447 27.2885 41.6861C26.9308 41.3275 26.6475 40.9019 26.4546 40.4337C26.2617 39.9654 26.1631 39.4637 26.1644 38.9573C26.1631 38.4508 26.2617 37.9491 26.4546 37.4808C26.6475 37.0126 26.9308 36.587 27.2885 36.2285C27.6461 35.8699 28.071 35.5854 28.5387 35.3913C29.0065 35.1972 29.5079 35.0972 30.0144 35.0972ZM4.83437 33.7573C5.43298 33.7546 6.00842 33.9884 6.43543 34.408C6.86245 34.8275 7.10647 35.3987 7.11437 35.9973C7.11438 36.5976 6.87659 37.1735 6.45304 37.5989C6.02949 38.0243 5.45468 38.2646 4.85437 38.2673C4.25233 38.2673 3.67494 38.0281 3.24924 37.6024C2.82353 37.1767 2.58437 36.5993 2.58437 35.9973C2.58437 35.3952 2.82353 34.8179 3.24924 34.3922C3.67494 33.9664 4.25233 33.7272 4.85437 33.7272M15.1144 35.0573C15.7164 35.0573 16.2938 35.2964 16.7195 35.7221C17.1452 36.1478 17.3844 36.7252 17.3844 37.3273C17.3844 37.9293 17.1452 38.5067 16.7195 38.9324C16.2938 39.3581 15.7164 39.5972 15.1144 39.5972C14.5141 39.5946 13.9392 39.3543 13.5157 38.9288C13.0922 38.5034 12.8544 37.9276 12.8544 37.3273C12.8544 36.727 13.0922 36.1511 13.5157 35.7256C13.9392 35.3002 14.5141 35.0599 15.1144 35.0573ZM33.5544 3.83728C34.1564 3.83728 34.7338 4.07643 35.1595 4.50214C35.5852 4.92784 35.8244 5.5052 35.8244 6.10724C35.8244 6.70928 35.5852 7.28669 35.1595 7.7124C34.7338 8.13811 34.1564 8.37726 33.5544 8.37726C32.9523 8.37726 32.375 8.13811 31.9492 7.7124C31.5235 7.28669 31.2844 6.70928 31.2844 6.10724C31.2844 5.5052 31.5235 4.92784 31.9492 4.50214C32.375 4.07643 32.9523 3.83728 33.5544 3.83728ZM9.29437 41.9473C9.89125 41.9472 10.4641 42.1823 10.889 42.6015C11.3138 43.0207 11.5565 43.5904 11.5644 44.1873C11.5644 44.7893 11.3252 45.3666 10.8995 45.7924C10.4738 46.2181 9.89641 46.4573 9.29437 46.4573C8.9959 46.4586 8.70012 46.4008 8.42412 46.2872C8.14811 46.1736 7.89734 46.0064 7.68629 45.7953C7.47523 45.5843 7.30808 45.3335 7.19447 45.0575C7.08086 44.7815 7.02305 44.4857 7.02438 44.1873C7.02438 43.5852 7.26353 43.0079 7.68924 42.5822C8.11495 42.1564 8.69233 41.9172 9.29437 41.9172" fill="#41A971"/>
</g>
</svg>
