<svg width="53" height="45" viewBox="0 0 53 45" fill="none" xmlns="http://www.w3.org/2000/svg">
<g clip-path="url(#clip0_512_93)">
<path d="M26.2602 9.85162C27.4974 9.85364 28.6899 9.38949 29.6002 8.55163H32.0902L31.0902 5.2116C31.0587 3.96319 30.5338 2.77813 29.6304 1.91595C28.727 1.05377 27.5187 0.584773 26.2702 0.611627C25.0217 0.584773 23.8134 1.05377 22.91 1.91595C22.0066 2.77813 21.4817 3.96319 21.4502 5.2116L20.4502 8.5216H22.9902C23.8953 9.36139 25.0855 9.82604 26.3202 9.82159" fill="#41A971"/>
<path d="M36.4903 13.3216C36.4772 12.83 36.2699 12.3636 35.9139 12.0244C35.5578 11.6852 35.0819 11.5009 34.5903 11.5116H17.9403C17.4486 11.5009 16.9727 11.6852 16.6167 12.0244C16.2606 12.3636 16.0534 12.83 16.0403 13.3216V24.8916C16.0534 25.2704 16.1808 25.6364 16.4056 25.9416C16.6305 26.2468 16.9424 26.4769 17.3003 26.6016C17.7716 26.7334 18.2625 26.7808 18.7503 26.7417V16.5016H19.8203V24.6616L18.1503 31.1117H20.3603V43.1117C20.3603 43.7416 21.6803 45.0016 23.3603 45.0016C23.7797 44.9994 24.1939 44.9092 24.5763 44.737C24.9587 44.5647 25.3007 44.3142 25.5803 44.0016V31.1117H26.9903V43.9917C27.271 44.3055 27.6146 44.5567 27.9988 44.729C28.383 44.9013 28.7992 44.9908 29.2203 44.9917C30.8403 44.9917 32.1603 43.7316 32.1603 43.1016V31.1016H34.3703L32.7003 24.6516V16.4917H33.7803V26.7316C34.2648 26.7707 34.7524 26.7233 35.2203 26.5916C35.5793 26.4673 35.8926 26.2376 36.1191 25.9326C36.3457 25.6275 36.475 25.2613 36.4903 24.8816V13.3216Z" fill="#41A971"/>
<path d="M9.8503 11.9016C11.0117 11.9064 12.1324 11.4745 12.9903 10.6916H15.3703L14.3703 7.57159C14.3466 6.39482 13.8578 5.27538 13.0106 4.45824C12.1635 3.64111 11.0272 3.19285 9.8503 3.2116C9.2672 3.19832 8.68719 3.30003 8.14341 3.51098C7.59963 3.72192 7.10275 4.03794 6.68114 4.44097C6.25953 4.84401 5.92146 5.32619 5.68625 5.85992C5.45104 6.39364 5.32329 6.96851 5.3103 7.55163L4.3103 10.6716H6.6903C7.54711 11.4562 8.66856 11.8883 9.8303 11.8816" fill="#FCDC1C"/>
<path d="M14.2002 24.8916V13.4716H2.01022C1.7779 13.4663 1.54685 13.5073 1.33055 13.5922C1.11425 13.6771 0.917032 13.8043 0.750404 13.9663C0.583777 14.1283 0.451075 14.3218 0.360046 14.5356C0.269017 14.7494 0.221482 14.9792 0.220215 15.2116V26.0916C0.234226 26.4483 0.355199 26.7926 0.567413 27.0797C0.779627 27.3669 1.07328 27.5835 1.41022 27.7016C1.85181 27.8277 2.31218 27.8752 2.77022 27.8416V18.2116H3.77022V25.8916L2.19022 31.9616H4.29021V43.2116C4.29021 43.8016 5.54022 44.9916 7.07022 44.9916C7.46591 44.9926 7.85738 44.9103 8.21918 44.75C8.58099 44.5898 8.90502 44.3552 9.17022 44.0616V31.9416H10.5402V44.0616C10.8027 44.356 11.1248 44.5912 11.4851 44.7515C11.8455 44.9118 12.2358 44.9937 12.6302 44.9916C14.1702 44.9916 15.4102 43.8016 15.4102 43.2116V31.9416H16.0902L16.8102 29.1716L16.5602 28.1716C15.8921 27.9162 15.3148 27.4681 14.9018 26.8841C14.4887 26.3001 14.2585 25.6066 14.2402 24.8916" fill="#FCDC1C"/>
<path d="M42.6701 11.9016C43.8319 11.9083 44.9533 11.4762 45.8101 10.6916H48.2001L47.2001 7.57159C47.1871 6.98847 47.0594 6.41366 46.8242 5.87994C46.589 5.34621 46.2509 4.86403 45.8293 4.46099C45.4077 4.05796 44.9108 3.74194 44.367 3.531C43.8232 3.32005 43.2432 3.21834 42.6601 3.23162C41.4842 3.20749 40.3467 3.65091 39.4974 4.46459C38.6481 5.27828 38.1564 6.3957 38.1301 7.57159L37.1301 10.6916H39.5101C40.368 11.4745 41.4887 11.9064 42.6501 11.9016" fill="#FCDC1C"/>
<path d="M50.5103 13.4716H38.3203V24.8916C38.3067 25.6114 38.08 26.311 37.6688 26.902C37.2576 27.4929 36.6805 27.9487 36.0103 28.2116L35.7603 29.2116L36.4803 31.9816H37.0903V43.2116C37.0903 43.8016 38.3303 44.9916 39.8603 44.9916C40.2552 44.9939 40.6462 44.9131 41.008 44.7546C41.3697 44.5962 41.6942 44.3634 41.9603 44.0716V31.9416H43.3303V44.0716C43.5948 44.3627 43.9176 44.595 44.2776 44.7535C44.6376 44.912 45.0269 44.9931 45.4203 44.9916C46.9603 44.9916 48.2003 43.8016 48.2003 43.2116V31.9416H50.2903L48.7103 25.8716V18.2116H49.7103V27.8516C50.1684 27.8906 50.6297 27.843 51.0703 27.7116C51.4072 27.5966 51.7012 27.382 51.9137 27.0964C52.1262 26.8107 52.247 26.4674 52.2603 26.1116V15.2116C52.2551 14.9818 52.2046 14.7552 52.1119 14.5449C52.0191 14.3345 51.8858 14.1446 51.7195 13.9858C51.5533 13.827 51.3574 13.7025 51.1431 13.6194C50.9287 13.5363 50.7001 13.4963 50.4703 13.5016" fill="#FCDC1C"/>
</g>
<defs>
<clipPath id="clip0_512_93">
<rect width="52.08" height="44.34" fill="white" transform="translate(0.220215 0.641602)"/>
</clipPath>
</defs>
</svg>
