<svg width="49" height="63" viewBox="0 0 49 63" fill="none" xmlns="http://www.w3.org/2000/svg">
<path d="M0.309217 15.54C1.0959 15.9227 1.56688 16.4273 2.08962 16.8523C10.1877 23.4358 18.2828 30.0232 26.3751 36.6145C26.5684 36.7554 26.7226 36.9415 26.8236 37.156C26.9245 37.3705 26.9691 37.6064 26.9531 37.8421C26.9255 39.3932 26.9531 40.9442 26.9393 42.4953C26.9393 42.7391 27.0549 43.0727 26.8082 43.2047C26.5338 43.3521 26.3682 43.0168 26.1836 42.8661C25.1865 42.0804 24.2031 41.2744 23.1922 40.4549C22.9662 40.8375 23.0524 41.1508 23.0524 41.4471C23.0524 48.0509 23.0334 54.6547 23.0645 61.2483C23.0645 62.056 22.9248 62.3557 22 62.3506C15.0993 62.3066 8.20254 62.3066 1.30983 62.3506C0.531765 62.3506 0.235033 62.1609 0.291965 61.3668C0.352346 60.4376 0.352346 59.5055 0.291965 58.5763C0.257461 57.9294 0.498985 57.772 1.13041 57.7737C6.44745 57.7957 11.7628 57.7872 17.0798 57.7872C18.2357 57.7872 18.2374 57.7872 18.2374 56.651C18.2374 50.2166 18.2115 43.7821 18.2374 37.3579C18.2534 37.069 18.1957 36.7808 18.0694 36.5194C17.9432 36.258 17.7525 36.0317 17.5146 35.861C12.0198 31.4111 6.54751 26.9324 1.0476 22.4842C0.50934 22.0473 0.274711 21.6087 0.295413 20.9162C0.341993 19.1738 0.309217 17.4297 0.309217 15.54Z" fill="#FCDC1C"/>
<path d="M48.2214 52.2352C48.2214 55.3356 48.2041 58.4359 48.2352 61.5363C48.2352 62.173 48.0437 62.3474 47.4071 62.3457C41.4908 62.3254 35.5752 62.3254 29.6601 62.3457C29.0666 62.3457 28.8647 62.1764 28.8665 61.5787C28.8826 55.3779 28.8826 49.1771 28.8665 42.9764C28.8665 42.3329 29.0873 42.1737 29.7118 42.1704C32.0167 42.1585 32.0167 42.1382 32.0167 44.3936C32.0167 46.1123 32.0391 47.8327 32.0046 49.5496C31.9942 50.1457 32.1961 50.3201 32.7913 50.3167C36.6091 50.2964 40.4287 50.2896 44.2483 50.3167C44.9763 50.3167 45.1109 50.0356 45.0971 49.4176C45.0712 47.2756 45.1074 45.1319 45.0746 42.9831C45.0746 42.3634 45.2472 42.1585 45.8993 42.1551C48.2248 42.1416 48.2248 42.1179 48.2248 44.3564L48.2214 52.2352Z" fill="#41A971"/>
<path d="M4.60165 39.0005C5.80928 39.0005 7.01692 39.0124 8.22455 39.0005C8.66275 39.0005 8.84734 39.1411 8.84562 39.578C8.83756 41.9169 8.83756 44.2559 8.84562 46.5949C8.84562 47.0453 8.62652 47.1672 8.20558 47.1655C5.79031 47.1554 3.37906 47.1554 0.971844 47.1655C0.500867 47.1655 0.305921 47.0165 0.309371 46.5322C0.326623 44.2215 0.326623 41.9107 0.309371 39.6C0.309371 39.092 0.542272 38.9921 0.999448 38.9988C2.18983 39.0124 3.39574 39.0005 4.60165 39.0005Z" fill="#FCDC1C"/>
<path d="M9.57199 14.4839C9.80347 14.5514 10.0181 14.6655 10.2022 14.8188C10.3864 14.9721 10.536 15.1614 10.6416 15.3746C10.84 15.7251 10.6416 16.018 10.3794 16.2686C9.70483 16.9137 9.03373 17.5623 8.354 18.2023C8.14181 18.4004 7.9158 18.7679 7.59492 18.3818C7.27403 17.9957 6.39936 17.674 6.80996 17.0695C7.46898 16.101 8.40921 15.3305 9.31666 14.5618C9.39626 14.5208 9.48278 14.4945 9.57199 14.4839Z" fill="#FCDC1C"/>
<path d="M31.6097 2.07343C31.5789 2.31 31.4611 2.52737 31.2785 2.68471C30.5884 3.35186 29.8673 3.99361 29.2083 4.69463C28.7477 5.18399 28.4872 4.8775 28.1732 4.56255C27.8281 4.21204 27.2467 3.89371 27.7695 3.32816C28.4785 2.5611 29.2497 1.84993 30.0036 1.1269C30.0507 1.07279 30.1085 1.02862 30.1735 0.997042C30.2385 0.965468 30.3093 0.947154 30.3817 0.943197C30.4541 0.939241 30.5265 0.949728 30.5947 0.974026C30.6628 0.998325 30.7253 1.03593 30.7782 1.08457C31.137 1.36396 31.5304 1.62133 31.6097 2.07343Z" fill="#FCDC1C"/>
<path d="M17.9666 8.7162C17.549 8.47892 17.1943 8.14823 16.9315 7.75103C16.721 7.46656 16.7987 7.1567 17.0488 6.9044C17.7579 6.21354 18.4686 5.52269 19.1898 4.84369C19.6073 4.45085 19.9644 4.65743 20.2956 4.9927C20.6269 5.32796 21.0909 5.65137 20.67 6.11702C19.8937 6.97382 19.0328 7.75951 18.2047 8.57058C18.1316 8.62832 18.0516 8.67721 17.9666 8.7162Z" fill="#FCDC1C"/>
<path d="M24.7465 22.3133C24.7725 22.4689 24.7551 22.6285 24.6962 22.7751C24.6372 22.9218 24.539 23.0501 24.4118 23.1464C23.7666 23.7814 23.1248 24.4181 22.4744 25.048C22.2225 25.2935 21.9689 25.6897 21.598 25.2037C21.253 24.7635 20.3542 24.4672 20.989 23.7221C21.6239 22.9771 22.4244 22.2795 23.1576 21.5734C23.2509 21.4631 23.3843 21.3927 23.5295 21.3773C23.6747 21.3618 23.8204 21.4023 23.9357 21.4904C24.2859 21.7562 24.6551 22.0339 24.7465 22.3133Z" fill="#FCDC1C"/>
<path d="M30.1707 22.0576C30.6883 22.1372 30.9815 22.5554 31.2541 22.933C31.5008 23.2717 31.23 23.5613 30.9746 23.8102C30.3225 24.4451 29.6842 25.0953 29.02 25.7168C28.8233 25.8997 28.6249 26.3568 28.2747 25.9775C27.8986 25.5712 27.0257 25.2461 27.438 24.5891C28.0522 23.6137 29.0424 22.9195 29.9067 22.1372C29.962 22.0864 30.0672 22.0864 30.1707 22.0576Z" fill="#FCDC1C"/>
<path d="M26.5427 7.00439C26.5582 7.29056 26.3702 7.46326 26.1804 7.64106L24.1912 9.60187C23.9497 9.84062 23.7013 10.1623 23.3752 9.7221C23.0492 9.28184 22.1555 9.00415 22.7197 8.31668C23.4097 7.47004 24.2568 6.73854 25.0866 6.01552C25.4541 5.68702 26.5185 6.43376 26.5427 7.00439Z" fill="#FCDC1C"/>
<path d="M39.9024 7.7241C39.9024 8.01027 39.6954 8.1779 39.5143 8.35569C38.8679 8.99575 38.2181 9.63298 37.5648 10.2674C37.3353 10.4909 37.1266 10.8617 36.7522 10.4367C36.3779 10.0117 35.5446 9.6883 36.0483 9.02454C36.6953 8.1779 37.5303 7.45487 38.3429 6.74539C38.7534 6.38303 39.8903 7.12977 39.9024 7.7241Z" fill="#FCDC1C"/>
<path d="M32.0478 15.6149C31.6221 15.3429 31.2522 14.9948 30.9575 14.5888C30.7349 14.3128 30.8592 14.0486 31.0731 13.8336C31.7735 13.1326 32.4774 12.4332 33.1951 11.7475C33.6402 11.3208 34.0076 11.546 34.3665 11.9083C34.7253 12.2707 35.1238 12.6195 34.6477 13.1156C33.8834 13.9115 33.0777 14.6718 32.2876 15.4456C32.2119 15.5076 32.1318 15.5642 32.0478 15.6149Z" fill="#FCDC1C"/>
<path d="M17.5975 20.2952C18.1513 20.3697 18.4411 20.7794 18.7154 21.1587C18.9604 21.4974 18.7154 21.792 18.4618 22.0443C17.7993 22.7047 17.1455 23.3735 16.4744 24.0254C16.2742 24.2202 16.0551 24.6266 15.7308 24.2202C15.4065 23.8138 14.4559 23.5124 14.932 22.8486C15.5842 21.9427 16.4847 21.2078 17.2852 20.4086C17.3577 20.3375 17.4957 20.3307 17.5975 20.2952Z" fill="#FCDC1C"/>
<path d="M15.767 10.6181C15.7877 10.9788 15.5945 11.1515 15.4099 11.331C14.7646 11.9677 14.1091 12.5942 13.4725 13.2393C13.1671 13.5475 12.8842 13.8184 12.5133 13.3358C12.1872 12.9091 11.3557 12.6077 11.9785 11.905C12.6513 11.1447 13.4207 10.464 14.1522 9.75454C14.3523 9.5632 14.6128 9.46499 14.8544 9.63262C15.246 9.90524 15.6393 10.1931 15.767 10.6181Z" fill="#FCDC1C"/>
<path d="M23.4751 31.0862C23.0241 30.829 22.6434 30.4681 22.3658 30.0347C22.1674 29.7248 22.3503 29.4488 22.5918 29.2134C23.2629 28.5598 23.9254 27.8978 24.6017 27.2475C25.1313 26.7396 25.5126 27.0782 25.9059 27.4677C26.2993 27.8571 26.4977 28.2195 26.0146 28.6817C25.2745 29.3878 24.5534 30.1126 23.8219 30.8254C23.7121 30.9196 23.5963 31.0067 23.4751 31.0862Z" fill="#FCDC1C"/>
<path d="M28.7423 11.27C28.7622 11.4158 28.7431 11.5641 28.6868 11.7004C28.6305 11.8367 28.5391 11.9562 28.4214 12.0473C27.7624 12.7093 27.1103 13.3782 26.4461 14.0352C26.2184 14.2604 25.9768 14.6447 25.637 14.1876C25.2971 13.7304 24.3672 13.4611 24.9745 12.711C25.6301 11.9033 26.434 11.2108 27.1845 10.481C27.2724 10.3836 27.3942 10.3219 27.526 10.3081C27.6578 10.2943 27.7902 10.3294 27.897 10.4065C28.2524 10.6706 28.6664 10.9043 28.7423 11.27Z" fill="#FCDC1C"/>
<path d="M33.5071 21.1907C33.0731 20.9301 32.7078 20.5727 32.4409 20.1476C32.2149 19.7717 32.5082 19.5177 32.7514 19.2773C33.3587 18.6796 33.9763 18.092 34.5698 17.4858C35.0735 16.9778 35.4859 17.1031 35.9499 17.5569C36.414 18.0107 36.5589 18.4036 36.0189 18.9014C35.3289 19.5364 34.6819 20.2103 34.0091 20.8605C33.8763 20.9943 33.7658 21.1788 33.5071 21.1907Z" fill="#FCDC1C"/>
<path d="M21.0013 19.3789C20.5407 19.1757 20.2233 18.8099 19.9282 18.4374C19.6919 18.1411 19.8161 17.86 20.0645 17.6128C20.7546 16.9355 21.4378 16.2525 22.1141 15.5639C22.5557 15.1203 22.9215 15.3133 23.2889 15.6723C23.6564 16.0313 24.0446 16.3852 23.5736 16.8847C22.8128 17.689 22.0209 18.4577 21.2273 19.2383C21.1576 19.2934 21.0818 19.3405 21.0013 19.3789Z" fill="#FCDC1C"/>
<path d="M29.7947 17.6129C29.7947 17.9042 29.586 18.0633 29.4048 18.2411C28.7596 18.8761 28.1092 19.506 27.4692 20.1461C27.1949 20.4204 26.9361 20.7133 26.5893 20.2476C26.2685 19.8176 25.4093 19.5162 25.9959 18.8219C26.667 18.0278 27.4744 17.3437 28.2386 16.6207C28.3393 16.5163 28.4765 16.453 28.6227 16.4436C28.7689 16.4342 28.9133 16.4793 29.027 16.5699C29.3669 16.8442 29.7913 17.088 29.7947 17.6129Z" fill="#FCDC1C"/>
<path d="M21.4807 11.7557C21.5054 11.912 21.4863 12.0719 21.4255 12.2184C21.3648 12.3648 21.2645 12.4923 21.1356 12.5871C20.4887 13.2238 19.8469 13.8656 19.1896 14.4921C18.9515 14.719 18.7152 15.1829 18.327 14.6699C17.9906 14.2279 17.0797 13.9316 17.7146 13.1832C18.3719 12.4093 19.1517 11.7371 19.8849 11.0259C19.9787 10.9149 20.1121 10.8431 20.2579 10.8252C20.4037 10.8073 20.551 10.8445 20.6698 10.9294C21.0287 11.1953 21.4306 11.451 21.4807 11.7557Z" fill="#FCDC1C"/>
<path d="M16.4725 16.8085C16.4863 17.1472 16.281 17.3165 16.0999 17.4858C15.4339 18.1445 14.7611 18.7981 14.0952 19.4568C13.8502 19.699 13.6104 20.0173 13.2878 19.5686C12.9652 19.1199 12.0698 18.8608 12.6443 18.1581C13.3051 17.3504 14.1245 16.6697 14.8871 15.9399C14.9757 15.8437 15.0967 15.7821 15.2278 15.7663C15.3589 15.7504 15.4915 15.7814 15.6013 15.8535C15.9653 16.1143 16.3276 16.4022 16.4725 16.8085Z" fill="#FCDC1C"/>
<path d="M32.3082 5.62451C32.8396 5.68547 33.1104 6.07662 33.3675 6.43051C33.6038 6.75393 33.421 7.0621 33.1536 7.32286C32.5687 7.89857 31.9942 8.48445 31.4128 9.06355C31.1937 9.28029 30.9677 9.57153 30.652 9.2007C30.3363 8.82988 29.4444 8.50646 29.8791 7.89011C30.445 7.07057 31.2714 6.42204 31.9977 5.70918C32.0667 5.64144 32.2116 5.64991 32.3082 5.62451Z" fill="#FCDC1C"/>
<path d="M36.5313 43.8772C36.1577 43.8655 35.8028 43.7136 35.5399 43.4528C35.2771 43.1919 35.1262 42.842 35.1184 42.4751C35.1229 42.1076 35.2709 41.7558 35.5318 41.4921C35.7928 41.2284 36.1468 41.073 36.521 41.0579C36.7138 41.0574 36.9049 41.0947 37.0828 41.1677C37.2608 41.2407 37.4221 41.3478 37.5572 41.4829C37.6924 41.6179 37.7987 41.7781 37.8699 41.954C37.9411 42.1299 37.9758 42.3181 37.9719 42.5073C37.9642 42.8759 37.8085 43.2266 37.5387 43.4831C37.269 43.7396 36.9069 43.8813 36.5313 43.8772Z" fill="#FCDC1C"/>
<path d="M27.814 31.9007C28.1919 31.913 28.5501 32.069 28.8131 32.3356C29.0761 32.6023 29.2232 32.9587 29.2235 33.3299C29.2013 33.6991 29.0352 34.0457 28.7596 34.298C28.484 34.5502 28.1201 34.6886 27.7433 34.6845C27.556 34.6801 27.3714 34.6395 27.2001 34.565C27.0288 34.4905 26.8741 34.3836 26.745 34.2504C26.6158 34.1172 26.5147 33.9603 26.4474 33.7887C26.3801 33.6171 26.3479 33.4341 26.3528 33.2503C26.3567 33.067 26.3979 32.8863 26.4738 32.7188C26.5497 32.5513 26.6589 32.4003 26.7949 32.2746C26.931 32.149 27.0912 32.0512 27.2661 31.987C27.4411 31.9228 27.6273 31.8935 27.814 31.9007Z" fill="#FCDC1C"/>
<path d="M37.23 48.0004C36.8539 47.9916 36.4965 47.8374 36.2355 47.5714C35.9745 47.3054 35.831 46.949 35.8361 46.5798C35.8557 46.2099 36.024 45.8627 36.3041 45.6145C36.5842 45.3663 36.9532 45.2372 37.3301 45.2556C37.5168 45.258 37.7012 45.297 37.8723 45.3704C38.0434 45.4438 38.1978 45.55 38.3264 45.6829C38.4551 45.8158 38.5553 45.9726 38.6212 46.144C38.6871 46.3155 38.7174 46.4982 38.7102 46.6814C38.6826 47.4637 38.0616 48.0174 37.23 48.0004Z" fill="#FCDC1C"/>
<path d="M32.5046 36.0493C32.4975 36.4172 32.3477 36.7686 32.0859 37.032C31.824 37.2953 31.4697 37.4507 31.0951 37.4666C30.9022 37.4672 30.711 37.4305 30.5326 37.3585C30.3542 37.2864 30.192 37.1805 30.0555 37.0467C29.9189 36.913 29.8106 36.7541 29.7367 36.5791C29.6629 36.4042 29.625 36.2167 29.6252 36.0273C29.629 35.8447 29.6696 35.6647 29.7447 35.4976C29.8197 35.3305 29.9277 35.1797 30.0624 35.0537C30.1971 34.9278 30.3559 34.8293 30.5296 34.7639C30.7033 34.6985 30.8884 34.6675 31.0744 34.6727C31.4498 34.67 31.811 34.8133 32.079 35.0713C32.347 35.3292 32.5 35.6809 32.5046 36.0493Z" fill="#FCDC1C"/>
<path d="M35.6345 38.9717C35.6381 39.1554 35.6036 39.3378 35.5331 39.508C35.4627 39.6781 35.3577 39.8324 35.2245 39.9615C35.0914 40.0906 34.9329 40.1917 34.7587 40.2588C34.5845 40.3259 34.3982 40.3575 34.2112 40.3518C34.0243 40.3535 33.8388 40.319 33.6655 40.2502C33.4922 40.1814 33.3344 40.0796 33.2013 39.9507C33.0683 39.8218 32.9625 39.6684 32.89 39.4992C32.8176 39.33 32.78 39.1485 32.7793 38.965C32.7793 38.1827 33.3797 37.6104 34.2233 37.6104C35.0669 37.6104 35.6414 38.1556 35.6345 38.9717Z" fill="#FCDC1C"/>
</svg>
