<svg width="48" height="46" viewBox="0 0 48 46" fill="none" xmlns="http://www.w3.org/2000/svg">
<g clip-path="url(#clip0_512_87)">
<path d="M12.195 7.46953C14.478 7.47868 16.6833 6.6414 18.385 5.11949C18.4668 5.22861 18.5723 5.31775 18.6936 5.38012C18.8148 5.44248 18.9487 5.47642 19.085 5.47948C19.3075 5.48257 19.5226 5.40033 19.6863 5.24968C19.85 5.09903 19.9497 4.89141 19.965 4.66948C19.965 4.44948 20.135 2.52948 23.695 2.16948C23.9189 2.1516 24.1266 2.04586 24.2727 1.87535C24.4189 1.70485 24.4916 1.48347 24.475 1.25951C24.4605 1.14413 24.4227 1.03291 24.364 0.932544C24.3053 0.832181 24.2268 0.744757 24.1333 0.675586C24.0398 0.606415 23.9333 0.556906 23.8202 0.530078C23.707 0.50325 23.5896 0.499679 23.475 0.519519C20.675 0.809519 19.255 2.00951 18.615 3.13951C16.8899 1.45075 14.5691 0.50948 12.155 0.519519C10.8823 0.512805 9.62197 0.769651 8.45339 1.27391C7.28481 1.77818 6.23328 2.51893 5.36502 3.44951C5.2301 3.59699 5.15527 3.78961 5.15527 3.98949C5.15527 4.18937 5.2301 4.38205 5.36502 4.52953C6.23126 5.46338 7.28218 6.20695 8.45107 6.71306C9.61995 7.21918 10.8813 7.47679 12.155 7.46953" fill="#FCDC1C"/>
<path d="M12.085 12.0396C11.4825 12.9441 11.0802 13.9669 10.905 15.0396C10.867 15.2407 10.7586 15.4216 10.5991 15.5499C10.4396 15.6782 10.2396 15.7454 10.035 15.7395H9.90502C9.79475 15.7272 9.68805 15.6929 9.59126 15.6387C9.49446 15.5844 9.40952 15.5113 9.34146 15.4237C9.2734 15.3361 9.22361 15.2357 9.19502 15.1285C9.16643 15.0213 9.15963 14.9094 9.17502 14.7995C9.38053 13.4995 9.86866 12.2604 10.605 11.1695C10.7382 10.9832 10.9368 10.854 11.1611 10.8077C11.3854 10.7613 11.6189 10.8013 11.815 10.9195C11.9106 10.9738 11.994 11.0472 12.0599 11.1352C12.1258 11.2231 12.173 11.3238 12.1983 11.4307C12.2236 11.5377 12.2266 11.6487 12.2072 11.7569C12.1877 11.8651 12.1461 11.9681 12.085 12.0595M10.325 24.2595C10.3175 24.3951 10.276 24.5266 10.2043 24.6419C10.1327 24.7572 10.0332 24.8527 9.91502 24.9195L8.34502 25.8295C7.62167 26.22 7.01585 26.7967 6.59035 27.5C6.16486 28.2033 5.93514 29.0076 5.92502 29.8295C5.91935 30.8543 6.27321 31.8487 6.92502 32.6395C6.99639 32.7234 7.04943 32.8213 7.08073 32.9269C7.11203 33.0325 7.1209 33.1435 7.10677 33.2527C7.09265 33.362 7.05584 33.4671 6.99871 33.5612C6.94158 33.6554 6.86539 33.7365 6.77502 33.7995C6.61924 33.9163 6.42976 33.9795 6.23502 33.9795C6.10351 33.9804 5.97343 33.9523 5.85412 33.897C5.73481 33.8416 5.62925 33.7606 5.54502 33.6595C4.64027 32.5885 4.14425 31.2316 4.14502 29.8295C4.15862 28.7195 4.46903 27.6334 5.04404 26.6838C5.61904 25.7343 6.43769 24.9559 7.41502 24.4295L8.57502 23.7495L8.90502 18.2195C8.91244 18.1064 8.94271 17.9958 8.994 17.8947C9.04528 17.7935 9.11653 17.7037 9.20343 17.6309C9.29033 17.558 9.39109 17.5035 9.49964 17.4706C9.60819 17.4377 9.72228 17.4271 9.83502 17.4395C9.94662 17.4407 10.0568 17.4644 10.1591 17.5092C10.2613 17.554 10.3534 17.619 10.43 17.7002C10.5065 17.7814 10.5659 17.8772 10.6046 17.9819C10.6433 18.0866 10.6604 18.198 10.655 18.3095L10.325 24.2595ZM24.825 27.9095V27.8095C26.415 24.3095 28.665 22.0895 31.505 21.2195C31.9629 21.0798 32.431 20.9762 32.905 20.9095L32.565 15.1295C32.2932 12.4789 31.1842 9.98367 29.3987 8.0058C27.6132 6.02793 25.2442 4.6702 22.635 4.12952C21.965 4.35952 21.715 4.65954 21.635 4.83954C21.5704 5.46982 21.2735 6.05347 20.8021 6.47681C20.3307 6.90014 19.7186 7.13282 19.085 7.12952C18.9319 7.13984 18.7782 7.13984 18.625 7.12952C16.738 8.4485 14.4872 9.14749 12.185 9.12952C10.872 9.12725 9.56936 8.89717 8.33502 8.44952C6.79553 10.3705 5.83784 12.6919 5.57502 15.1395L5.18502 21.8095C3.81018 22.6466 2.67166 23.8207 1.87721 25.2206C1.08276 26.6205 0.658654 28.1999 0.64502 29.8095C0.64502 35.1595 5.33502 39.5095 11.105 39.5095C12.1194 39.5061 13.1287 39.3649 14.105 39.0895C15.6519 39.8602 17.3568 40.2607 19.085 40.2595C20.8224 40.2545 22.5346 39.8436 24.085 39.0595C24.7394 39.24 25.4088 39.3605 26.085 39.4195C25.945 39.1995 25.805 38.9895 25.685 38.7595C24.7766 37.1084 24.2357 35.2805 24.0994 33.4009C23.963 31.5213 24.2344 29.6345 24.895 27.8695" fill="#FCDC1C"/>
<path d="M37.145 40.8795C37.0733 41.0363 36.9577 41.1688 36.8121 41.2612C36.6666 41.3535 36.4973 41.4016 36.325 41.3995C36.2188 41.4139 36.1112 41.4139 36.005 41.3995C34.5716 40.87 33.2615 40.0533 32.155 38.9995C32.0734 38.9254 32.0082 38.8352 31.9636 38.7344C31.919 38.6337 31.8959 38.5247 31.8959 38.4145C31.8959 38.3044 31.919 38.1953 31.9636 38.0946C32.0082 37.9938 32.0734 37.9036 32.155 37.8295C32.3234 37.6728 32.5449 37.5856 32.775 37.5856C33.0051 37.5856 33.2266 37.6728 33.395 37.8295C34.3228 38.716 35.4267 39.3974 36.635 39.8295C36.7405 39.8651 36.8377 39.9218 36.9206 39.9961C37.0035 40.0705 37.0703 40.161 37.1171 40.262C37.1639 40.3631 37.1896 40.4726 37.1927 40.5839C37.1958 40.6952 37.1761 40.8061 37.135 40.9095M30.985 36.0595C30.8859 36.0962 30.7806 36.1132 30.675 36.1095C30.4998 36.1125 30.3278 36.0626 30.1815 35.9662C30.0352 35.8699 29.9214 35.7316 29.855 35.5695C29.0899 33.6772 29.0507 31.569 29.745 29.6495C30.2613 28.3057 31.1665 27.1463 32.345 26.3195C32.5427 26.2007 32.7778 26.1604 33.0037 26.2067C33.2297 26.253 33.43 26.3825 33.565 26.5695C33.6261 26.6609 33.6676 26.7639 33.6871 26.8721C33.7066 26.9803 33.7036 27.0913 33.6783 27.1983C33.6529 27.3053 33.6058 27.4059 33.5399 27.4938C33.4739 27.5818 33.3906 27.6552 33.295 27.7095C32.4361 28.3655 31.7779 29.2488 31.395 30.2595C30.8499 31.8072 30.8926 33.5013 31.515 35.0195C31.554 35.123 31.5714 35.2334 31.5661 35.3439C31.5608 35.4544 31.533 35.5627 31.4843 35.662C31.4355 35.7613 31.367 35.8496 31.2828 35.9214C31.1987 35.9932 31.1007 36.047 30.995 36.0795M47.785 39.1895C47.6074 38.3295 47.161 37.5483 46.5103 36.9587C45.8596 36.3691 45.0382 36.0017 44.165 35.9095C42.8182 35.8636 41.5302 35.347 40.525 34.4495C40.1087 33.9873 39.8024 33.4367 39.6292 32.8392C39.456 32.2417 39.4204 31.6127 39.525 30.9995C39.585 30.5695 39.685 30.0995 39.795 29.5995C40.255 27.5295 40.875 24.6895 37.855 23.3495C36.0623 22.4463 33.9956 22.2499 32.065 22.7995C29.7117 23.5195 27.8417 25.4095 26.455 28.4695C25.8723 30.0251 25.6323 31.6881 25.7514 33.3449C25.8705 35.0017 26.3458 36.6133 27.145 38.0695C28.0519 39.699 29.2727 41.1327 30.7367 42.2878C32.2008 43.4429 33.8792 44.2966 35.675 44.7995C36.798 45.1123 37.9592 45.2672 39.125 45.2595C41.3432 45.2753 43.5322 44.7537 45.505 43.7395C46.324 43.3291 46.9868 42.6629 47.3928 41.8417C47.7989 41.0206 47.926 40.0894 47.755 39.1895" fill="#41A971"/>
<path d="M13.965 40.8195C13.506 40.9205 13.0421 40.9972 12.575 41.0495C12.2402 41.5085 12.0838 42.0737 12.135 42.6395C12.1926 43.231 12.448 43.7857 12.8599 44.214C13.2719 44.6423 13.8163 44.919 14.405 44.9995C15.0658 45.1125 15.7346 45.1727 16.405 45.1795C17.5372 45.2076 18.6593 44.9605 19.675 44.4595C21.0716 43.7452 22.2239 42.6312 22.985 41.2595C21.7253 41.6502 20.4139 41.8491 19.095 41.8495C17.3317 41.8489 15.5868 41.4917 13.965 40.7995" fill="#FCDC1C"/>
</g>
<defs>
<clipPath id="clip0_512_87">
<rect width="47.21" height="44.69" fill="white" transform="translate(0.655029 0.519531)"/>
</clipPath>
</defs>
</svg>
