<svg width="35" height="34" viewBox="0 0 35 34" fill="none" xmlns="http://www.w3.org/2000/svg">
<ellipse cx="17.5" cy="17" rx="17.5" ry="17" fill="#E0AD41"/>
<g clip-path="url(#clip0_97_608)">
<path d="M29.0002 17.4672C29.0059 19.743 28.3358 21.9693 27.0748 23.8641C25.8138 25.7588 24.0187 27.2367 21.9169 28.1106C19.815 28.9845 17.501 29.215 15.268 28.7729C13.035 28.3308 10.9835 27.2361 9.37336 25.6273C7.76323 24.0186 6.66693 21.9683 6.22335 19.7361C5.77978 17.5039 6.00889 15.1903 6.88165 13.0884C7.75442 10.9864 9.23156 9.19081 11.126 7.92894C13.0204 6.66707 15.2468 5.99574 17.5231 6C23.8438 6.00179 28.9975 11.1507 29.0002 17.4672ZM9.87112 10.8535C6.44488 14.6148 6.29575 21.0633 10.7317 25.0537C14.9862 28.8797 20.9988 28.1288 24.0648 25.1776L21.3698 22.4949C20.4858 23.1901 19.3845 23.4074 18.2085 23.455C18.1969 23.6104 18.1798 23.7406 18.178 23.8708C18.1717 24.4699 18.1888 25.0689 18.16 25.6671C18.1602 25.7539 18.1426 25.8398 18.1081 25.9195C18.0737 25.9992 18.0232 26.071 17.9599 26.1304C17.8965 26.1898 17.8216 26.2355 17.7398 26.2647C17.658 26.2939 17.5711 26.306 17.4845 26.3002C17.1054 26.2742 16.8781 26.056 16.8422 25.6769C16.817 25.4075 16.8278 25.1381 16.8269 24.8686C16.8269 24.3971 16.8269 23.9265 16.8269 23.4254C16.5915 23.4254 16.4433 23.4325 16.296 23.4254C14.3457 23.3266 12.9192 22.327 12.4332 20.6349C12.2535 20.0107 12.1924 19.3434 12.1502 18.6914C12.1134 18.139 12.1205 17.548 12.8626 17.4124C12.2095 16.0715 11.9346 14.7342 12.3191 13.3044L9.87112 10.8535ZM25.105 24.1681C28.4846 20.4858 28.7181 14.1325 24.4403 10.1053C20.3079 6.21554 14.2155 6.72388 10.8467 9.89695C11.8295 10.8795 12.823 11.8468 13.786 12.8509C14.1337 13.2101 14.5254 13.2703 15.0015 13.2936C14.7616 11.4309 15.6761 10.1269 16.9185 8.98266C17.33 8.60185 17.6372 8.58209 18.0271 8.93595C19.2614 10.0613 20.2001 11.3348 20.0169 13.1365C20.0187 13.1896 20.0281 13.2422 20.0447 13.2927C20.4831 13.2541 20.8981 13.2029 21.3159 13.1859C22.6553 13.1446 22.9742 13.1499 22.8242 14.8492C22.7478 15.7204 22.4693 16.5745 22.278 17.4591C22.6786 17.5301 22.8278 17.8804 22.8475 18.3465C22.8957 19.274 22.7561 20.2018 22.437 21.0741C22.4141 21.1569 22.4103 21.2438 22.4258 21.3282C22.4414 21.4127 22.4759 21.4926 22.5268 21.5618C23.3659 22.432 24.2274 23.2844 25.105 24.1681ZM16.7505 17.8112C16.9572 15.7338 15.5441 14.3085 13.5165 14.5986C13.5049 16.7433 14.5784 17.8211 16.7505 17.8112ZM18.257 17.8166C20.2909 17.8345 21.6015 16.7981 21.4488 14.5609C19.4402 14.3471 17.9696 15.8308 18.257 17.8211V17.8166ZM18.2238 22.0476C20.4759 22.1644 21.5917 20.8181 21.4488 18.8144C19.344 18.7515 18.1654 19.832 18.2238 22.0476ZM13.5444 18.8144C13.4222 20.757 14.4589 22.1743 16.7496 22.0422C16.9033 19.8374 15.5782 18.7192 13.5444 18.8162V18.8144ZM17.4818 14.9219C19.0629 13.6376 19.0593 11.5836 17.4953 10.3343C15.8828 11.8504 15.9573 13.4355 17.4818 14.9237V14.9219Z" fill="white"/>
</g>
<defs>
<clipPath id="clip0_97_608">
<rect width="23" height="23" fill="white" transform="translate(6 6)"/>
</clipPath>
</defs>
</svg>
