<svg width="28" height="28" viewBox="0 0 28 28" fill="none" xmlns="http://www.w3.org/2000/svg">
<g clip-path="url(#clip0_72_46)">
<path d="M21.0499 4.91003C20.8271 4.89249 20.6032 4.92122 20.392 4.99442C20.1809 5.06763 19.9872 5.18372 19.8231 5.3354C19.659 5.48708 19.5281 5.67107 19.4385 5.8758C19.349 6.08053 19.3027 6.30157 19.3027 6.52503C19.3027 6.74849 19.349 6.96953 19.4385 7.17426C19.5281 7.37899 19.659 7.56298 19.8231 7.71466C19.9872 7.86634 20.1809 7.98243 20.392 8.05563C20.6032 8.12884 20.8271 8.15757 21.0499 8.14003C21.4563 8.10803 21.8357 7.924 22.1124 7.62466C22.3891 7.32532 22.5427 6.93266 22.5427 6.52503C22.5427 6.11739 22.3891 5.72474 22.1124 5.4254C21.8357 5.12606 21.4563 4.94203 21.0499 4.91003Z" fill="white"/>
<path d="M13.8701 7C12.5291 7 11.2183 7.39764 10.1033 8.14264C8.98836 8.88763 8.11935 9.94652 7.60619 11.1854C7.09303 12.4243 6.95876 13.7875 7.22037 15.1027C7.48197 16.4179 8.12771 17.626 9.07591 18.5742C10.0241 19.5224 11.2322 20.1681 12.5474 20.4297C13.8626 20.6913 15.2258 20.5571 16.4647 20.0439C17.7036 19.5307 18.7625 18.6617 19.5075 17.5468C20.2525 16.4318 20.6501 15.121 20.6501 13.78C20.6501 11.9818 19.9358 10.2573 18.6643 8.98582C17.3928 7.71432 15.6683 7 13.8701 7ZM13.8701 18.12C13.0117 18.12 12.1726 17.8655 11.4589 17.3886C10.7452 16.9117 10.1889 16.2339 9.86045 15.4408C9.53197 14.6478 9.44602 13.7752 9.61348 12.9333C9.78094 12.0914 10.1943 11.3181 10.8012 10.7112C11.4082 10.1042 12.1815 9.69085 13.0234 9.52339C13.8653 9.35593 14.7379 9.44188 15.5309 9.77036C16.324 10.0988 17.0018 10.6551 17.4787 11.3688C17.9556 12.0825 18.2101 12.9216 18.2101 13.78C18.2022 14.9268 17.7418 16.024 16.929 16.833C16.1162 17.642 15.0169 18.0974 13.8701 18.1V18.12Z" fill="white"/>
<path d="M19.25 27.52H8.25C6.06094 27.5121 3.9641 26.6376 2.41807 25.0878C0.872033 23.538 0.00262945 21.4391 0 19.25L0 8.25C0.00792985 6.06094 0.882413 3.9641 2.43219 2.41807C3.98198 0.872033 6.08093 0.00262945 8.27 0L19.27 0C21.4625 0.00264639 23.5645 0.874797 25.1149 2.42515C26.6652 3.9755 27.5374 6.07747 27.54 8.27V19.27C27.5321 21.4625 26.6548 23.5624 25.1007 25.109C23.5466 26.6556 21.4425 27.5227 19.25 27.52ZM8.27 2.59C6.76438 2.59264 5.32119 3.19192 4.25655 4.25655C3.19192 5.32119 2.59264 6.76438 2.59 8.27V19.27C2.59264 20.7756 3.19192 22.2188 4.25655 23.2834C5.32119 24.3481 6.76438 24.9474 8.27 24.95H19.27C20.7756 24.9474 22.2188 24.3481 23.2834 23.2834C24.3481 22.2188 24.9474 20.7756 24.95 19.27V8.27C24.9474 6.76438 24.3481 5.32119 23.2834 4.25655C22.2188 3.19192 20.7756 2.59264 19.27 2.59H8.27Z" fill="white"/>
</g>
<defs>
<clipPath id="clip0_72_46">
<rect width="27.52" height="27.52" fill="white"/>
</clipPath>
</defs>
</svg>
