<svg width="75" height="75" viewBox="0 0 75 75" fill="none" xmlns="http://www.w3.org/2000/svg">
<g clip-path="url(#clip0_97_675)">
<path d="M39.8247 57.3627C37.7168 59.352 36.0748 60.9289 34.4039 62.477C32.2204 64.504 30.2589 64.0175 29.1669 61.2028C28.5044 59.4893 27.7764 57.7965 27.1596 56.0643C26.4761 54.1699 25.2784 53.2122 23.1935 53.2557C21.2103 53.3025 19.2191 53.197 17.2373 53.0487C14.491 52.8526 13.5227 51.2186 14.535 48.621C15.2699 46.7723 16.0655 44.9531 16.8926 43.1505C17.6545 41.484 17.4919 40.0447 16.1641 38.7186C14.7114 37.2622 13.2938 35.7623 11.8875 34.2554C10.1269 32.3655 10.5217 30.3452 12.8923 29.3272C14.5738 28.6016 16.291 27.9319 18.0273 27.3497C20.2612 26.6025 21.3819 25.211 21.3055 22.7723C21.256 20.9303 21.3059 19.087 21.4549 17.2506C21.6375 14.5522 23.3634 13.5096 25.8856 14.5467C27.724 15.3006 29.5648 16.0582 31.3582 16.9143C33.0533 17.7229 34.4736 17.4262 35.7806 16.1626C37.2052 14.7873 38.6383 13.4171 40.087 12.0632C42.1959 10.0837 44.1261 10.48 45.2518 13.142C46.0492 15.0424 46.807 16.9629 47.5451 18.8854C48.1808 20.5321 49.3077 21.2883 51.0976 21.2754C53.2287 21.255 55.3678 21.3293 57.494 21.4904C59.913 21.6748 60.912 23.1843 60.0973 25.4669C59.3818 27.4779 58.5546 29.4471 57.6196 31.3656C56.7808 33.0759 57.0685 34.4564 58.3362 35.7789C59.6654 37.1566 60.9458 38.5812 62.2587 39.9745C64.5181 42.3756 64.0862 44.2306 60.963 45.466C59.1875 46.1676 57.4127 46.8757 55.6386 47.5904C53.9384 48.2703 53.1651 49.4666 53.1998 51.3547C53.2461 53.4152 53.1685 55.4765 52.9674 57.5274C52.7151 60.0919 51.2091 60.9942 48.8197 60.0668C46.75 59.2871 44.7874 58.2397 42.7038 57.5371C41.707 57.207 40.5379 57.396 39.8247 57.3627Z" fill="#458764"/>
<path d="M28.9493 45.9002C28.879 45.9383 28.8058 45.946 28.7299 45.9233C28.654 45.9007 28.5971 45.8542 28.559 45.7838L24.8434 38.912C24.8016 38.8346 24.792 38.758 24.8146 38.6821C24.8372 38.6062 24.8837 38.5492 24.9541 38.5112L25.7669 38.0717C25.8654 38.0184 25.9491 38.005 26.0179 38.0314C26.09 38.047 26.1388 38.0616 26.1643 38.0751L31.7613 41.1603L29.2557 36.5263C29.2139 36.4489 29.2008 36.3741 29.2163 36.3021C29.239 36.2262 29.289 36.1673 29.3664 36.1254L30.2531 35.646C30.3305 35.6041 30.4071 35.5945 30.483 35.6171C30.5589 35.6398 30.6178 35.6898 30.6597 35.7672L34.3695 42.6285C34.4114 42.7059 34.421 42.7825 34.3984 42.8584C34.3758 42.9343 34.3293 42.9913 34.2589 43.0293L33.4355 43.4745C33.337 43.5278 33.2533 43.5412 33.1845 43.5148C33.1156 43.4883 33.0668 43.4738 33.0381 43.4711L27.5087 40.4858L29.9629 45.0247C30.001 45.0951 30.0087 45.1683 29.9861 45.2441C29.9635 45.32 29.9134 45.3789 29.836 45.4208L28.9493 45.9002ZM38.4542 40.8974C37.673 41.3197 36.932 41.4294 36.2311 41.2263C35.5301 41.0233 34.9376 40.5161 34.4534 39.7047C34.4083 39.6381 34.3572 39.5521 34.3002 39.4465C34.2393 39.3339 34.1952 39.244 34.168 39.1769C33.9108 38.6339 33.7831 38.1118 33.7849 37.6106C33.7938 37.1056 33.9331 36.6483 34.2028 36.2388C34.4686 35.8222 34.8584 35.475 35.3721 35.1972C35.9421 34.889 36.4853 34.7499 37.0017 34.7799C37.5144 34.8029 37.9833 34.9722 38.4087 35.2879C38.8302 35.5965 39.1894 36.0253 39.4862 36.5742L39.606 36.7959C39.6441 36.8663 39.6518 36.9394 39.6292 37.0153C39.6065 37.0912 39.5565 37.1501 39.4791 37.1919L35.9746 39.0868C35.9746 39.0868 35.9803 39.0974 35.9917 39.1185C36.0031 39.1396 36.0126 39.1572 36.0203 39.1713C36.1605 39.4137 36.3299 39.6177 36.5285 39.7832C36.7303 39.9378 36.9499 40.0328 37.1873 40.0681C37.4317 40.0997 37.6735 40.0508 37.9128 39.9214C38.1099 39.8148 38.26 39.6973 38.3633 39.5687C38.4627 39.4331 38.5338 39.3037 38.5764 39.1806C38.6189 39.0576 38.6445 38.9619 38.6531 38.8936C38.6707 38.7749 38.6934 38.699 38.7209 38.6659C38.7517 38.622 38.8059 38.5791 38.8833 38.5372L39.7911 38.0464C39.8614 38.0083 39.9291 37.999 39.9942 38.0184C40.0663 38.034 40.1159 38.0753 40.1431 38.1425C40.197 38.2589 40.2114 38.4285 40.1863 38.6512C40.1682 38.8701 40.099 39.1122 39.9787 39.3773C39.8583 39.6425 39.6718 39.9116 39.4193 40.1845C39.17 40.4467 38.8482 40.6843 38.4542 40.8974ZM35.4952 38.2001L37.828 36.9388L37.8109 36.9071C37.6625 36.6326 37.4874 36.4181 37.2855 36.2635C37.0837 36.1089 36.8625 36.0193 36.6219 35.9948C36.3813 35.9703 36.1378 36.0246 35.8915 36.1578C35.6452 36.291 35.4664 36.465 35.3552 36.6797C35.2439 36.8945 35.1977 37.1286 35.2166 37.3822C35.2425 37.6319 35.3296 37.894 35.478 38.1685L35.4952 38.2001ZM43.4691 38.0493C43.3706 38.1026 43.2834 38.1179 43.2075 38.0953C43.1316 38.0727 43.0552 38.0322 42.9781 37.9738L38.8203 33.8921C38.7943 33.8607 38.7736 33.8309 38.7584 33.8028C38.7242 33.7395 38.7168 33.6753 38.7361 33.6102C38.7588 33.5343 38.7982 33.4812 38.8545 33.4507L39.6357 33.0284C39.7201 32.9827 39.8003 32.9712 39.8762 32.9938C39.9483 33.0094 39.9992 33.0364 40.0291 33.0748L42.9528 36.0094L42.1785 31.9536C42.1659 31.8967 42.171 31.8303 42.1936 31.7544C42.2124 31.6715 42.2711 31.6034 42.3696 31.5501L42.8974 31.2647C42.9959 31.2115 43.085 31.1997 43.1647 31.2293C43.2406 31.252 43.2989 31.2841 43.3396 31.3257L46.3095 34.1945L45.4548 30.1412C45.439 30.0951 45.4408 30.0396 45.4602 29.9745C45.4828 29.8986 45.5363 29.8379 45.6208 29.7922L46.4019 29.3698C46.4652 29.3356 46.5313 29.3317 46.6002 29.3581C46.6723 29.3737 46.7255 29.4132 46.7597 29.4765C46.7749 29.5047 46.785 29.5401 46.79 29.5829L47.9288 35.297C47.9495 35.3858 47.9451 35.4701 47.9154 35.5498C47.8928 35.6257 47.8322 35.6902 47.7337 35.7435L47.0475 36.1145C46.949 36.1678 46.8583 36.185 46.7754 36.1662C46.6924 36.1474 46.6195 36.1049 46.5565 36.039L43.6551 33.2969L44.3609 37.2261C44.3746 37.3187 44.3666 37.4049 44.337 37.4846C44.3144 37.5605 44.2503 37.627 44.1447 37.6841L43.4691 38.0493Z" fill="white"/>
</g>
<defs>
<clipPath id="clip0_97_675">
<rect width="54" height="54" fill="white" transform="translate(0 29.0291) rotate(-32.5188)"/>
</clipPath>
</defs>
</svg>
