<svg width="266" height="232" viewBox="0 0 266 232" fill="none" xmlns="http://www.w3.org/2000/svg">
<g clip-path="url(#clip0_264_13)">
<path d="M133.098 39.6638C134.834 36.8615 136.313 34.3979 137.869 31.9835C145.761 19.5269 157.487 9.97701 171.278 4.77449C182.926 0.317052 195.065 -1.34903 207.614 1.20198C215.037 2.70964 222.132 4.87282 228.84 8.35792C231.57 9.78365 231.624 9.99669 229.49 12.1271C212.919 28.8461 196.344 45.5615 179.766 62.2733C164.898 77.2844 150.004 92.2918 135.085 107.296C134.452 107.935 133.78 108.525 132.618 109.612C127.329 104.149 122.165 98.6867 116.882 93.3607C106.468 82.8562 95.8568 72.5484 85.5791 61.9128C76.8459 52.8832 61.7812 55.2976 57.2782 68.3367C55.2041 74.3455 56.3449 80.2615 61.2627 85.145C82.7644 106.5 104.202 127.917 125.577 149.396C127.94 151.761 130.123 154.312 132.623 157.01C135.041 154.656 136.99 152.81 138.895 150.909L253.741 35.9438C255.957 33.726 256.197 33.7588 257.638 36.5283C261.148 43.3346 263.342 50.5233 264.81 58.0617C266.564 67.292 266.323 76.7909 264.106 85.9207C261.104 98.8068 254.554 109.836 245.16 119.297C208.765 155.998 172.437 192.766 136.177 229.602C133.038 232.776 133.033 232.787 130.025 229.739C97.0103 196.319 63.9937 162.893 30.9752 129.463C25.3096 123.716 19.6112 117.964 14.3768 111.835C8.72208 105.225 5.22341 97.403 2.75084 89.0289C0.223356 80.5546 -0.574848 71.6581 0.40379 62.8687C2.81086 41.2097 12.9577 24.0136 31.139 11.7119C37.9556 7.04316 45.6016 3.72235 53.6649 1.9285C62.7186 -0.153588 72.092 -0.441234 81.2561 1.0818C93.9124 3.18593 105.754 8.71085 115.501 17.0598C121.805 22.4131 126.717 28.8807 130.713 36.0804C131.106 36.796 131.51 37.5061 131.946 38.1944C132.176 38.5713 132.487 38.8936 133.098 39.6638Z" fill="black"/>
</g>
<defs>
<clipPath id="clip0_264_13">
<rect width="266" height="232" fill="white"/>
</clipPath>
</defs>
</svg>
