<svg width="35" height="34" viewBox="0 0 35 34" fill="none" xmlns="http://www.w3.org/2000/svg">
<ellipse cx="17.5" cy="17" rx="17.5" ry="17" fill="#65B48A"/>
<path d="M19.604 10.0046C22.8274 7.73529 26.6145 9.02984 28.2172 11.9405C29.8748 14.9525 28.8866 19.0323 25.3813 20.7202C25.4922 20.9262 25.6039 21.1296 25.7113 21.3347C26.3936 22.6409 25.6572 23.9838 24.2324 23.9901C21.3828 24.0036 18.5332 23.9901 15.6837 23.9901C13.3635 23.9901 11.0432 23.9973 8.72301 23.9901C7.66 23.9847 6.91839 23.1946 7.00432 22.1581C7.03379 21.8775 7.11864 21.6063 7.25353 21.3616C9.83557 16.5495 12.4251 11.7417 15.022 6.93796C15.7052 5.67567 17.2511 5.68373 17.9489 6.93796C18.5083 7.9503 19.0437 8.96713 19.604 10.0046ZM28.1424 15C28.1345 13.6049 27.5994 12.2694 26.6532 11.2829C25.707 10.2965 24.4259 9.73864 23.0878 9.73041C20.3258 9.73041 18.0374 12.1072 18.0245 14.9973C18.0116 17.8874 20.3293 20.3036 23.1067 20.2892C24.4447 20.2756 25.7237 19.7127 26.6663 18.7226C27.6089 17.7325 28.1393 16.395 28.1424 15ZM16.482 23.0987H21.724C22.5687 23.0987 23.4135 23.0987 24.2582 23.0987C24.6243 23.0987 24.895 22.9581 25.0488 22.6051C25.1846 22.2942 24.8202 21.1851 24.528 21.0436C24.447 21.0185 24.3607 21.0185 24.2797 21.0436C22.5215 21.4154 20.9386 20.9934 19.4949 19.9139C19.3734 19.8173 19.2278 19.7594 19.0755 19.7472C15.8409 19.7383 12.6061 19.7383 9.37095 19.7472C9.29904 19.7529 9.22916 19.7747 9.16612 19.8112C9.10307 19.8477 9.04835 19.898 9.00573 19.9587C8.64481 20.5858 8.29678 21.2192 7.97452 21.866C7.67118 22.4707 8.01491 23.0557 8.67145 23.0898C8.79949 23.0969 8.92925 23.0898 9.05729 23.0898L16.482 23.0987ZM9.61844 18.811H18.4198C17.7106 17.8374 17.2796 16.6747 17.1763 15.4569C15.5977 15.4569 14.0509 15.5151 12.511 15.4336C11.6869 15.3897 11.2082 15.6217 10.8782 16.4253C10.5483 17.2289 10.0619 17.9842 9.61844 18.811ZM17.1153 14.5395C17.2803 13.9043 17.3843 13.3148 17.588 12.7656C17.7916 12.2165 18.0915 11.7237 18.3614 11.1755C16.8618 11.1755 15.4027 11.1755 13.9435 11.1808C13.8899 11.1813 13.8371 11.1936 13.7884 11.2171C13.7398 11.2406 13.6966 11.2747 13.6616 11.317C13.079 12.3706 12.5101 13.4331 11.912 14.5422L17.1153 14.5395ZM18.6561 10.25C18.6647 10.2187 18.6879 10.1819 18.6785 10.1604C18.1577 9.18393 17.6567 8.19488 17.1016 7.23987C16.836 6.78387 16.1623 6.76953 15.8908 7.22285C15.3116 8.19129 14.7934 9.20095 14.2202 10.2464L18.6561 10.25Z" fill="white" stroke="white" stroke-width="0.3"/>
<path d="M22.6356 15.637L24.3165 13.7789C24.4024 13.6813 24.4884 13.5819 24.5829 13.4887C24.7857 13.2826 25.0126 13.2307 25.2222 13.4537C25.4113 13.6544 25.3941 13.8873 25.2119 14.0907C24.4918 14.897 23.7688 15.7003 23.0429 16.5006C22.8161 16.7515 22.5677 16.747 22.3323 16.506C21.9662 16.1303 21.6027 15.7514 21.2418 15.3691C21.0467 15.1622 20.996 14.914 21.2005 14.6954C21.4274 14.4526 21.668 14.5351 21.87 14.7599C22.1217 15.0421 22.3666 15.3297 22.6356 15.637Z" fill="white" stroke="white" stroke-width="0.3"/>
</svg>
