<svg width="34" height="34" viewBox="0 0 34 34" fill="none" xmlns="http://www.w3.org/2000/svg">
<circle cx="17" cy="17" r="17" fill="#E2643A"/>
<g clip-path="url(#clip0_97_628)">
<path d="M6 16.9901C6 10.9377 10.948 5.99917 17.0099 6.00003C23.0718 6.00089 28.0052 10.9532 28 17.052C27.9957 23.0821 23.0253 28.0052 16.9471 28.0009C10.9334 28 5.99914 23.0314 6 16.9901ZM18.9351 10.5527C18.9351 11.4319 18.9489 12.2476 18.9282 13.0623C18.9114 13.3759 19.0164 13.6839 19.2213 13.9218C20.4589 15.4422 21.6846 16.9721 22.917 18.4985C23.0331 18.6429 23.1474 18.7899 23.2669 18.9283C23.6657 19.4053 23.9991 19.9063 24.067 20.5535C24.149 21.2353 23.9615 21.9221 23.5445 22.4676L24.3077 23.3692C27.902 19.358 27.3605 12.9231 23.2084 9.52731C18.9059 6.00862 13.2987 7.08812 10.7348 9.65881L14.8509 13.7748C15.0847 13.5308 15.2084 11.4173 14.9935 10.5501C14.8036 10.5501 14.6051 10.5621 14.4082 10.5501C14.2416 10.5463 14.0831 10.4771 13.967 10.3574C13.8509 10.2378 13.7865 10.0773 13.7877 9.91065C13.7852 9.82773 13.7993 9.74515 13.8294 9.66782C13.8594 9.59048 13.9046 9.51997 13.9624 9.46048C14.0202 9.40099 14.0894 9.35373 14.1659 9.32151C14.2423 9.28928 14.3244 9.27276 14.4074 9.27291C16.1389 9.2626 17.8711 9.2626 19.6038 9.27291C19.6867 9.2733 19.7687 9.29041 19.8449 9.32324C19.921 9.35607 19.9898 9.40394 20.047 9.46396C20.1042 9.52399 20.1487 9.59495 20.1778 9.67259C20.207 9.75023 20.2202 9.83294 20.2166 9.9158C20.2164 10.0825 20.1507 10.2424 20.0336 10.3611C19.9166 10.4797 19.7575 10.5476 19.5909 10.5501C19.3915 10.563 19.193 10.5527 18.9351 10.5527ZM23.3606 24.3043C22.8706 23.7439 22.4478 23.1096 21.5642 23.4448C21.5219 23.4522 21.4785 23.4522 21.4362 23.4448C18.4727 23.4448 15.5092 23.4448 12.5458 23.4448C11.4568 23.4448 10.6369 22.9472 10.171 21.9734C9.71378 21.0168 9.83497 20.0825 10.4985 19.2368C11.0743 18.5063 11.6631 17.7869 12.2449 17.0615C12.8268 16.3361 13.3984 15.6201 13.9072 14.9841L9.63643 10.7039C6.42113 14.3051 6.40653 20.1805 10.1865 23.9081C13.9536 27.621 19.7722 27.5247 23.3606 24.3043ZM21.2651 22.1556C20.2114 21.107 19.2574 20.1427 18.2793 19.2024C18.1055 19.0467 17.8833 18.9556 17.6502 18.9446C16.3472 18.9214 15.0382 19.0082 13.743 18.9085C12.7262 18.8311 12.0395 19.1371 11.5161 20C11.2316 20.4693 11.1027 20.9136 11.3313 21.4096C11.5711 21.9252 12.0094 22.1573 12.5775 22.1565C14.1384 22.1565 15.6995 22.1565 17.2609 22.1565L21.2651 22.1556ZM15.6785 14.7908C16.6171 15.7198 17.5101 16.6068 18.4074 17.4912C18.4614 17.5572 18.5358 17.6034 18.6188 17.6227C19.2359 17.633 19.8539 17.6279 20.5587 17.6279C19.6777 16.5295 18.8801 15.5033 18.0455 14.5097C17.7623 14.1867 17.617 13.7655 17.6407 13.3365C17.6622 12.4238 17.6468 11.511 17.6468 10.5862H16.3575C16.3575 11.3039 16.3472 11.9906 16.3575 12.6773C16.3739 13.4525 16.4589 14.2433 15.6751 14.7933L15.6785 14.7908ZM20.0619 18.9601L22.6025 21.5101C22.7323 21.307 22.7997 21.0702 22.7964 20.8292C22.793 20.5881 22.719 20.3533 22.5836 20.1539C21.8032 18.9618 21.388 18.7727 20.0619 18.9626V18.9601ZM13.4654 17.603H16.5595L14.8406 15.884L13.4654 17.603Z" fill="white"/>
</g>
<defs>
<clipPath id="clip0_97_628">
<rect width="22" height="22" fill="white" transform="translate(6 6)"/>
</clipPath>
</defs>
</svg>
