<svg width="206" height="201" viewBox="0 0 206 201" fill="none" xmlns="http://www.w3.org/2000/svg">
<path d="M176.883 102.793C184.583 122.128 176.648 135.283 160.694 145.834C162.734 147.421 164.735 148.876 166.605 150.49C167.481 151.219 168.833 152.723 168.62 153.091C167.994 154.156 166.802 155.308 165.639 155.574C159.892 156.875 154.136 158.474 148.296 158.952C128.022 160.649 107.945 159.126 88.4685 152.917C68.0146 146.396 48.6539 137.608 32.5187 123.016C21.6658 113.204 14.7553 100.966 12.2287 86.5424C11.4752 82.2603 10.33 78.4733 7.98947 74.7844C4.98645 70.0542 6.86839 64.4 11.589 61.2138C15.0358 58.8908 17.9769 55.7495 21.5652 53.707C32.2332 47.6121 43.8369 43.3256 55.9054 41.0216C92.8705 33.9416 125.829 43.6346 155.97 64.9038C165.577 71.681 174.698 79.1346 181.763 88.6686C184.48 92.4815 186.886 96.507 188.957 100.706C190.469 103.645 189.459 104.755 186.235 104.271C183.012 103.787 179.975 103.287 176.883 102.793ZM163.657 153.254L163.803 152.46C160.992 150.326 158.222 148.141 155.365 146.072C141.93 136.311 128.842 126.005 114.924 116.981C97.9255 105.96 80.2163 96.035 62.8571 85.5701C61.5871 84.809 59.1684 84.2964 60.1491 82.1787C60.5117 81.401 62.8738 81.1375 64.234 81.3214C79.4798 83.3714 94.7699 85.3118 109.955 87.8074C134.079 91.7689 158.132 96.1123 182.203 100.312C183.083 100.461 183.986 100.503 185.642 100.675C184.223 98.2641 183.28 96.4397 182.139 94.7387C176.074 85.5415 167.944 78.3656 159.398 71.5872C142.547 58.2235 123.643 49.0543 102.672 44.432C83.2645 40.1398 63.9104 41.5159 44.9263 47.206C34.5716 50.3117 24.4161 54.0081 16.4845 61.9081C15.7016 62.6026 14.8329 63.1938 13.8996 63.6673C9.18441 66.3576 8.50903 71.3245 12.5505 75.3991C12.7964 74.4665 12.8428 73.5447 13.2756 72.8791C13.7084 72.2134 14.4957 71.9025 15.1294 71.4297C15.5224 72.1028 16.1379 72.7385 16.2495 73.4571C16.3806 74.2753 16.0299 75.1615 15.9427 76.0268C15.6526 79.0376 14.6919 82.1795 15.2255 85.0455C17.7644 98.6417 23.7579 110.536 33.9926 120.054C43.3764 128.809 54.3864 135.043 65.8746 140.637C92.9892 153.838 121.539 158.364 151.393 155.376C155.547 154.949 159.594 153.949 163.681 153.244L163.657 153.254ZM70.5551 85.3264L70.2779 86.0112L84.5777 94.5046C102.135 104.954 119.897 115.072 136.189 127.504C142.613 132.407 149.082 137.252 155.596 142.037C156.332 142.582 157.667 143.191 158.293 142.886C164.663 139.749 169.941 135.374 173.214 128.892C175.319 124.715 175.29 124.137 172.155 120.609C167.795 115.676 161.839 113.752 155.779 111.997C154.974 111.771 154.423 110.631 153.761 109.913C154.639 109.575 155.606 108.802 156.375 108.97C163.021 110.369 169.198 112.801 174.058 117.817C174.7 118.475 175.332 119.149 176.314 120.169C177.458 113.295 175.962 107.609 172.045 102.596C171.456 101.836 170.101 101.491 169.043 101.31C142.647 96.8243 116.248 92.3747 89.8443 87.9608C83.4438 86.9285 76.9748 86.2031 70.5551 85.3264Z" fill="white" fill-opacity="0.25"/>
<path d="M171.889 89.817C170.883 89.3508 169.911 88.8149 168.98 88.213C162.627 83.5296 156.504 78.4533 149.911 74.1153C143.186 69.68 136.004 65.9322 129.023 61.8834C128.497 61.5788 127.805 61.4065 127.494 60.9539C127.183 60.5013 126.818 59.6122 127.018 59.1472C127.218 58.6823 128.162 58.3788 128.689 58.4846C129.873 58.7401 131.021 59.1418 132.106 59.6804C144.139 65.5147 155.007 73.1414 165.476 81.3914C167.725 83.1621 170.016 84.8863 172.299 86.6194C173.601 87.6166 173.445 88.5735 171.889 89.817Z" fill="white" fill-opacity="0.25"/>
<path d="M27.7696 96.6657C25.0915 90.8707 23.8592 84.5126 24.1786 78.1367C24.1442 77.4418 24.2886 76.7497 24.5978 76.1264C24.7734 75.8545 25.0085 75.6261 25.2855 75.4585C25.5625 75.291 25.874 75.1888 26.1965 75.1596C26.6428 75.2088 27.1177 75.9948 27.3562 76.5575C27.5014 77.058 27.5306 77.585 27.4418 78.0985C26.6277 90.0348 31.871 99.6766 39.3382 108.274C42.147 111.515 45.8101 114.013 49.0822 116.848C49.7782 117.361 50.4192 117.945 50.995 118.591C51.2911 118.981 51.4574 119.91 51.2211 120.169C50.7417 120.615 50.1063 120.856 49.4514 120.839C48.9124 120.812 48.3635 120.347 47.8627 120.009C38.6236 113.791 31.6387 105.676 27.7696 96.6657Z" fill="white" fill-opacity="0.25"/>
<path d="M118.823 58.5122C117.807 58.2738 116.804 57.981 115.819 57.635C103.611 52.2544 90.3788 49.5913 77.0396 49.8301C76.6062 49.8481 76.172 49.8427 75.7391 49.8138C74.4165 49.6651 72.5177 50.0442 72.5395 48.0605C72.5692 45.9884 74.4977 46.5896 75.7709 46.555C89.6285 46.0885 103.415 48.7299 116.119 54.2854C116.907 54.6322 117.946 54.8498 118.378 55.4668C118.81 56.0839 118.663 57.1561 118.823 58.5122Z" fill="white" fill-opacity="0.25"/>
<path d="M35.7816 94.8989C35.0396 91.8091 34.234 88.6896 33.6754 85.5505C33.556 84.8805 34.3832 84.0477 34.7773 83.2907C35.3888 83.8769 36.4061 84.3763 36.5522 85.069C37.7079 90.4742 39.5818 95.5523 42.7047 100.164C43.0218 100.631 42.6613 101.561 42.6138 102.279C41.8384 102.176 40.6776 102.356 40.3584 101.924C38.7335 99.6962 37.322 97.3156 35.7816 94.8989Z" fill="white" fill-opacity="0.25"/>
<path d="M57.4759 125.489C57.5839 125.075 57.5656 124.362 57.9196 124.019C58.1359 123.845 58.3902 123.725 58.6619 123.668C58.9336 123.611 59.2149 123.619 59.4828 123.692C63.2725 125.592 67.0379 127.542 70.737 129.617C71.1826 129.865 71.4228 130.995 71.2709 131.587C71.1727 131.958 69.9681 132.462 69.58 132.269C65.7067 130.359 61.9025 128.317 58.0831 126.293C57.8936 126.181 57.7809 125.888 57.4759 125.489Z" fill="white" fill-opacity="0.25"/>
<path d="M140.801 123.898C140.992 123.346 141.04 122.481 141.468 122.192C141.895 121.903 142.786 122.036 143.337 122.279C146.352 123.623 149.252 125.231 152.323 126.414C155.144 127.488 158.172 128.072 161.038 129.064C161.828 129.337 162.378 130.312 163.036 130.969C162.276 131.371 161.437 132.215 160.769 132.112C154.241 131.031 147.973 128.74 142.287 125.357C141.741 124.925 141.243 124.436 140.801 123.898Z" fill="white" fill-opacity="0.25"/>
<path d="M131.023 106.062C130.536 106.02 130.052 105.942 129.575 105.83C126.774 104.912 123.941 104.076 121.213 102.968C120.528 102.691 120.218 101.517 119.713 100.767C120.524 100.525 121.45 99.9118 122.135 100.109C125.046 100.953 127.9 101.984 130.722 103.075C131.001 103.233 131.241 103.451 131.424 103.715C131.607 103.978 131.729 104.279 131.78 104.595C131.865 105.036 131.305 105.574 131.023 106.062Z" fill="white" fill-opacity="0.25"/>
</svg>
