<svg width="157" height="153" viewBox="0 0 157 153" fill="none" xmlns="http://www.w3.org/2000/svg">
<path d="M134.791 78.2193C140.616 92.8467 134.614 102.799 122.544 110.781C124.087 111.981 125.601 113.082 127.016 114.303C127.679 114.854 128.701 115.992 128.54 116.27C128.066 117.076 127.165 117.948 126.285 118.149C121.937 119.133 117.583 120.343 113.165 120.704C97.8277 121.988 82.6386 120.836 67.9046 116.139C52.431 111.206 37.7843 104.557 25.5779 93.5183C17.3675 86.0953 12.1396 76.8376 10.2282 65.9255C9.65814 62.6861 8.7918 59.8212 7.02116 57.0304C4.74933 53.452 6.17305 49.1746 9.74428 46.7641C12.3518 45.0068 14.5768 42.6303 17.2913 41.0851C25.3619 36.4742 34.1402 33.2315 43.2702 31.4885C71.2348 26.1324 96.168 33.4652 118.971 49.5556C126.238 54.6827 133.139 60.3215 138.483 67.534C140.539 70.4186 142.359 73.4639 143.926 76.6406C145.07 78.8642 144.305 79.7033 141.866 79.3374C139.428 78.9715 137.13 78.5931 134.791 78.2193ZM124.786 116.394L124.896 115.793C122.77 114.179 120.674 112.526 118.513 110.961C108.349 103.576 98.4476 95.7792 87.9189 88.9524C75.059 80.6153 61.6617 73.1068 48.5292 65.19C47.5685 64.6142 45.7387 64.2264 46.4806 62.6244C46.7549 62.036 48.5419 61.8367 49.5709 61.9758C61.1045 63.5267 72.6717 64.9946 84.1593 66.8826C102.409 69.8795 120.606 73.1653 138.816 76.3421C139.482 76.4548 140.165 76.4872 141.418 76.6174C140.344 74.7931 139.631 73.413 138.768 72.1262C134.18 65.1684 128.029 59.7397 121.564 54.6117C108.816 44.5019 94.5146 37.5653 78.6496 34.0685C63.9677 30.8214 49.3261 31.8624 34.9643 36.1671C27.1309 38.5165 19.4481 41.3129 13.4478 47.2894C12.8555 47.8148 12.1983 48.262 11.4923 48.6202C7.92515 50.6554 7.41421 54.413 10.4716 57.4955C10.6577 56.79 10.6928 56.0926 11.0202 55.5891C11.3476 55.0855 11.9432 54.8503 12.4226 54.4926C12.7199 55.0018 13.1855 55.4827 13.27 56.0264C13.3692 56.6453 13.1039 57.3157 13.0379 57.9704C12.8185 60.2481 12.0916 62.6249 12.4953 64.7931C14.416 75.0789 18.9502 84.0769 26.6929 91.2774C33.7918 97.9009 42.1211 102.617 50.812 106.849C71.3246 116.836 92.923 120.26 115.508 117.999C118.65 117.676 121.712 116.919 124.804 116.386L124.786 116.394ZM54.3529 65.0056L54.1432 65.5237L64.9612 71.949C78.2431 79.854 91.6807 87.5085 104.006 96.9134C108.866 100.623 113.759 104.288 118.687 107.908C119.244 108.32 120.255 108.781 120.728 108.55C125.547 106.177 129.539 102.867 132.016 97.9637C133.608 94.8037 133.586 94.3666 131.214 91.6974C127.916 87.9659 123.411 86.5101 118.826 85.1821C118.217 85.011 117.8 84.1489 117.3 83.6057C117.964 83.3499 118.695 82.7655 119.277 82.8924C124.305 83.9507 128.977 85.7907 132.654 89.585C133.14 90.0831 133.618 90.5931 134.361 91.3641C135.226 86.1644 134.095 81.8625 131.131 78.0705C130.686 77.4953 129.661 77.2343 128.86 77.0971C108.892 73.704 88.9199 70.3378 68.9454 66.9986C64.1033 66.2176 59.2095 65.6689 54.3529 65.0056Z" fill="#EBEBEB"/>
<path d="M131.013 68.4027C130.252 68.05 129.517 67.6445 128.812 67.1892C124.006 63.6461 119.374 59.8059 114.387 56.5241C109.299 53.1687 103.866 50.3335 98.5845 47.2705C98.1864 47.04 97.6633 46.9097 97.4281 46.5673C97.1928 46.2249 96.9164 45.5523 97.0678 45.2006C97.2192 44.8488 97.9331 44.6193 98.3318 44.6992C99.2277 44.8926 100.096 45.1965 100.917 45.6039C110.02 50.0176 118.242 55.7874 126.162 62.0286C127.863 63.3681 129.596 64.6725 131.323 65.9836C132.308 66.738 132.19 67.462 131.013 68.4027Z" fill="#EBEBEB"/>
<path d="M21.985 73.5839C19.959 69.1999 19.0267 64.3898 19.2684 59.5664C19.2423 59.0407 19.3515 58.5171 19.5855 58.0456C19.7183 57.8399 19.8962 57.6671 20.1057 57.5404C20.3153 57.4136 20.551 57.3363 20.7949 57.3142C21.1326 57.3514 21.4918 57.946 21.6722 58.3717C21.7821 58.7504 21.8042 59.1491 21.737 59.5375C21.1211 68.5675 25.0878 75.8616 30.7368 82.3655C32.8617 84.8173 35.6329 86.7077 38.1083 88.8521C38.6348 89.2404 39.1197 89.6822 39.5553 90.1704C39.7793 90.4661 39.9051 91.1682 39.7263 91.3641C39.3637 91.7019 38.883 91.884 38.3876 91.8713C37.9798 91.851 37.5645 91.499 37.1857 91.2432C30.1962 86.5392 24.912 80.4 21.985 73.5839Z" fill="#EBEBEB"/>
<path d="M90.8685 44.7202C90.0996 44.5398 89.3408 44.3183 88.5956 44.0566C79.3599 39.9861 69.3499 37.9714 59.2586 38.1521C58.9307 38.1657 58.6023 38.1616 58.2748 38.1398C57.2742 38.0272 55.8378 38.3141 55.8543 36.8134C55.8767 35.2458 57.3356 35.7006 58.2988 35.6744C68.7823 35.3215 79.2118 37.3197 88.8224 41.5226C89.4186 41.785 90.2052 41.9495 90.5317 42.4164C90.8583 42.8832 90.7471 43.6943 90.8685 44.7202Z" fill="#EBEBEB"/>
<path d="M28.0462 72.2473C27.4849 69.9099 26.8755 67.5499 26.4529 65.1751C26.3626 64.6682 26.9883 64.0382 27.2864 63.4655C27.7491 63.909 28.5187 64.2868 28.6292 64.8109C29.5035 68.9 30.9212 72.7416 33.2837 76.2302C33.5235 76.5835 33.2508 77.2871 33.2149 77.8303C32.6283 77.7526 31.7501 77.8887 31.5086 77.5618C30.2794 75.8765 29.2116 74.0756 28.0462 72.2473Z" fill="#EBEBEB"/>
<path d="M44.4583 95.3894C44.54 95.0758 44.5262 94.5366 44.794 94.2772C44.9576 94.1455 45.15 94.0545 45.3556 94.0114C45.5611 93.9683 45.7739 93.9744 45.9766 94.0293C48.8435 95.467 51.6921 96.9425 54.4905 98.5122C54.8276 98.6999 55.0094 99.5543 54.8944 100.002C54.8201 100.283 53.9089 100.664 53.6152 100.518C50.685 99.0733 47.8071 97.5286 44.9177 95.9974C44.7743 95.9123 44.6891 95.6908 44.4583 95.3894Z" fill="#EBEBEB"/>
<path d="M107.495 94.1859C107.64 93.7682 107.676 93.1135 107.999 92.8948C108.323 92.6761 108.997 92.7769 109.414 92.9607C111.694 93.9773 113.888 95.1938 116.212 96.089C118.346 96.9015 120.636 97.3431 122.804 98.094C123.402 98.2999 123.818 99.038 124.316 99.5351C123.741 99.8389 123.106 100.477 122.601 100.399C117.663 99.5814 112.921 97.8483 108.619 95.289C108.206 94.9622 107.829 94.5924 107.495 94.1859Z" fill="#EBEBEB"/>
<path d="M100.098 80.6923C99.7289 80.6603 99.3627 80.6018 99.0021 80.5171C96.8835 79.8224 94.7399 79.1899 92.6764 78.3518C92.1583 78.1421 91.9237 77.2543 91.5415 76.6866C92.1551 76.5038 92.8555 76.0396 93.3738 76.1891C95.5756 76.827 97.7348 77.6075 99.8699 78.4324C100.081 78.552 100.262 78.7174 100.401 78.9164C100.54 79.1155 100.632 79.3431 100.671 79.5825C100.735 79.9159 100.311 80.3231 100.098 80.6923Z" fill="#EBEBEB"/>
</svg>
