<svg width="227" height="232" viewBox="0 0 227 232" fill="none" xmlns="http://www.w3.org/2000/svg">
<g clip-path="url(#clip0_263_2)">
<path d="M114.06 161.59L130.89 174.59C122.4 185.59 113.52 194.59 99.89 196.8C85.89 199.08 75.42 191.47 64.89 183.02C60.97 186.75 57.23 190.5 53.28 194.02C41.6 204.43 29.93 214.88 18.03 225.02C15.03 227.56 11.32 229.31 7.73003 230.97C4.14003 232.63 1.33999 230.73 0.24999 227.39C-0.92001 223.82 1.25004 221.91 4.74004 221.02C6.68015 220.625 8.5099 219.81 10.1 218.63C25.99 204.98 41.78 191.2 57.96 177.14C47.53 166.74 38.26 156.76 39.7 141.74C40.93 128.92 48.35 119.39 57.15 110.74C73.15 122.12 88.15 140.49 72.68 166.94C74.23 165.94 74.99 165.58 75.68 165.06C86.08 156.74 97.61 155.52 109.99 159.58L114.06 161.59Z" fill="black"/>
<path d="M177.11 94.61L192.46 107.01C183.91 117.85 174.8 126.87 161.09 129.24C152.27 130.76 143.96 128.09 137.09 122.9C127.99 116 118.91 108.75 111.25 100.35C97.9199 85.73 97.6 70.87 108.85 54.53C111.65 50.47 115.06 46.82 118.14 43.03C139.14 57.34 148.14 76.53 134.46 98.5C134.72 98.56 135.1 98.76 135.23 98.66C145.91 89.79 157.84 87.32 171.1 91.66L177.11 94.61Z" fill="black"/>
<path d="M177.11 94.61L171.11 91.61C162.41 83.92 152.91 76.95 145.2 68.38C131.71 53.38 131.48 38.7 143.02 22.12C145.75 18.19 149.02 14.63 152.02 10.95C171.1 23.64 182.9 43.28 168.52 66.71C177.43 60.09 186.96 55.57 198.34 58.11C209.34 60.57 217.85 67.01 225.56 74.72C217.31 92.22 197.09 100.46 177.11 94.61Z" fill="black"/>
<path d="M114.06 161.59L109.96 159.59C100.9 152.1 91.2001 145.24 82.9001 136.98C67.3301 121.49 66.5201 105.09 79.3101 87.25C81.2501 84.56 83.51 82.09 85.7 79.59C86.5658 78.7258 87.4914 77.9238 88.4701 77.19C97.4701 83.78 104.88 91.54 108.74 102.01C112.74 113.01 109.53 123.13 103.37 133.44C126.65 119.23 146.37 122.25 161.01 141.58C150.31 159.09 135.22 165.52 114.06 161.59Z" fill="black"/>
<path d="M179.88 51.26C174.88 19.02 188.88 -1.18 224.73 0.0499982C231.28 32.48 214.53 52.79 179.88 51.26Z" fill="black"/>
</g>
<defs>
<clipPath id="clip0_263_2">
<rect width="226.12" height="231.56" fill="white"/>
</clipPath>
</defs>
</svg>
