<svg width="116" height="16" viewBox="0 0 116 16" fill="none" xmlns="http://www.w3.org/2000/svg">
<g clip-path="url(#clip0_97_824)">
<path d="M12.0663 15.8612C11.0979 15.7404 10.2714 15.179 9.5414 14.6357C8.46448 13.8389 7.60473 13.9053 6.57607 14.6357C5.91196 15.0847 5.19707 15.4535 4.44634 15.7344C3.27892 16.1901 2.60024 15.662 2.69074 14.3943C2.75409 13.4888 2.7601 12.5652 3.04667 11.7351C3.44486 10.5852 3.04669 9.85173 2.23523 9.12733C1.60227 8.55994 1.0152 7.94328 0.479551 7.28315C-0.359061 6.26296 -0.0815611 5.41784 1.20652 5.08885C1.9689 4.84929 2.76071 4.71624 3.55948 4.69345C4.95314 4.73269 5.48404 3.84833 5.9486 2.79796C6.25026 2.11281 6.53386 1.41558 6.90189 0.763632C7.48409 -0.268626 8.67558 -0.244487 9.25477 0.784753C9.38442 1.00131 9.4858 1.2336 9.55643 1.47595C10.202 3.86644 11.7254 5.02245 14.2352 4.95604C14.9622 4.93492 15.7435 5.11903 16.0451 6.00339C16.3257 6.8123 15.7435 7.29221 15.279 7.63629C13.0437 9.2541 12.4313 11.2884 13.3152 13.8902C13.653 14.9013 13.5142 15.843 12.0663 15.8612Z" fill="#FCC219"/>
<path d="M52.7299 14.0985C52.7139 13.8261 52.7424 13.5528 52.8144 13.2896C53.9094 10.8568 52.6787 9.22393 50.929 7.79326C50.2956 7.27713 49.8401 6.75195 50.1025 5.88871C50.3649 5.02548 51.1915 5.15225 51.828 4.95003C51.8759 4.9359 51.926 4.93078 51.9758 4.93493C54.4343 5.04359 55.8461 3.76383 56.5519 1.52124C56.7842 0.78779 57.0829 0.08151 58.018 0.0332172C59.098 -0.0211122 59.3725 0.884378 59.5746 1.59066C60.2292 3.87853 61.65 4.96512 64.0361 4.95003C64.7963 4.95003 65.7133 5.02246 65.9878 6.00341C66.2352 6.89079 65.5957 7.37071 65.0014 7.8476C64.8868 7.93815 64.8295 8.10113 64.6998 8.18564C62.9471 9.45333 62.4162 11.0742 63.1674 13.1326C63.3105 13.6148 63.3646 14.1191 63.3272 14.6207C63.3061 15.6831 62.6032 16.1509 61.6228 15.8008C61.5277 15.7686 61.4382 15.7217 61.3574 15.662C59.1704 13.9023 57.0527 13.9114 54.7209 15.5593C53.5233 16.4045 52.6696 15.6982 52.7299 14.0985Z" fill="#FCC219"/>
<path d="M102.633 14.512C102.641 14.4103 102.656 14.3094 102.679 14.2101C103.632 11.3729 102.917 9.14241 100.477 7.31936C99.4872 6.57988 99.8944 5.41783 101.107 5.07676C101.737 4.90697 102.386 4.81773 103.038 4.81116C104.679 4.78701 105.52 3.8785 106.081 2.43274C106.462 1.46386 106.6 0.0844991 108 0.0180966C109.4 -0.048306 109.529 1.42764 109.81 2.26371C110.48 4.32521 111.949 4.79003 113.798 4.93189C114.609 4.99225 115.608 4.85945 115.934 5.94C116.259 7.02055 115.493 7.53969 114.827 8.02865C112.926 9.42009 112.413 11.1616 113.176 13.3771C113.43 14.1135 113.68 15.0492 112.935 15.6197C112.133 16.2233 111.222 15.8068 110.588 15.2514C108.658 13.5582 106.926 14.192 105.068 15.4084C103.638 16.3411 102.658 15.8974 102.633 14.512Z" fill="#FCC219"/>
<path d="M88.3257 14.4033C88.3257 15.6106 87.6923 16.0966 86.6908 15.7977C86.5934 15.774 86.5006 15.7342 86.4162 15.68C84.1507 13.9807 82.006 13.7061 79.6018 15.6498C78.5098 16.5342 77.5263 15.6498 77.6771 14.1407C77.686 13.936 77.7205 13.7332 77.7797 13.537C78.6576 11.1496 77.9094 9.28727 75.9698 7.80227C75.3665 7.33141 74.7963 6.79114 75.0648 5.91282C75.3333 5.03449 76.2382 4.96205 76.929 4.96809C79.3061 4.9862 80.748 3.90867 81.4388 1.64796C81.659 0.92357 81.8823 0.0452465 82.9471 0.0271367C84.012 0.00902688 84.19 0.869244 84.5429 1.56647C84.6863 1.77153 84.8039 1.99355 84.8929 2.22747C85.3303 4.28293 86.8537 4.79001 88.6636 4.92583C89.163 4.92522 89.6591 5.00575 90.1327 5.16428C91.0135 5.54458 91.2971 6.2237 90.7209 7.0809C90.5131 7.42381 90.243 7.72478 89.9245 7.96828C87.8129 9.41103 87.4599 11.3548 88.2262 13.6517C88.2897 13.8973 88.3231 14.1497 88.3257 14.4033Z" fill="#FCC219"/>
<path d="M38.2504 13.5371C38.362 15.8249 37.6471 16.2898 36.006 15.502C35.773 15.4096 35.5521 15.2889 35.3484 15.1428C33.7586 13.8147 32.2021 13.9053 30.6214 15.17C30.2582 15.4413 29.8496 15.6457 29.4147 15.7736C28.3167 16.1207 27.6621 15.6197 27.6983 14.4607C27.698 13.96 27.7785 13.4627 27.9366 12.9877C28.8205 10.6486 27.5384 9.13035 25.9577 7.75401C25.3544 7.23788 24.7873 6.79117 25.095 5.90077C25.3785 5.08583 26.1418 5.08583 26.8115 4.94699C27.1538 4.86713 27.5037 4.82463 27.8552 4.82022C29.5897 4.82022 30.6365 3.99018 31.1101 2.33314C31.2873 1.81229 31.5284 1.3155 31.828 0.854173C32.5037 -0.295799 33.5475 -0.283725 34.2232 0.854173C34.2527 0.894782 34.2761 0.939534 34.2926 0.986979C35.0437 3.72458 36.7662 5.14921 39.6802 5.02546C39.9592 4.9998 40.2381 5.07485 40.4666 5.23704C40.6951 5.39924 40.8581 5.63788 40.9261 5.90982C41.0295 6.19771 41.0356 6.51159 40.9435 6.80328C40.8514 7.09498 40.6661 7.34839 40.4162 7.52461C38.0754 9.17864 37.2428 11.2854 38.2504 13.5371Z" fill="#FCC219"/>
</g>
<defs>
<clipPath id="clip0_97_824">
<rect width="116" height="16" fill="white"/>
</clipPath>
</defs>
</svg>
