<svg width="243" height="215" viewBox="0 0 243 215" fill="none" xmlns="http://www.w3.org/2000/svg">
<path d="M47.5063 215C34.7232 213.818 21.9214 212.776 9.16619 211.381C1.39768 210.534 0.709151 209.204 0.262578 201.277C-1.82143 164.063 8.58921 130.477 28.3036 99.1143C51.73 61.8999 82.0133 32.4167 122.019 13.5211C137.202 6.35733 152.879 0.496046 169.951 0.0215624C185.944 -0.415707 195.229 5.78053 201.323 20.1732C202.015 21.2781 203.109 22.0717 204.374 22.3875C213.129 24.9181 218.916 30.2304 221.177 39.2456C221.616 40.4947 222.519 41.5272 223.698 42.1297C237.653 49.1353 243.636 60.7369 241.691 76.6926C239.514 94.6021 231.773 110.186 221.344 124.457C202.039 150.917 179.394 174.018 149.781 188.792C117.721 204.794 83.9486 215 47.5063 215ZM172.631 60.7276C180.204 59.5461 187.293 58.8669 194.168 57.2574C201.695 55.5176 208.57 51.9635 213.055 45.4231C214.46 43.3763 215.139 39.6363 214.246 37.4407C212.031 32.0446 207.677 28.4348 201.481 28.044C197.881 27.8207 196.569 25.7925 195.573 22.6386C194.578 19.4847 193.331 16.061 191.191 13.6327C188.675 10.7362 185.473 8.51543 181.879 7.17314C178.284 5.83086 174.411 5.4097 170.612 5.94796C160.852 7.15743 150.879 8.66455 141.659 11.9301C100.49 26.5182 68.1044 52.7079 42.7055 88.0802C18.5161 121.778 3.73282 158.332 5.84474 200.589C6.01221 203.771 6.66343 205.287 10.0034 205.771C43.2545 210.572 75.873 208.971 108.37 199.258C158.684 184.298 196.494 153.829 223.791 109.674C231.708 96.8814 237.104 82.9818 235.597 67.4541C234.788 59.0809 231.987 51.7589 223.242 48.2794C220.684 47.256 219.149 47.5816 217.306 49.7959C212.153 56.095 205.05 60.5006 197.117 62.3185C189.898 63.9931 182.483 64.784 175.217 66.2818C172.806 66.685 170.553 67.744 168.704 69.3428C152.888 85.0845 137.305 101.059 121.544 116.856C115.088 123.319 108.47 129.627 101.691 135.78C100.518 136.84 98.2574 136.71 96.4991 137.138C96.9549 135.277 96.8434 132.868 97.9877 131.63C102.072 127.193 106.659 123.257 110.929 118.95C128.476 101.428 145.972 83.8625 163.42 66.2539C164.927 64.7374 165.755 62.3557 166.406 60.2252C167.69 55.9548 168.267 51.4333 169.812 47.256C172.77 39.2828 178.427 33.3006 185.535 28.8721C186.67 28.1557 188.763 28.9837 190.419 29.0953C189.959 30.5515 189.409 31.9777 188.772 33.3657C188.456 33.9797 187.535 34.296 186.911 34.7426C178.845 41.2179 173.486 49.1725 172.631 60.7276Z" fill="#EBEBEB"/>
<path d="M214.748 78.972C212.887 89.2804 209.901 97.9328 204.654 105.813C192.233 124.42 176.194 139.604 159.271 153.959C155.503 157.16 151.828 160.537 147.781 163.337C146.441 164.268 144.059 163.635 142.105 163.719C142.868 162.081 143.203 159.932 144.469 158.89C163.141 143.521 181.348 127.723 195.871 108.139C202.058 99.7656 206.691 90.8621 208.636 80.6188C208.747 80.0141 208.747 79.2325 209.119 78.8511C210.161 77.7719 211.371 76.8602 212.515 75.8833L214.748 78.972Z" fill="#EBEBEB"/>
<path d="M48.8833 113.954C48.6787 112.353 47.7669 110.362 48.3995 109.237C50.2603 106.025 52.4089 102.989 54.8189 100.166C66.7462 85.7451 77.7616 70.4871 92.4985 58.6437C94.5267 57.0155 96.8526 52.9498 99.6902 56.1595C102.528 59.3693 98.2668 61.1184 96.2852 62.821C80.0783 76.7764 67.3788 93.7834 54.3258 110.483C53.1908 111.925 52.6419 113.814 51.8139 115.498L48.8833 113.954Z" fill="#EBEBEB"/>
<path d="M30.2107 189.564C29.2152 188.848 27.5684 188.206 27.5684 187.554C27.5914 186.907 27.7479 186.271 28.0281 185.687C28.3082 185.102 28.706 184.582 29.1965 184.159C33.5692 180.986 38.2025 178.167 42.6124 175.041C53.7024 167.198 64.7177 159.225 75.7611 151.345C76.4233 150.693 77.1868 150.152 78.0218 149.744C79.6301 149.397 81.2584 149.148 82.8971 149C82.4226 150.703 82.5063 153.14 81.3805 153.978C69.7789 162.677 58.0098 171.161 46.2221 179.618C42.5007 182.317 38.5374 184.791 34.6299 187.294C33.3646 188.066 31.9411 188.634 30.2107 189.564Z" fill="#EBEBEB"/>
<path d="M155.177 27.244C154.247 28.1743 153.447 29.3093 152.386 29.8489C143.482 34.1379 134.569 38.4269 125.517 42.3903C124.149 42.995 122.065 41.9437 120.316 41.6646C121.247 40.2504 121.796 38.185 123.107 37.543C131.958 33.1331 140.902 28.9342 149.939 24.946C151.297 24.3506 153.335 25.2902 155.047 25.5135L155.177 27.244Z" fill="#EBEBEB"/>
<path d="M94.7777 190.038L90.9727 186.922C92.0798 185.815 93.0007 184.196 94.3404 183.684C102.09 180.698 109.896 177.823 117.795 175.311C119.395 174.79 121.516 175.813 123.377 176.12C122.335 177.562 121.6 179.758 120.195 180.335C111.934 183.703 103.551 186.717 94.7777 190.038Z" fill="#EBEBEB"/>
<path d="M39.2911 131.649C38.7329 132.933 38.3607 133.919 37.8676 134.887C35.8115 139.194 33.9043 143.576 31.5877 147.735C30.8527 149.065 29.0386 149.782 27.7175 150.786C27.2151 149.214 25.8568 147.298 26.3592 146.135C28.5454 140.892 31.0048 135.768 33.7276 130.784C34.1741 129.946 36.0442 129.518 37.2164 129.584C37.9235 129.602 38.584 130.951 39.2911 131.649Z" fill="#EBEBEB"/>
</svg>
