<svg width="68" height="146" viewBox="0 0 68 146" fill="none" xmlns="http://www.w3.org/2000/svg">
<path d="M62.8868 74.4499C63.1917 85.1525 62.1344 95.5538 57.4066 105.278C54.8832 110.47 51.9668 115.475 49.307 120.595C46.6032 125.714 44.7566 131.241 43.8408 136.956C43.3706 139.891 42.8419 139.914 39.9647 139.436C35.0738 138.603 30.1426 138.028 25.1913 137.712C16.5878 137.206 8.06864 136.446 0.127954 132.726C-12.124 126.984 -22.8275 119.281 -31.0602 108.36C-36.0064 101.792 -40.6842 95.083 -42.8675 87.0449C-47.4171 70.3142 -45.3373 54.4051 -36.422 39.4954C-33.666 34.8814 -30.5817 30.4669 -27.7646 25.8862C-24.9475 21.3055 -22.304 16.6138 -20.8092 11.3911C-20.4152 10.022 -20.1797 8.60606 -19.8995 7.19025C-19.6192 5.77445 -18.9468 5.27659 -17.7873 5.9996C-8.94988 11.5856 1.03796 11.9952 10.9895 12.287C24.431 12.6838 35.4728 17.7163 43.9083 28.3092C51.5066 37.8347 57.9385 47.9775 60.6044 60.0439C61.6612 64.7974 62.147 69.652 62.8868 74.4499ZM41.6802 136.897C42.7377 128.207 46.8418 120.376 51.0565 112.55C53.247 108.481 55.4844 104.395 57.1727 100.105C60.4402 91.8155 60.9791 83.0994 60.3011 74.2775C59.8672 68.4546 59.4351 62.6556 57.676 57.0279C54.3844 46.596 48.6497 37.5825 41.8246 29.1877C34.0005 19.5895 23.8749 14.7883 11.5246 14.5685C3.84555 14.4518 -3.76807 13.6415 -11.1714 11.4928C-13.3922 10.8558 -15.4842 9.77513 -17.7257 8.86065C-17.8979 9.15046 -18.0412 9.45648 -18.1536 9.77428C-19.6915 16.2676 -22.8378 22.0232 -26.3081 27.6375C-29.7783 33.2519 -33.6833 38.7162 -36.6498 44.6202C-45.267 61.7741 -45.7476 79.2688 -36.5277 96.2749C-29.0086 110.146 -18.0804 120.911 -3.94646 128.29C2.45697 131.626 9.06952 134.208 16.3048 134.84C24.6433 135.58 33.0005 136.2 41.6802 136.897Z" fill="#E0E0E0"/>
<path d="M-6.4584 18.1231C-5.90488 24.5811 -4.21596 30.6997 -2.29399 36.7562L-1.88236 36.6877C-2.08938 35.5734 -2.28294 34.4546 -2.50709 33.3416C-2.73123 32.2286 -2.96324 31.1024 -3.22189 29.9885C-3.78304 27.5884 -3.53082 25.3342 -2.10727 23.2684C-0.152634 20.4259 2.60956 19.731 5.45584 21.644C7.099 22.7825 8.59874 24.1152 9.92256 25.6131C12.6327 28.6108 15.8653 29.9303 19.9341 29.9922C22.9787 30.0374 26.0647 30.6376 29.0305 31.381C32.5405 32.2629 35.0967 34.5351 36.5195 37.9146C37.6762 40.6886 39.7894 42.9558 42.4754 44.3043C45.7018 46.003 47.593 48.6416 48.5365 52.1981C49.1162 54.274 50.0499 56.2341 51.2966 57.9923C53.7255 61.4691 54.7188 65.046 53.2187 69.1359C52.984 69.7768 52.8807 70.4699 52.646 71.1108C51.4019 74.2808 51.4181 77.8066 52.6914 80.9649C53.3103 82.5686 53.4679 84.4064 53.5532 86.1531C53.6283 87.3337 53.4082 88.5143 52.9128 89.5885C52.4173 90.6627 51.6622 91.5966 50.7156 92.3059C48.1937 94.2848 47.4748 96.7941 47.9449 99.9141C48.1911 101.667 48.1576 103.448 47.8456 105.191C46.6777 111.843 41.7053 114.862 34.2248 113.205C36.2049 116.019 37.9697 118.533 39.9465 121.351C42.2036 118.083 44.456 115.215 46.3075 112.098C50.5924 104.89 54.4859 97.4222 55.4627 88.9902C56.0341 84.0396 55.5563 78.9673 55.5064 73.9527C55.4944 73.0064 54.972 71.8192 56.2837 71.5803C56.6237 71.5205 57.5304 72.9202 57.6347 73.7184C58.9137 83.4874 57.92 92.9402 53.9553 102.087C50.6689 109.662 46.0946 116.405 41.4002 123.11C40.4671 124.454 39.7018 124.445 38.6284 122.889C35.6208 118.581 32.7673 114.168 29.7664 109.855C26.3183 104.904 25.223 99.172 24.1955 93.4243C23.418 88.9536 21.4402 84.7783 18.4735 81.3446C13.9854 76.0718 10.3019 70.3188 8.3148 63.6197C7.71639 61.5977 7.34681 59.5036 6.94425 57.4291C6.37203 54.3719 4.48484 52.1567 2.38431 50.0365C1.15573 48.802 -0.31986 47.5343 -0.910452 45.9871C-3.04903 40.3979 -5.01435 34.7304 -6.70604 28.9909C-7.69768 25.6206 -8.16964 22.0599 -8.64779 18.5549C-9.03293 15.6973 -8.26266 15.2645 -5.50087 15.72C-0.371489 16.564 4.79206 17.2194 9.94574 17.9273C20.0759 19.3217 29.3955 22.781 37.1848 29.5093C42.9166 34.4621 46.9255 40.8384 50.5049 47.4602C50.7722 47.95 50.4802 48.7468 50.4463 49.4003C49.8341 49.0429 48.9977 48.8193 48.6428 48.3085C46.374 44.9472 44.2823 41.4659 41.9979 38.1264C35.6457 28.8215 26.4575 23.706 15.7584 21.331C8.75479 19.7863 1.53779 19.122 -5.58397 18.0717C-5.8764 18.063 -6.169 18.0802 -6.4584 18.1231ZM7.60286 52.2619C8.14675 54.0606 8.74708 55.831 9.21219 57.6356C9.6773 59.4402 9.87688 61.2404 10.3829 62.9937C12.2453 69.4989 15.9395 74.979 20.2663 80.0744C23.0868 83.3981 25.1041 87.1294 25.9697 91.4426C26.5146 94.1333 27.0798 96.819 27.6484 99.5045C28.6044 104.014 30.4543 107.947 34.5794 110.475C38.4554 112.848 42.5633 111.771 44.7091 107.75C45.9325 105.518 46.3481 102.932 45.8858 100.429C45.1371 96.2519 46.3446 92.9968 49.6026 90.219C50.6226 89.3474 51.2098 87.5677 51.3312 86.1465C51.4685 84.4353 51.1999 82.7159 50.5474 81.1281C49.1897 77.9296 49.1822 74.8235 50.2655 71.612C50.5725 70.6936 50.7131 69.7153 51.0512 68.798C52.3716 65.2554 51.5631 62.171 49.4348 59.123C48.1452 57.2553 47.1688 55.1898 46.5441 53.0078C45.6189 49.8357 43.9532 47.4972 41.0474 45.9399C38.1988 44.4128 36.0276 42.2222 34.757 39.1757C33.5993 36.3963 31.6397 34.3174 28.6607 33.5819C25.9094 32.8982 23.0733 32.1383 20.287 32.1392C15.0733 32.1523 11.0322 30.1974 7.64681 26.3648C6.5197 25.1055 5.06819 24.1149 3.66478 23.1689C2.54094 22.4157 1.40564 22.7104 0.395195 23.664C-1.24602 25.2122 -1.41571 27.0951 -1.13253 29.1853C-0.594603 33.0303 0.129303 36.8753 0.282581 40.7352C0.466741 45.8879 2.16617 48.403 7.15649 49.7843C7.78251 49.9581 8.31394 50.4799 8.89184 50.8398L7.60286 52.2619Z" fill="#E0E0E0"/>
<path d="M23.615 120.395C21.3809 123.186 18.9741 124.905 15.9326 125.734C11.2306 127.021 7.20651 125.895 3.88825 122.409C2.11349 120.547 0.499273 118.528 -1.12026 116.531C-2.56009 114.722 -4.63788 113.533 -6.92678 113.209C-8.50332 112.944 -10.0751 112.558 -11.6118 112.18C-18.1199 110.63 -21.6783 106.231 -23.2629 99.9879C-23.9941 97.1079 -24.6379 94.2007 -25.2676 91.2959C-25.6759 89.4217 -26.7898 88.1545 -28.4149 87.2389C-34.936 83.571 -36.8286 79.4342 -35.3186 72.1508C-35.1334 71.1393 -34.8976 70.1377 -34.6122 69.1499C-33.7006 66.3026 -33.7406 63.236 -34.7259 60.4134C-35.9352 56.6632 -36.445 52.7334 -34.2801 49.1072C-33.3375 47.473 -32.113 46.0186 -30.6634 44.8113C-25.2918 40.5397 -23 34.6412 -21.1906 28.3239C-20.4139 25.6209 -19.0018 23.0771 -17.6697 20.5703C-16.9139 19.157 -15.7432 19.1524 -15.0416 20.526C-12.3684 25.755 -9.55394 30.939 -7.35175 36.3649C-6.33562 38.8621 -6.70566 41.893 -6.27921 44.658C-5.95937 46.7317 -5.71572 48.9386 -4.79046 50.7709C-3.83776 52.6941 -2.46008 54.8198 -0.68594 55.8415C4.32368 58.7299 6.27339 63.2172 6.59423 68.494C6.87851 73.095 8.60764 76.6102 12.0347 79.6613C16.5695 83.7114 18.3469 89.262 18.9999 95.1133C19.5392 99.9468 20.4393 104.585 22.9968 108.816C23.6604 109.911 23.9712 111.262 24.2416 112.533C25.264 117.334 26.1984 122.155 27.17 126.967C27.7535 129.851 27.387 130.619 24.496 130.786C21.8251 130.97 19.1417 130.829 16.5049 130.365C11.4014 129.406 6.32973 128.227 1.31482 126.885C-5.13357 125.165 -10.4532 121.49 -15.3154 116.975C-22.0986 110.668 -28.2405 103.817 -32.9803 95.8591C-34.8857 92.6601 -35.9368 88.9531 -37.3605 85.4703C-37.5117 85.1517 -37.5577 84.7933 -37.4919 84.4468C-37.3126 84.0071 -37.0876 83.5874 -36.8205 83.1948C-36.3834 83.4687 -35.7745 83.6438 -35.5489 84.0368C-35.1897 84.754 -34.9247 85.5145 -34.7603 86.2995C-33.5753 90.7852 -31.3954 94.7559 -28.7111 98.5167C-23.7867 105.414 -18.0778 111.715 -11.6992 117.295C-7.53834 120.949 -2.87184 123.67 2.51362 124.946C8.5091 126.366 14.5262 127.754 20.6015 128.765C25.2914 129.535 25.4924 129.089 24.4663 124.471C24.1807 123.273 23.9519 122.05 23.615 120.395ZM-23.2046 40.2154C-25.7662 42.8173 -28.2745 45.3015 -30.7307 47.8369C-33.6093 50.8068 -34.3763 54.3806 -33.0621 58.1506C-31.5247 62.5583 -31.3575 66.8374 -32.9281 71.2287C-33.1334 71.883 -33.2839 72.5532 -33.3781 73.2324C-34.3842 78.7734 -32.93 82.3883 -28.1347 84.8966C-24.9562 86.5541 -23.5077 89.0293 -22.7981 92.3587C-22.0777 95.8254 -21.15 99.2459 -20.02 102.602C-18.7562 106.296 -15.9613 108.63 -12.2541 109.755C-10.3947 110.319 -8.50355 110.771 -6.5906 111.111C-3.51347 111.624 -0.752387 113.303 1.1191 115.799C2.6408 117.731 4.25353 119.592 5.94973 121.37C8.64708 124.197 12.6821 124.867 16.5696 123.282C20.7286 121.595 22.5096 119.196 22.2747 114.75C22.1066 112.769 21.5377 110.842 20.6026 109.088C18.8398 105.63 17.4395 102.091 17.1954 98.2133C16.7102 90.5929 14.2122 83.9697 8.21892 78.8813C6.11651 77.1058 5.14976 74.6704 4.85413 71.9508C4.64985 70.1337 4.46218 68.3084 4.10478 66.5165C3.50261 63.4271 2.51342 60.4595 -0.444903 58.7994C-5.63595 55.8797 -7.85529 51.2403 -8.38145 45.5655C-8.59686 43.2291 -8.62469 40.8684 -8.97926 38.5596C-9.48254 35.3182 -10.6785 32.3488 -13.5654 30.4457C-16.3628 28.5876 -18.7805 29.4221 -20.3489 32.3633C-21.6122 34.7306 -21.2085 37.0978 -21.0495 39.5554C-20.7588 44.0113 -19.4822 47.7393 -14.9607 49.624C-14.5056 49.8139 -14.3201 50.6405 -14.0121 51.1686C-14.6625 51.2687 -15.4183 51.6178 -15.9463 51.4195C-19.026 50.2093 -21.2778 48.0936 -22.2524 44.8597C-22.658 43.3917 -22.8616 41.8603 -23.2046 40.2154ZM-14.1078 27.3726L-16.1903 22.9055L-16.6761 22.9038L-18.7812 27.4245L-14.1078 27.3726Z" fill="#E0E0E0"/>
<path d="M30.3694 87.6222C30.9771 84.9145 31.5534 82.2023 32.2 79.5089C32.7238 77.2931 33.5092 75.1233 33.8763 72.8847C34.3531 70.0387 32.9545 68.1866 30.6085 68.0411C27.7746 67.8665 25.7841 69.6267 25.5449 72.3792C25.5066 72.8367 24.9208 73.2489 24.6087 73.682C24.233 73.2622 23.6134 72.8986 23.509 72.4207C23.1599 70.7866 23.8468 69.4197 24.9179 68.2171C26.789 66.1489 29.9557 65.2895 32.4284 66.2108C34.9012 67.1322 36.2948 69.1949 35.9884 72.3864C35.7588 74.8524 34.9259 77.2634 34.3913 79.7039C33.8471 82.2002 33.1094 84.6868 32.9152 87.2121C32.81 88.5735 33.4134 90.1543 34.1317 91.382C35.4818 93.6924 37.7212 93.839 39.7689 92.1537C40.2332 91.7747 40.993 91.7559 41.6196 91.568C41.4926 92.2664 41.5944 93.1715 41.2007 93.6658C39.5505 95.7864 35.9895 95.976 33.7728 94.1917C31.9402 92.7094 30.9844 90.6521 30.786 87.7117L30.3694 87.6222Z" fill="#E0E0E0"/>
<path d="M33.9271 62.197C33.5644 61.9519 32.9066 61.7219 32.7916 61.3344C32.6767 60.9469 33.1055 60.2777 33.4849 60.0531C36.7633 58.1969 37.0067 55.6852 33.6783 53.7736C31.8466 52.7184 29.5062 52.4175 27.3539 52.0991C24.3731 51.6633 21.3247 51.6597 18.3339 51.2282C15.9631 50.8882 14.478 49.2629 13.904 46.967C13.3109 44.6002 14.1846 42.5513 15.7509 40.8295C16.0679 40.4615 16.914 40.5844 17.5125 40.4813C17.4405 41.0411 17.3757 41.604 17.2932 42.1612C17.2798 42.2586 17.1548 42.3368 17.0895 42.4312C14.709 45.798 16.081 49.0504 20.1669 49.4796C22.7744 49.7606 25.4104 49.8225 28.0358 49.9266C31.0345 50.0476 33.8269 50.6834 36.076 52.8097C39.3815 55.9388 39.0084 59.8069 35.2626 61.6773C34.8955 61.8355 34.5022 61.9647 33.9271 62.197Z" fill="#E0E0E0"/>
<path d="M48.9049 63.0545C48.6185 64.2503 48.234 65.5603 48.0039 66.9103C47.613 69.1989 47.3546 71.5086 46.9563 73.7908C46.8673 74.3072 46.4221 74.7571 46.1439 75.229C45.7494 74.8348 45.0283 74.4476 45.0224 74.045C44.9647 72.3069 45.0493 70.567 45.2754 68.8426C45.4552 67.5583 46.1426 66.336 46.2879 65.0508C46.4267 63.8626 46.1072 62.6257 46.0611 61.4064C46.0709 60.7987 46.1201 60.1921 46.2082 59.5907C46.8077 59.8698 47.6166 60.0025 47.9545 60.4698C48.4272 61.1269 48.5538 62.0405 48.9049 63.0545Z" fill="#E0E0E0"/>
<path d="M4.2156 39.7567C4.85258 41.1869 5.5228 42.6007 6.10599 44.0486C6.30881 44.6845 6.46205 45.3353 6.56441 45.9949C5.82418 45.7676 4.82626 45.78 4.39204 45.2682C3.6297 44.4102 3.06795 43.3933 2.74753 42.2912C2.42712 41.1891 2.35608 40.0295 2.53958 38.8965C2.62497 38.3322 3.28498 37.8525 3.68349 37.3303C3.97094 37.86 4.28503 38.3773 4.53925 38.9232C4.58943 39.149 4.5963 39.3822 4.55948 39.6105L4.2156 39.7567Z" fill="#E0E0E0"/>
<path d="M-2.60568 96.3169C-2.71565 92.8533 -1.27889 88.4684 2.24704 84.8958C2.65714 84.4829 3.73229 84.1204 4.06313 84.354C5.0446 85.0455 4.16675 85.7447 3.68961 86.321C0.719297 89.7696 -0.813579 93.6966 -0.34675 98.2978C-0.104148 100.722 0.94274 102.476 3.46131 103.18C5.84958 103.846 7.42536 105.534 8.64342 107.644C9.6167 109.335 10.1902 111.393 12.3634 112.13C12.486 112.229 12.5809 112.358 12.6389 112.505C12.6969 112.651 12.716 112.81 12.6944 112.966C12.5041 113.325 12.0283 113.874 11.7935 113.819C10.9625 113.622 9.94144 113.416 9.43627 112.83C8.44238 111.581 7.56871 110.24 6.82684 108.826C5.85659 106.99 4.20026 105.612 2.21857 104.992C-1.24634 103.882 -2.33401 101.119 -2.60568 96.3169Z" fill="#E0E0E0"/>
<path d="M0.904057 67.468C0.916187 68.2318 1.08407 68.8668 0.889796 69.3565C0.695524 69.8463 0.143536 70.2043 -0.248929 70.6227C-0.542425 70.1969 -0.998524 69.8072 -1.09882 69.3394C-1.36699 68.2366 -1.45933 67.0896 -1.6463 65.967C-1.94292 64.2049 -2.67913 62.7374 -4.25041 61.711C-4.57997 61.4944 -4.57854 60.7745 -4.732 60.2865C-4.15963 60.2025 -3.28467 59.8342 -3.06293 60.0829C-1.85136 61.3183 -0.78644 62.6894 0.110621 64.169C0.670399 65.164 0.685164 66.4717 0.904057 67.468Z" fill="#E0E0E0"/>
</svg>
